<svg version="1.1" viewBox="0.0 0.0 960.0 540.0" fill="none" stroke="none" stroke-linecap="square" stroke-miterlimit="10" xmlns:xlink="http://www.w3.org/1999/xlink" xmlns="http://www.w3.org/2000/svg"><clipPath id="g31d2f13b9eb_0_0.0"><path d="m0 0l960.0 0l0 540.0l-960.0 0l0 -540.0z" clip-rule="nonzero"/></clipPath><g clip-path="url(#g31d2f13b9eb_0_0.0)"><path fill="#ffffff" d="m0 0l960.0 0l0 540.0l-960.0 0z" fill-rule="evenodd"/><path fill="#ffffff" d="m744.43567 21.572178l135.21265 0l0 48.47244l-135.21265 0z" fill-rule="evenodd"/><path stroke="#595959" stroke-width="1.0" stroke-linejoin="round" stroke-linecap="butt" d="m744.43567 21.572178l135.21265 0l0 48.47244l-135.21265 0z" fill-rule="evenodd"/><path fill="#eeeeee" d="m22.425198 19.023623l128.53543 0l0 48.472443l-128.53543 0z" fill-rule="evenodd"/><path stroke="#595959" stroke-width="1.0" stroke-linejoin="round" stroke-linecap="butt" d="m22.425198 19.023623l128.53543 0l0 48.472443l-128.53543 0z" fill-rule="evenodd"/><path fill="#000000" fill-opacity="0.0" d="m22.569553 19.839895l128.53543 0l0 48.472435l-128.53543 0z" fill-rule="evenodd"/><path fill="#595959" d="m34.30393 51.879894l0 -16.796875l1.46875 0l7.671875 13.09375l-0.765625 0l7.609375 -13.09375l1.46875 0l0 16.796875l-1.703125 0l0 -14.140625l0.40625 0l-7.015625 12.0l-0.828125 0l-7.0625 -12.0l0.453125 0l0 14.140625l-1.703125 0zm22.560562 0l0 -12.59375l1.703125 0l0 12.59375l-1.703125 0zm0.875 -15.390625q-0.53125 0 -0.890625 -0.359375q-0.359375 -0.359375 -0.359375 -0.859375q0 -0.5 0.359375 -0.84375q0.359375 -0.359375 0.890625 -0.359375q0.53125 0 0.890625 0.34375q0.359375 0.328125 0.359375 0.84375q0 0.515625 -0.359375 0.875q-0.34375 0.359375 -0.890625 0.359375zm5.5809784 15.390625l0 -12.59375l1.6406288 0l0 3.453125l-0.265625 -0.65625q0.59375 -1.359375 1.90625 -2.140625q1.328125 -0.78125 3.15625 -0.78125q1.53125 0 2.6875 0.59375q1.171875 0.578125 1.828125 1.78125q0.65625 1.203125 0.65625 3.03125l0 7.3125l-1.703125 0l0 -7.15625q0 -1.984375 -1.0 -3.0q-0.984375 -1.03125 -2.78125 -1.03125q-1.34375 0 -2.34375 0.546875q-1.0 0.53125 -1.546875 1.5625q-0.53125 1.015625 -0.53125 2.453125l0 6.625l-1.7031288 0zm16.223957 0l0 -12.59375l1.703125 0l0 12.59375l-1.703125 0zm0.875 -15.390625q-0.53125 0 -0.890625 -0.359375q-0.359375 -0.359375 -0.359375 -0.859375q0 -0.5 0.359375 -0.84375q0.359375 -0.359375 0.890625 -0.359375q0.53125 0 0.890625 0.34375q0.359375 0.328125 0.359375 0.84375q0 0.515625 -0.359375 0.875q-0.34375 0.359375 -0.890625 0.359375zm8.971603 15.515625q-1.5625 0 -2.953125 -0.4375q-1.390625 -0.453125 -2.1875 -1.125l0.765625 -1.34375q0.765625 0.578125 1.96875 1.0q1.203125 0.40625 2.515625 0.40625q1.8125 0 2.59375 -0.5625q0.796875 -0.5625 0.796875 -1.5q0 -0.6875 -0.453125 -1.078125q-0.4375 -0.40625 -1.15625 -0.609375q-0.71875 -0.203125 -1.609375 -0.34375q-0.890625 -0.140625 -1.765625 -0.328125q-0.875 -0.203125 -1.59375 -0.578125q-0.71875 -0.375 -1.171875 -1.015625q-0.4375 -0.65625 -0.4375 -1.734375q0 -1.03125 0.578125 -1.84375q0.578125 -0.8125 1.6875 -1.28125q1.125 -0.46875 2.734375 -0.46875q1.21875 0 2.4375 0.328125q1.234375 0.3125 2.015625 0.84375l-0.734375 1.375q-0.84375 -0.578125 -1.8125 -0.828125q-0.953125 -0.25 -1.90625 -0.25q-1.703125 0 -2.515625 0.59375q-0.796875 0.578125 -0.796875 1.484375q0 0.71875 0.4375 1.140625q0.4375 0.40625 1.171875 0.640625q0.734375 0.21875 1.609375 0.359375q0.875 0.140625 1.75 0.34375q0.875 0.203125 1.609375 0.5625q0.734375 0.34375 1.171875 0.984375q0.453125 0.625 0.453125 1.65625q0 1.109375 -0.609375 1.921875q-0.609375 0.796875 -1.78125 1.25q-1.15625 0.4375 -2.8125 0.4375zm8.321335 -0.125l0 -17.8125l1.703125 0l0 8.671875l-0.328125 -0.65625q0.59375 -1.359375 1.90625 -2.140625q1.328125 -0.78125 3.15625 -0.78125q1.53125 0 2.6875 0.59375q1.171875 0.578125 1.828125 1.78125q0.65625 1.203125 0.65625 3.03125l0 7.3125l-1.703125 0l0 -7.15625q0 -1.984375 -1.0 -3.0q-0.984375 -1.03125 -2.78125 -1.03125q-1.34375 0 -2.34375 0.546875q-1.0 0.53125 -1.546875 1.5625q-0.53125 1.015625 -0.53125 2.453125l0 6.625l-1.703125 0zm21.583328 0.125q-1.96875 0 -3.46875 -0.828125q-1.484375 -0.828125 -2.328125 -2.28125q-0.828125 -1.453125 -0.828125 -3.328125q0 -1.875 0.796875 -3.3125q0.8125 -1.4375 2.203125 -2.265625q1.40625 -0.828125 3.15625 -0.828125q1.78125 0 3.15625 0.8125q1.390625 0.796875 2.171875 2.25q0.796875 1.453125 0.796875 3.34375q0 0.125 -0.015625 0.265625q0 0.125 0 0.265625l-10.96875 0l0 -1.28125l10.046875 0l-0.671875 0.515625q0 -1.375 -0.59375 -2.4375q-0.578125 -1.078125 -1.59375 -1.671875q-1.0 -0.59375 -2.328125 -0.59375q-1.296875 0 -2.328125 0.59375q-1.03125 0.59375 -1.609375 1.6875q-0.5625 1.078125 -0.5625 2.46875l0 0.265625q0 1.4375 0.625 2.53125q0.640625 1.09375 1.78125 1.703125q1.140625 0.609375 2.609375 0.609375q1.140625 0 2.140625 -0.40625q1.0 -0.40625 1.71875 -1.25l0.953125 1.109375q-0.828125 1.0 -2.09375 1.53125q-1.265625 0.53125 -2.765625 0.53125zm9.136574 -0.125l0 -17.8125l1.703125 0l0 17.8125l-1.703125 0zm6.4559784 0l0 -17.8125l1.703125 0l0 17.8125l-1.703125 0z" fill-rule="nonzero"/><path fill="#eeeeee" d="m214.4252 19.023623l128.53543 0l0 48.472443l-128.53543 0z" fill-rule="evenodd"/><path stroke="#595959" stroke-width="1.0" stroke-linejoin="round" stroke-linecap="butt" d="m214.4252 19.023623l128.53543 0l0 48.472443l-128.53543 0z" fill-rule="evenodd"/><path fill="#000000" fill-opacity="0.0" d="m214.56955 19.839895l128.53543 0l0 48.472435l-128.53543 0z" fill-rule="evenodd"/><path fill="#595959" d="m226.30392 51.879894l0 -16.796875l1.78125 0l0 15.265625l9.40625 0l0 1.53125l-11.1875 0zm13.776581 0l0 -12.59375l1.703125 0l0 12.59375l-1.703125 0zm0.875 -15.390625q-0.53125 0 -0.890625 -0.359375q-0.359375 -0.359375 -0.359375 -0.859375q0 -0.5 0.359375 -0.84375q0.359375 -0.359375 0.890625 -0.359375q0.53125 0 0.890625 0.34375q0.359375 0.328125 0.359375 0.84375q0 0.515625 -0.359375 0.875q-0.34375 0.359375 -0.890625 0.359375zm12.080978 15.515625q-1.65625 0 -2.984375 -0.75q-1.3125 -0.765625 -2.078125 -2.203125q-0.765625 -1.4375 -0.765625 -3.484375q0 -2.0625 0.78125 -3.484375q0.78125 -1.4375 2.09375 -2.171875q1.328125 -0.75 2.953125 -0.75q1.8125 0 3.2343903 0.8125q1.421875 0.796875 2.234375 2.234375q0.828125 1.4375 0.828125 3.359375q0 1.890625 -0.828125 3.34375q-0.8125 1.453125 -2.234375 2.28125q-1.4218903 0.8125 -3.2343903 0.8125zm-6.5 -0.125l0 -17.8125l1.703125 0l0 8.9375l-0.234375 2.53125l0.171875 2.546875l0 3.796875l-1.640625 0zm6.390625 -1.390625q1.34375 0 2.390625 -0.609375q1.0625153 -0.609375 1.6875153 -1.71875q0.625 -1.125 0.625 -2.59375q0 -1.484375 -0.625 -2.59375q-0.625 -1.109375 -1.6875153 -1.71875q-1.046875 -0.609375 -2.390625 -0.609375q-1.34375 0 -2.421875 0.609375q-1.0625 0.609375 -1.671875 1.71875q-0.609375 1.109375 -0.609375 2.59375q0 1.46875 0.609375 2.59375q0.609375 1.109375 1.671875 1.71875q1.078125 0.609375 2.421875 0.609375z" fill-rule="nonzero"/><path fill="#eeeeee" d="m390.4252 19.023623l59.02362 0l0 48.472443l-59.02362 0z" fill-rule="evenodd"/><path stroke="#595959" stroke-width="1.0" stroke-linejoin="round" stroke-linecap="butt" d="m390.4252 19.023623l59.02362 0l0 48.472443l-59.02362 0z" fill-rule="evenodd"/><path fill="#000000" fill-opacity="0.0" d="m390.56955 19.839895l59.02362 0l0 43.622047l-59.02362 0z" fill-rule="evenodd"/><path fill="#595959" d="m401.55392 48.039894l0 -14.84375l1.421875 0l0 14.84375l-1.421875 0zm5.380005 0l0 -10.5l1.421875 0l0 10.5l-1.421875 0zm0.71875 -12.8125q-0.4375 0 -0.75 -0.296875q-0.296875 -0.3125 -0.296875 -0.734375q0 -0.421875 0.296875 -0.703125q0.3125 -0.296875 0.75 -0.296875q0.4375 0 0.734375 0.28125q0.3125 0.28125 0.3125 0.703125q0 0.4375 -0.296875 0.75q-0.296875 0.296875 -0.75 0.296875zm10.083099 12.90625q-1.390625 0 -2.5 -0.625q-1.09375 -0.625 -1.734375 -1.828125q-0.625 -1.203125 -0.625 -2.90625q0 -1.71875 0.640625 -2.90625q0.65625 -1.1875 1.75 -1.796875q1.109375 -0.625 2.46875 -0.625q1.5 0 2.6875 0.671875q1.1875 0.65625 1.859375 1.859375q0.6875 1.203125 0.6875 2.796875q0 1.578125 -0.6875 2.796875q-0.671875 1.203125 -1.859375 1.890625q-1.1875 0.671875 -2.6875 0.671875zm-5.421875 -0.09375l0 -14.84375l1.421875 0l0 7.4375l-0.203125 2.125l0.140625 2.125l0 3.15625l-1.359375 0zm5.3125 -1.15625q1.125 0 2.0 -0.515625q0.890625 -0.515625 1.40625 -1.4375q0.515625 -0.9375 0.515625 -2.15625q0 -1.234375 -0.515625 -2.15625q-0.515625 -0.921875 -1.40625 -1.421875q-0.875 -0.515625 -2.0 -0.515625q-1.109375 0 -2.0 0.515625q-0.890625 0.5 -1.40625 1.421875q-0.515625 0.921875 -0.515625 2.15625q0 1.21875 0.515625 2.15625q0.515625 0.921875 1.40625 1.4375q0.890625 0.515625 2.0 0.515625zm8.481873 1.15625l0 -11.8125q0 -1.40625 0.8125 -2.265625q0.828125 -0.859375 2.375 -0.859375q0.59375 0 1.15625 0.15625q0.5625 0.15625 0.9375 0.5l-0.484375 1.0625q-0.296875 -0.265625 -0.703125 -0.390625q-0.390625 -0.125 -0.859375 -0.125q-0.890625 0 -1.375 0.5q-0.484375 0.5 -0.484375 1.46875l0 1.609375l0.046875 0.65625l0 9.5l-1.421875 0zm-1.875 -9.3125l0 -1.1875l6.5 0l0 1.1875l-6.5 0zm11.733124 9.40625q-1.484375 0 -2.28125 -0.796875q-0.796875 -0.796875 -0.796875 -2.25l0 -9.859375l1.421875 0l0 9.765625q0 0.921875 0.46875 1.421875q0.46875 0.5 1.34375 0.5q0.953125 0 1.5625 -0.53125l0.5 1.015625q-0.421875 0.375 -1.015625 0.5625q-0.578125 0.171875 -1.203125 0.171875zm-4.953125 -9.40625l0 -1.1875l6.5 0l0 1.1875l-6.5 0z" fill-rule="nonzero"/><path fill="#eeeeee" d="m453.15616 19.023623l101.41733 0l0 48.472443l-101.41733 0z" fill-rule="evenodd"/><path stroke="#595959" stroke-width="1.0" stroke-linejoin="round" stroke-linecap="butt" d="m453.15616 19.023623l101.41733 0l0 48.472443l-101.41733 0z" fill-rule="evenodd"/><path fill="#000000" fill-opacity="0.0" d="m453.30054 19.839895l101.4173 0l0 43.622047l-101.4173 0z" fill-rule="evenodd"/><path fill="#595959" d="m464.5193 48.039894l0 -11.8125q0 -1.40625 0.8125 -2.265625q0.828125 -0.859375 2.375 -0.859375q0.59375 0 1.15625 0.15625q0.5625 0.15625 0.9375 0.5l-0.484375 1.0625q-0.296875 -0.265625 -0.703125 -0.390625q-0.390625 -0.125 -0.859375 -0.125q-0.890625 0 -1.375 0.5q-0.484375 0.5 -0.484375 1.46875l0 1.609375l0.046875 0.65625l0 9.5l-1.421875 0zm-1.875 -9.3125l0 -1.1875l6.5 0l0 1.1875l-6.5 0zm11.733124 9.40625q-1.484375 0 -2.28125 -0.796875q-0.796875 -0.796875 -0.796875 -2.25l0 -9.859375l1.421875 0l0 9.765625q0 0.921875 0.46875 1.421875q0.46875 0.5 1.34375 0.5q0.953125 0 1.5625 -0.53125l0.5 1.015625q-0.421875 0.375 -1.015625 0.5625q-0.578125 0.171875 -1.203125 0.171875zm-4.953125 -9.40625l0 -1.1875l6.5 0l0 1.1875l-6.5 0zm8.476227 10.265625l0 -0.953125l10.0 0l0 0.953125l-10.0 0zm17.40625 -0.859375q-1.359375 0 -2.46875 -0.625q-1.09375 -0.625 -1.75 -1.8125q-0.640625 -1.203125 -0.640625 -2.921875q0 -1.71875 0.625 -2.90625q0.640625 -1.1875 1.734375 -1.796875q1.109375 -0.625 2.5 -0.625q1.5 0 2.6875 0.671875q1.1875 0.65625 1.859375 1.875q0.6875 1.203125 0.6875 2.78125q0 1.609375 -0.6875 2.8125q-0.671875 1.1875 -1.859375 1.875q-1.1875 0.671875 -2.6875 0.671875zm-5.421875 3.7812462l0 -14.374996l1.359375 0l0 3.15625l-0.140625 2.109375l0.203125 2.109375l0 6.999996l-1.421875 0zm5.3125 -5.031246q1.125 0 2.0 -0.515625q0.890625 -0.515625 1.40625 -1.4375q0.515625 -0.9375 0.515625 -2.15625q0 -1.21875 -0.515625 -2.125q-0.515625 -0.921875 -1.40625 -1.4375q-0.875 -0.53125 -2.0 -0.53125q-1.109375 0 -2.0 0.53125q-0.890625 0.515625 -1.40625 1.4375q-0.515625 0.90625 -0.515625 2.125q0 1.21875 0.515625 2.15625q0.515625 0.921875 1.40625 1.4375q0.890625 0.515625 2.0 0.515625zm8.247467 1.15625l0 -10.5l1.359375 0l0 2.859375l-0.140625 -0.5q0.4375 -1.203125 1.46875 -1.828125q1.046875 -0.625 2.59375 -0.625l0 1.375q-0.078125 0 -0.171875 0q-0.078125 -0.015625 -0.15625 -0.015625q-1.65625 0 -2.59375 1.015625q-0.9375 1.0 -0.9375 2.859375l0 5.359375l-1.421875 0zm7.8599854 0l0 -10.5l1.4219055 0l0 10.5l-1.4219055 0zm0.7187805 -12.8125q-0.43753052 0 -0.7500305 -0.296875q-0.296875 -0.3125 -0.296875 -0.734375q0 -0.421875 0.296875 -0.703125q0.3125 -0.296875 0.7500305 -0.296875q0.4375 0 0.734375 0.28125q0.3125 0.28125 0.3125 0.703125q0 0.4375 -0.296875 0.75q-0.296875 0.296875 -0.75 0.296875zm4.661194 12.8125l0 -10.5l1.359375 0l0 2.875l-0.21875 -0.53125q0.5 -1.140625 1.59375 -1.78125q1.09375 -0.65625 2.625 -0.65625q1.28125 0 2.25 0.484375q0.96875 0.484375 1.515625 1.484375q0.546875 1.0 0.546875 2.53125l0 6.09375l-1.421875 0l0 -5.953125q0 -1.671875 -0.828125 -2.515625q-0.828125 -0.84375 -2.328125 -0.84375q-1.125 0 -1.953125 0.453125q-0.828125 0.4375 -1.28125 1.296875q-0.4375 0.84375 -0.4375 2.046875l0 5.515625l-1.421875 0zm16.83252 0.09375q-1.484375 0 -2.28125 -0.796875q-0.796875 -0.796875 -0.796875 -2.25l0 -9.859375l1.421875 0l0 9.765625q0 0.921875 0.46875 1.421875q0.46875 0.5 1.34375 0.5q0.953125 0 1.5625 -0.53125l0.5 1.015625q-0.421875 0.375 -1.015625 0.5625q-0.578125 0.171875 -1.203125 0.171875zm-4.953125 -9.40625l0 -1.1875l6.5 0l0 1.1875l-6.5 0zm9.994995 9.3125l0 -11.8125q0 -1.40625 0.8125 -2.265625q0.828125 -0.859375 2.375 -0.859375q0.59375 0 1.15625 0.15625q0.5625 0.15625 0.9375 0.5l-0.484375 1.0625q-0.296875 -0.265625 -0.703125 -0.390625q-0.390625 -0.125 -0.859375 -0.125q-0.890625 0 -1.375 0.5q-0.484375 0.5 -0.484375 1.46875l0 1.609375l0.046875 0.65625l0 9.5l-1.421875 0zm-1.875 -9.3125l0 -1.1875l6.5 0l0 1.1875l-6.5 0z" fill-rule="nonzero"/><path fill="#eeeeee" d="m558.4252 19.023623l52.031494 0l0 48.472443l-52.031494 0z" fill-rule="evenodd"/><path stroke="#595959" stroke-width="1.0" stroke-linejoin="round" stroke-linecap="butt" d="m558.4252 19.023623l52.031494 0l0 48.472443l-52.031494 0z" fill-rule="evenodd"/><path fill="#000000" fill-opacity="0.0" d="m558.5696 19.839895l52.031494 0l0 43.622047l-52.031494 0z" fill-rule="evenodd"/><path fill="#595959" d="m574.0227 52.024265q-1.4375 0 -2.765625 -0.4218712q-1.3125 -0.421875 -2.125 -1.203125l0.71875 -1.078125q0.734375 0.65625 1.828125 1.046875q1.09375 0.390625 2.3125 0.390625q2.0 0 2.9375 -0.9375q0.9375 -0.921875 0.9375 -2.875l0 -2.625l0.203125 -1.796875l-0.140625 -1.796875l0 -3.1875l1.359375 0l0 9.21875q0 2.71875 -1.328125 3.984375q-1.328125 1.2812462 -3.9375 1.2812462zm-0.25 -4.390621q-1.5 0 -2.703125 -0.640625q-1.203125 -0.65625 -1.890625 -1.8125q-0.6875 -1.15625 -0.6875 -2.65625q0 -1.5 0.6875 -2.640625q0.6875 -1.15625 1.890625 -1.796875q1.203125 -0.640625 2.703125 -0.640625q1.390625 0 2.515625 0.578125q1.125 0.578125 1.78125 1.71875q0.65625 1.140625 0.65625 2.78125q0 1.640625 -0.65625 2.78125q-0.65625 1.140625 -1.78125 1.734375q-1.125 0.59375 -2.515625 0.59375zm0.140625 -1.25q1.15625 0 2.046875 -0.484375q0.90625 -0.5 1.421875 -1.359375q0.53125 -0.875 0.53125 -2.015625q0 -1.140625 -0.53125 -2.0q-0.515625 -0.859375 -1.421875 -1.34375q-0.890625 -0.5 -2.046875 -0.5q-1.140625 0 -2.0625 0.5q-0.90625 0.484375 -1.421875 1.34375q-0.5 0.859375 -0.5 2.0q0 1.140625 0.5 2.015625q0.515625 0.859375 1.421875 1.359375q0.921875 0.484375 2.0625 0.484375zm9.340576 1.65625l0 -10.5l1.359375 0l0 2.875l-0.21875 -0.53125q0.5 -1.140625 1.59375 -1.78125q1.09375 -0.65625 2.625 -0.65625q1.28125 0 2.25 0.484375q0.96875 0.484375 1.515625 1.484375q0.546875 1.0 0.546875 2.53125l0 6.09375l-1.421875 0l0 -5.953125q0 -1.671875 -0.828125 -2.515625q-0.828125 -0.84375 -2.328125 -0.84375q-1.125 0 -1.953125 0.453125q-0.828125 0.4375 -1.28125 1.296875q-0.4375 0.84375 -0.4375 2.046875l0 5.515625l-1.421875 0zm13.52002 0l0 -14.84375l1.421875 0l0 14.84375l-1.421875 0z" fill-rule="nonzero"/><path fill="#eeeeee" d="m214.4252 83.02362l128.53543 0l0 48.472443l-128.53543 0z" fill-rule="evenodd"/><path stroke="#595959" stroke-width="1.0" stroke-linejoin="round" stroke-linecap="butt" d="m214.4252 83.02362l128.53543 0l0 48.472443l-128.53543 0z" fill-rule="evenodd"/><path fill="#000000" fill-opacity="0.0" d="m214.56955 83.8399l128.53543 0l0 48.472435l-128.53543 0z" fill-rule="evenodd"/><path fill="#595959" d="m226.30392 115.8799l0 -16.796875l1.78125 0l0 15.265625l9.40625 0l0 1.53125l-11.1875 0zm18.943954 0.125q-1.96875 0 -3.46875 -0.828125q-1.484375 -0.828125 -2.328125 -2.28125q-0.828125 -1.453125 -0.828125 -3.328125q0 -1.875 0.796875 -3.3125q0.8125 -1.4375 2.203125 -2.265625q1.40625 -0.828125 3.15625 -0.828125q1.78125 0 3.15625 0.8125q1.390625 0.796875 2.171875 2.25q0.796875 1.453125 0.796875 3.34375q0 0.125 -0.015625 0.265625q0 0.125 0 0.265625l-10.96875 0l0 -1.28125l10.046875 0l-0.671875 0.515625q0 -1.375 -0.59375 -2.4375q-0.578125 -1.078125 -1.59375 -1.671875q-1.0 -0.59375 -2.328125 -0.59375q-1.296875 0 -2.328125 0.59375q-1.03125 0.59375 -1.609375 1.6875q-0.5625 1.078125 -0.5625 2.46875l0 0.265625q0 1.4375 0.625 2.53125q0.640625 1.09375 1.78125 1.703125q1.140625 0.609375 2.609375 0.609375q1.140625 0 2.140625 -0.40625q1.0 -0.40625 1.71875 -1.25l0.953125 1.109375q-0.828125 1.0 -2.09375 1.53125q-1.265625 0.53125 -2.765625 0.53125zm6.854706 -0.125l5.3281403 -6.90625l-0.015625 0.828125l-5.0625153 -6.515625l1.90625 0l4.1562653 5.390625l-0.71875 -0.015625l4.15625 -5.375l1.875 0l-5.125 6.59375l0.03125 -0.90625l5.375 6.90625l-1.9375 0l-4.390625 -5.765625l0.671875 0.109375l-4.3281403 5.65625l-1.921875 0zm19.689224 0.125q-1.96875 0 -3.46875 -0.828125q-1.484375 -0.828125 -2.328125 -2.28125q-0.828125 -1.453125 -0.828125 -3.328125q0 -1.875 0.796875 -3.3125q0.8125 -1.4375 2.203125 -2.265625q1.40625 -0.828125 3.15625 -0.828125q1.78125 0 3.15625 0.8125q1.390625 0.796875 2.171875 2.25q0.796875 1.453125 0.796875 3.34375q0 0.125 -0.015625 0.265625q0 0.125 0 0.265625l-10.96875 0l0 -1.28125l10.046875 0l-0.671875 0.515625q0 -1.375 -0.59375 -2.4375q-0.578125 -1.078125 -1.59375 -1.671875q-1.0 -0.59375 -2.328125 -0.59375q-1.296875 0 -2.328125 0.59375q-1.03125 0.59375 -1.609375 1.6875q-0.5625 1.078125 -0.5625 2.46875l0 0.265625q0 1.4375 0.625 2.53125q0.640625 1.09375 1.78125 1.703125q1.140625 0.609375 2.609375 0.609375q1.140625 0 2.140625 -0.40625q1.0 -0.40625 1.71875 -1.25l0.953125 1.109375q-0.828125 1.0 -2.09375 1.53125q-1.265625 0.53125 -2.765625 0.53125zm9.136566 -0.125l0 -12.59375l1.640625 0l0 3.421875l-0.171875 -0.59375q0.53125 -1.4375 1.765625 -2.1875q1.25 -0.765625 3.109375 -0.765625l0 1.65625q-0.109375 0 -0.203125 -0.015625q-0.09375 -0.015625 -0.1875 -0.015625q-1.984375 0 -3.125 1.21875q-1.125 1.21875 -1.125 3.4375l0 6.4375l-1.703125 0z" fill-rule="nonzero"/><path fill="#eeeeee" d="m214.4252 147.02362l128.53543 0l0 48.472443l-128.53543 0z" fill-rule="evenodd"/><path stroke="#595959" stroke-width="1.0" stroke-linejoin="round" stroke-linecap="butt" d="m214.4252 147.02362l128.53543 0l0 48.472443l-128.53543 0z" fill-rule="evenodd"/><path fill="#000000" fill-opacity="0.0" d="m214.56955 147.83989l128.53543 0l0 48.472443l-128.53543 0z" fill-rule="evenodd"/><path fill="#595959" d="m226.30392 179.8799l0 -16.796875l6.296875 0q2.125 0 3.65625 0.6875q1.546875 0.671875 2.375 1.96875q0.828125 1.28125 0.828125 3.09375q0 1.78125 -0.828125 3.0625q-0.828125 1.28125 -2.375 1.984375q-1.53125 0.703125 -3.65625 0.703125l-5.3125 0l0.796875 -0.84375l0 6.140625l-1.78125 0zm1.78125 -6.0l-0.796875 -0.859375l5.25 0q2.53125 0 3.828125 -1.09375q1.3125 -1.09375 1.3125 -3.09375q0 -2.015625 -1.3125 -3.109375q-1.296875 -1.109375 -3.828125 -1.109375l-5.25 0l0.796875 -0.84375l0 10.109375zm22.621948 6.0l0 -2.78125l-0.0625 -0.453125l0 -4.65625q0 -1.609375 -0.90625 -2.46875q-0.890625 -0.875 -2.671875 -0.875q-1.21875 0 -2.328125 0.40625q-1.109375 0.40625 -1.875 1.078125l-0.765625 -1.265625q0.953125 -0.8125 2.296875 -1.25q1.34375 -0.453125 2.84375 -0.453125q2.4375 0 3.765625 1.21875q1.34375 1.203125 1.34375 3.671875l0 7.828125l-1.640625 0zm-4.34375 0.125q-1.40625 0 -2.453125 -0.46875q-1.046875 -0.46875 -1.609375 -1.296875q-0.546875 -0.828125 -0.546875 -1.90625q0 -0.984375 0.46875 -1.78125q0.46875 -0.8125 1.53125 -1.296875q1.078125 -0.5 2.875 -0.5l4.34375 0l0 1.265625l-4.296875 0q-1.8125 0 -2.53125 0.65625q-0.703125 0.640625 -0.703125 1.609375q0 1.078125 0.84375 1.734375q0.84375 0.640625 2.34375 0.640625q1.4375 0 2.484375 -0.65625q1.046875 -0.671875 1.53125 -1.921875l0.375 1.1875q-0.46875 1.234375 -1.65625 1.984375q-1.1875 0.75 -3.0 0.75zm10.613098 -0.125l0 -12.59375l1.640625 0l0 3.421875l-0.171875 -0.59375q0.53125 -1.4375 1.765625 -2.1875q1.25 -0.765625 3.109375 -0.765625l0 1.65625q-0.109375 0 -0.203125 -0.015625q-0.09375 -0.015625 -0.1875 -0.015625q-1.984375 0 -3.125 1.21875q-1.125 1.21875 -1.125 3.4375l0 6.4375l-1.703125 0zm12.966583 0.125q-1.5625 0 -2.953125 -0.4375q-1.390625 -0.453125 -2.1875 -1.125l0.765625 -1.34375q0.765625 0.578125 1.96875 1.0q1.203125 0.40625 2.515625 0.40625q1.8125 0 2.59375 -0.5625q0.796875 -0.5625 0.796875 -1.5q0 -0.6875 -0.453125 -1.078125q-0.4375 -0.40625 -1.15625 -0.609375q-0.71875 -0.203125 -1.609375 -0.34375q-0.890625 -0.140625 -1.765625 -0.328125q-0.875 -0.203125 -1.59375 -0.578125q-0.71875 -0.375 -1.171875 -1.015625q-0.4375 -0.65625 -0.4375 -1.734375q0 -1.03125 0.578125 -1.84375q0.578125 -0.8125 1.6875 -1.28125q1.125 -0.46875 2.734375 -0.46875q1.21875 0 2.4375 0.328125q1.234375 0.3125 2.015625 0.84375l-0.734375 1.375q-0.84375 -0.578125 -1.8125 -0.828125q-0.953125 -0.25 -1.90625 -0.25q-1.703125 0 -2.515625 0.59375q-0.796875 0.578125 -0.796875 1.484375q0 0.71875 0.4375 1.140625q0.4375 0.40625 1.171875 0.640625q0.734375 0.21875 1.609375 0.359375q0.875 0.140625 1.75 0.34375q0.875 0.203125 1.609375 0.5625q0.734375 0.34375 1.171875 0.984375q0.453125 0.625 0.453125 1.65625q0 1.109375 -0.609375 1.921875q-0.609375 0.796875 -1.78125 1.25q-1.15625 0.4375 -2.8125 0.4375zm13.680725 0q-1.96875 0 -3.46875 -0.828125q-1.484375 -0.828125 -2.328125 -2.28125q-0.828125 -1.453125 -0.828125 -3.328125q0 -1.875 0.796875 -3.3125q0.8125 -1.4375 2.203125 -2.265625q1.40625 -0.828125 3.15625 -0.828125q1.78125 0 3.15625 0.8125q1.390625 0.796875 2.171875 2.25q0.796875 1.453125 0.796875 3.34375q0 0.125 -0.015625 0.265625q0 0.125 0 0.265625l-10.96875 0l0 -1.28125l10.046875 0l-0.671875 0.515625q0 -1.375 -0.59375 -2.4375q-0.578125 -1.078125 -1.59375 -1.671875q-1.0 -0.59375 -2.328125 -0.59375q-1.296875 0 -2.328125 0.59375q-1.03125 0.59375 -1.609375 1.6875q-0.5625 1.078125 -0.5625 2.46875l0 0.265625q0 1.4375 0.625 2.53125q0.640625 1.09375 1.78125 1.703125q1.140625 0.609375 2.609375 0.609375q1.140625 0 2.140625 -0.40625q1.0 -0.40625 1.71875 -1.25l0.953125 1.109375q-0.828125 1.0 -2.09375 1.53125q-1.265625 0.53125 -2.765625 0.53125zm9.136566 -0.125l0 -12.59375l1.640625 0l0 3.421875l-0.171875 -0.59375q0.53125 -1.4375 1.765625 -2.1875q1.25 -0.765625 3.109375 -0.765625l0 1.65625q-0.109375 0 -0.203125 -0.015625q-0.09375 -0.015625 -0.1875 -0.015625q-1.984375 0 -3.125 1.21875q-1.125 1.21875 -1.125 3.4375l0 6.4375l-1.703125 0z" fill-rule="nonzero"/><path fill="#eeeeee" d="m390.4252 147.02362l128.53543 0l0 48.472443l-128.53543 0z" fill-rule="evenodd"/><path stroke="#595959" stroke-width="1.0" stroke-linejoin="round" stroke-linecap="butt" d="m390.4252 147.02362l128.53543 0l0 48.472443l-128.53543 0z" fill-rule="evenodd"/><path fill="#000000" fill-opacity="0.0" d="m390.56955 147.83989l128.53543 0l0 43.622055l-128.53543 0z" fill-rule="evenodd"/><path fill="#595959" d="m405.9133 176.13364q-1.5625 0 -2.796875 -0.6875q-1.234375 -0.6875 -1.9375 -1.890625q-0.6875 -1.21875 -0.6875 -2.78125q0 -1.578125 0.6875 -2.765625q0.703125 -1.203125 1.9375 -1.875q1.234375 -0.6875 2.796875 -0.6875q1.34375 0 2.421875 0.515625q1.078125 0.515625 1.6875 1.5625l-1.046875 0.71875q-0.546875 -0.796875 -1.34375 -1.171875q-0.796875 -0.390625 -1.75 -0.390625q-1.109375 0 -2.015625 0.515625q-0.890625 0.5 -1.421875 1.421875q-0.515625 0.921875 -0.515625 2.15625q0 1.25 0.515625 2.171875q0.53125 0.90625 1.421875 1.421875q0.90625 0.515625 2.015625 0.515625q0.953125 0 1.75 -0.375q0.796875 -0.390625 1.34375 -1.171875l1.046875 0.71875q-0.609375 1.03125 -1.6875 1.5625q-1.078125 0.515625 -2.421875 0.515625zm11.001892 0q-1.53125 0 -2.75 -0.6875q-1.203125 -0.6875 -1.90625 -1.890625q-0.6875 -1.21875 -0.6875 -2.78125q0 -1.578125 0.6875 -2.765625q0.703125 -1.203125 1.90625 -1.875q1.203125 -0.6875 2.75 -0.6875q1.546875 0 2.75 0.6875q1.21875 0.671875 1.90625 1.875q0.703125 1.1875 0.703125 2.765625q0 1.5625 -0.703125 2.78125q-0.6875 1.203125 -1.90625 1.890625q-1.21875 0.6875 -2.75 0.6875zm0 -1.25q1.140625 0 2.015625 -0.515625q0.875 -0.515625 1.390625 -1.4375q0.515625 -0.9375 0.515625 -2.15625q0 -1.234375 -0.515625 -2.15625q-0.515625 -0.921875 -1.390625 -1.421875q-0.875 -0.515625 -2.0 -0.515625q-1.125 0 -2.0 0.515625q-0.875 0.5 -1.40625 1.421875q-0.515625 0.921875 -0.515625 2.15625q0 1.21875 0.515625 2.15625q0.53125 0.921875 1.40625 1.4375q0.875 0.515625 1.984375 0.515625zm8.258728 1.15625l0 -10.5l1.359375 0l0 2.84375l-0.21875 -0.5q0.46875 -1.140625 1.53125 -1.78125q1.078125 -0.65625 2.546875 -0.65625q1.53125 0 2.609375 0.765625q1.09375 0.765625 1.40625 2.3125l-0.5625 -0.21875q0.46875 -1.28125 1.625 -2.0625q1.171875 -0.796875 2.8125 -0.796875q1.28125 0 2.234375 0.484375q0.953125 0.484375 1.484375 1.484375q0.53125 1.0 0.53125 2.53125l0 6.09375l-1.421875 0l0 -5.953125q0 -1.671875 -0.796875 -2.515625q-0.78125 -0.84375 -2.21875 -0.84375q-1.09375 0 -1.890625 0.453125q-0.78125 0.4375 -1.21875 1.296875q-0.421875 0.84375 -0.421875 2.046875l0 5.515625l-1.421875 0l0 -5.953125q0 -1.671875 -0.796875 -2.515625q-0.796875 -0.84375 -2.234375 -0.84375q-1.0625 0 -1.859375 0.453125q-0.796875 0.4375 -1.234375 1.296875q-0.421875 0.84375 -0.421875 2.046875l0 5.515625l-1.421875 0zm21.220001 0l0 -10.5l1.359375 0l0 2.84375l-0.21875 -0.5q0.46875 -1.140625 1.53125 -1.78125q1.078125 -0.65625 2.546875 -0.65625q1.53125 0 2.609375 0.765625q1.09375 0.765625 1.40625 2.3125l-0.5625 -0.21875q0.46875 -1.28125 1.625 -2.0625q1.171875 -0.796875 2.8125 -0.796875q1.28125 0 2.234375 0.484375q0.953125 0.484375 1.484375 1.484375q0.53125 1.0 0.53125 2.53125l0 6.09375l-1.421875 0l0 -5.953125q0 -1.671875 -0.796875 -2.515625q-0.78125 -0.84375 -2.21875 -0.84375q-1.09375 0 -1.890625 0.453125q-0.78125 0.4375 -1.21875 1.296875q-0.421875 0.84375 -0.421875 2.046875l0 5.515625l-1.421875 0l0 -5.953125q0 -1.671875 -0.796875 -2.515625q-0.796875 -0.84375 -2.234375 -0.84375q-1.0625 0 -1.859375 0.453125q-0.796875 0.4375 -1.234375 1.296875q-0.421875 0.84375 -0.421875 2.046875l0 5.515625l-1.421875 0zm19.235596 0.953125l0 -0.953125l10.0 0l0 0.953125l-10.0 0zm14.896881 -0.859375q-1.484375 0 -2.28125 -0.796875q-0.796875 -0.796875 -0.796875 -2.25l0 -9.859375l1.421875 0l0 9.765625q0 0.921875 0.46875 1.421875q0.46875 0.5 1.34375 0.5q0.953125 0 1.5625 -0.53125l0.5 1.015625q-0.421875 0.375 -1.015625 0.5625q-0.578125 0.171875 -1.203125 0.171875zm-4.953125 -9.40625l0 -1.1875l6.5 0l0 1.1875l-6.5 0zm15.938751 9.3125l0 -2.3125l-0.0625 -0.390625l0 -3.875q0 -1.34375 -0.75 -2.0625q-0.75 -0.71875 -2.234375 -0.71875q-1.015625 0 -1.9375 0.34375q-0.921875 0.328125 -1.5625 0.890625l-0.640625 -1.0625q0.8125 -0.671875 1.921875 -1.03125q1.125 -0.375 2.359375 -0.375q2.046875 0 3.15625 1.015625q1.109375 1.0 1.109375 3.0625l0 6.515625l-1.359375 0zm-3.625 0.09375q-1.171875 0 -2.046875 -0.390625q-0.875 -0.390625 -1.34375 -1.078125q-0.453125 -0.6875 -0.453125 -1.578125q0 -0.828125 0.390625 -1.5q0.390625 -0.671875 1.28125 -1.078125q0.890625 -0.40625 2.390625 -0.40625l3.625 0l0 1.0625l-3.578125 0q-1.515625 0 -2.109375 0.546875q-0.59375 0.53125 -0.59375 1.328125q0 0.90625 0.703125 1.453125q0.703125 0.53125 1.953125 0.53125q1.203125 0 2.0625 -0.546875q0.875 -0.5625 1.28125 -1.59375l0.3125 0.96875q-0.390625 1.046875 -1.390625 1.671875q-0.984375 0.609375 -2.484375 0.609375zm14.268738 0q-1.390625 0 -2.5 -0.625q-1.09375 -0.625 -1.734375 -1.828125q-0.625 -1.203125 -0.625 -2.90625q0 -1.71875 0.640625 -2.90625q0.65625 -1.1875 1.75 -1.796875q1.109375 -0.625 2.46875 -0.625q1.5 0 2.6875 0.671875q1.1875 0.65625 1.859375 1.859375q0.6875 1.203125 0.6875 2.796875q0 1.578125 -0.6875 2.796875q-0.671875 1.203125 -1.859375 1.890625q-1.1875 0.671875 -2.6875 0.671875zm-5.421875 -0.09375l0 -14.84375l1.421875 0l0 7.4375l-0.203125 2.125l0.140625 2.125l0 3.15625l-1.359375 0zm5.3125 -1.15625q1.125 0 2.0 -0.515625q0.890625 -0.515625 1.40625 -1.4375q0.515625 -0.9375 0.515625 -2.15625q0 -1.234375 -0.515625 -2.15625q-0.515625 -0.921875 -1.40625 -1.421875q-0.875 -0.515625 -2.0 -0.515625q-1.109375 0 -2.0 0.515625q-0.890625 0.5 -1.40625 1.421875q-0.515625 0.921875 -0.515625 2.15625q0 1.21875 0.515625 2.15625q0.515625 0.921875 1.40625 1.4375q0.890625 0.515625 2.0 0.515625z" fill-rule="nonzero"/><path fill="#eeeeee" d="m214.4252 211.02362l128.53543 0l0 48.472443l-128.53543 0z" fill-rule="evenodd"/><path stroke="#595959" stroke-width="1.0" stroke-linejoin="round" stroke-linecap="butt" d="m214.4252 211.02362l128.53543 0l0 48.472443l-128.53543 0z" fill-rule="evenodd"/><path fill="#000000" fill-opacity="0.0" d="m214.56955 211.83989l128.53543 0l0 48.472458l-128.53543 0z" fill-rule="evenodd"/><path fill="#595959" d="m226.30392 243.8799l0 -16.796875l11.515625 0l0 1.53125l-9.734375 0l0 13.734375l10.09375 0l0 1.53125l-11.875 0zm1.578125 -7.78125l0 -1.5l8.890625 0l0 1.5l-8.890625 0zm11.836578 7.78125l5.328125 -6.90625l-0.015625 0.828125l-5.0625 -6.515625l1.90625 0l4.15625 5.390625l-0.71875 -0.015625l4.15625 -5.375l1.875 0l-5.125 6.59375l0.03125 -0.90625l5.375 6.90625l-1.9375 0l-4.390625 -5.765625l0.671875 0.109375l-4.328125 5.65625l-1.921875 0zm19.689209 0.125q-1.96875 0 -3.46875 -0.828125q-1.484375 -0.828125 -2.328125 -2.28125q-0.828125 -1.453125 -0.828125 -3.328125q0 -1.875 0.796875 -3.3125q0.8125 -1.4375 2.203125 -2.265625q1.40625 -0.828125 3.15625 -0.828125q1.78125 0 3.15625 0.8125q1.390625 0.796875 2.171875 2.25q0.796875 1.453125 0.796875 3.34375q0 0.125 -0.015625 0.265625q0 0.125 0 0.265625l-10.96875 0l0 -1.28125l10.046875 0l-0.671875 0.515625q0 -1.375 -0.59375 -2.4375q-0.578125 -1.078125 -1.59375 -1.671875q-1.0 -0.59375 -2.328125 -0.59375q-1.296875 0 -2.328125 0.59375q-1.03125 0.59375 -1.609375 1.6875q-0.5625 1.078125 -0.5625 2.46875l0 0.265625q0 1.4375 0.625 2.53125q0.640625 1.09375 1.78125 1.703125q1.140625 0.609375 2.609375 0.609375q1.140625 0 2.140625 -0.40625q1.0 -0.40625 1.71875 -1.25l0.953125 1.109375q-0.828125 1.0 -2.09375 1.53125q-1.265625 0.53125 -2.765625 0.53125zm14.370972 0q-1.875 0 -3.359375 -0.828125q-1.46875 -0.828125 -2.3125 -2.28125q-0.828125 -1.453125 -0.828125 -3.328125q0 -1.890625 0.828125 -3.328125q0.84375 -1.453125 2.3125 -2.265625q1.484375 -0.8125 3.359375 -0.8125q1.609375 0 2.90625 0.625q1.296875 0.625 2.03125 1.875l-1.265625 0.859375q-0.65625 -0.953125 -1.609375 -1.40625q-0.953125 -0.46875 -2.09375 -0.46875q-1.34375 0 -2.421875 0.609375q-1.078125 0.609375 -1.703125 1.71875q-0.625 1.109375 -0.625 2.59375q0 1.484375 0.625 2.59375q0.625 1.109375 1.703125 1.71875q1.078125 0.609375 2.421875 0.609375q1.140625 0 2.09375 -0.453125q0.953125 -0.453125 1.609375 -1.390625l1.265625 0.859375q-0.734375 1.21875 -2.03125 1.859375q-1.296875 0.640625 -2.90625 0.640625zm11.668213 0q-1.5625 0 -2.953125 -0.4375q-1.390625 -0.453125 -2.1875 -1.125l0.765625 -1.34375q0.765625 0.578125 1.96875 1.0q1.203125 0.40625 2.515625 0.40625q1.8125 0 2.59375 -0.5625q0.796875 -0.5625 0.796875 -1.5q0 -0.6875 -0.453125 -1.078125q-0.4375 -0.40625 -1.15625 -0.609375q-0.71875 -0.203125 -1.609375 -0.34375q-0.890625 -0.140625 -1.765625 -0.328125q-0.875 -0.203125 -1.59375 -0.578125q-0.71875 -0.375 -1.171875 -1.015625q-0.4375 -0.65625 -0.4375 -1.734375q0 -1.03125 0.578125 -1.84375q0.578125 -0.8125 1.6875 -1.28125q1.125 -0.46875 2.734375 -0.46875q1.21875 0 2.4375 0.328125q1.234375 0.3125 2.015625 0.84375l-0.734375 1.375q-0.84375 -0.578125 -1.8125 -0.828125q-0.953125 -0.25 -1.90625 -0.25q-1.703125 0 -2.515625 0.59375q-0.796875 0.578125 -0.796875 1.484375q0 0.71875 0.4375 1.140625q0.4375 0.40625 1.171875 0.640625q0.734375 0.21875 1.609375 0.359375q0.875 0.140625 1.75 0.34375q0.875 0.203125 1.609375 0.5625q0.734375 0.34375 1.171875 0.984375q0.453125 0.625 0.453125 1.65625q0 1.109375 -0.609375 1.921875q-0.609375 0.796875 -1.78125 1.25q-1.15625 0.4375 -2.8125 0.4375z" fill-rule="nonzero"/><path fill="#eeeeee" d="m214.4252 275.02362l128.53543 0l0 48.472443l-128.53543 0z" fill-rule="evenodd"/><path stroke="#595959" stroke-width="1.0" stroke-linejoin="round" stroke-linecap="butt" d="m214.4252 275.02362l128.53543 0l0 48.472443l-128.53543 0z" fill-rule="evenodd"/><path fill="#000000" fill-opacity="0.0" d="m214.56955 275.8399l128.53543 0l0 48.472443l-128.53543 0z" fill-rule="evenodd"/><path fill="#595959" d="m226.30392 307.87988l0 -16.796875l7.25 0q2.8125 0 4.359375 1.125q1.546875 1.125 1.546875 3.1875q0 1.375 -0.640625 2.3125q-0.640625 0.9375 -1.734375 1.421875q-1.078125 0.46875 -2.375 0.46875l0.40625 -0.578125q1.609375 0 2.765625 0.5q1.171875 0.484375 1.8125 1.46875q0.65625 0.96875 0.65625 2.40625q0 2.125 -1.578125 3.3125q-1.578125 1.171875 -4.734375 1.171875l-7.734375 0zm1.78125 -1.46875l5.921875 0q2.203125 0 3.375 -0.75q1.1875 -0.75 1.1875 -2.40625q0 -1.640625 -1.1875 -2.390625q-1.171875 -0.765625 -3.375 -0.765625l-6.125 0l0 -1.453125l5.546875 0q2.015625 0 3.125 -0.765625q1.125 -0.78125 1.125 -2.28125q0 -1.546875 -1.125 -2.296875q-1.109375 -0.765625 -3.125 -0.765625l-5.34375 0l0 13.875zm21.158447 1.59375q-1.609375 0 -2.8125 -0.59375q-1.1875 -0.609375 -1.859375 -1.8125q-0.65625 -1.203125 -0.65625 -3.0l0 -7.3125l1.703125 0l0 7.125q0 2.015625 1.0 3.03125q1.0 1.015625 2.796875 1.015625q1.328125 0 2.296875 -0.53125q0.96875 -0.546875 1.484375 -1.578125q0.515625 -1.03125 0.515625 -2.46875l0 -6.59375l1.703125 0l0 12.59375l-1.625 0l0 -3.453125l0.265625 0.625q-0.609375 1.390625 -1.875 2.171875q-1.25 0.78125 -2.9375 0.78125zm10.924835 -0.125l0 -12.59375l1.703125 0l0 12.59375l-1.703125 0zm0.875 -15.390625q-0.53125 0 -0.890625 -0.359375q-0.359375 -0.359375 -0.359375 -0.859375q0 -0.5 0.359375 -0.84375q0.359375 -0.359375 0.890625 -0.359375q0.53125 0 0.890625 0.34375q0.359375 0.328125 0.359375 0.84375q0 0.515625 -0.359375 0.875q-0.34375 0.359375 -0.890625 0.359375zm5.5809937 15.390625l0 -17.8125l1.703125 0l0 17.8125l-1.703125 0zm10.224335 0.125q-1.78125 0 -2.75 -0.953125q-0.953125 -0.96875 -0.953125 -2.71875l0 -11.84375l1.71875 0l0 11.75q0 1.09375 0.5625 1.703125q0.5625 0.59375 1.609375 0.59375q1.140625 0 1.875 -0.640625l0.609375 1.21875q-0.515625 0.453125 -1.21875 0.671875q-0.703125 0.21875 -1.453125 0.21875zm-5.953125 -11.3125l0 -1.40625l7.796875 0l0 1.40625l-7.796875 0zm10.535217 5.421875l0 -1.484375l6.296875 0l0 1.484375l-6.296875 0zm10.105469 5.765625l0 -12.59375l1.703125 0l0 12.59375l-1.703125 0zm0.875 -15.390625q-0.53125 0 -0.890625 -0.359375q-0.359375 -0.359375 -0.359375 -0.859375q0 -0.5 0.359375 -0.84375q0.359375 -0.359375 0.890625 -0.359375q0.53125 0 0.890625 0.34375q0.359375 0.328125 0.359375 0.84375q0 0.515625 -0.359375 0.875q-0.34375 0.359375 -0.890625 0.359375zm5.5809937 15.390625l0 -12.59375l1.640625 0l0 3.453125l-0.265625 -0.65625q0.59375 -1.359375 1.90625 -2.140625q1.328125 -0.78125 3.15625 -0.78125q1.53125 0 2.6875 0.59375q1.171875 0.578125 1.828125 1.78125q0.65625 1.203125 0.65625 3.03125l0 7.3125l-1.703125 0l0 -7.15625q0 -1.984375 -1.0 -3.0q-0.984375 -1.03125 -2.78125 -1.03125q-1.34375 0 -2.34375 0.546875q-1.0 0.53125 -1.546875 1.5625q-0.53125 1.015625 -0.53125 2.453125l0 6.625l-1.703125 0zm19.614563 0.125q-1.5625 0 -2.953125 -0.4375q-1.390625 -0.453125 -2.1875 -1.125l0.765625 -1.34375q0.765625 0.578125 1.96875 1.0q1.203125 0.40625 2.515625 0.40625q1.8125 0 2.59375 -0.5625q0.796875 -0.5625 0.796875 -1.5q0 -0.6875 -0.453125 -1.078125q-0.4375 -0.40625 -1.15625 -0.609375q-0.71875 -0.203125 -1.609375 -0.34375q-0.890625 -0.140625 -1.765625 -0.328125q-0.875 -0.203125 -1.59375 -0.578125q-0.71875 -0.375 -1.171875 -1.015625q-0.4375 -0.65625 -0.4375 -1.734375q0 -1.03125 0.578125 -1.84375q0.578125 -0.8125 1.6875 -1.28125q1.125 -0.46875 2.734375 -0.46875q1.21875 0 2.4375 0.328125q1.234375 0.3125 2.015625 0.84375l-0.734375 1.375q-0.84375 -0.578125 -1.8125 -0.828125q-0.953125 -0.25 -1.90625 -0.25q-1.703125 0 -2.515625 0.59375q-0.796875 0.578125 -0.796875 1.484375q0 0.71875 0.4375 1.140625q0.4375 0.40625 1.171875 0.640625q0.734375 0.21875 1.609375 0.359375q0.875 0.140625 1.75 0.34375q0.875 0.203125 1.609375 0.5625q0.734375 0.34375 1.171875 0.984375q0.453125 0.625 0.453125 1.65625q0 1.109375 -0.609375 1.921875q-0.609375 0.796875 -1.78125 1.25q-1.15625 0.4375 -2.8125 0.4375z" fill-rule="nonzero"/><path fill="#000000" fill-opacity="0.0" d="m151.10498 44.076115l31.732285 0l0 0.062992096l31.732285 0" fill-rule="evenodd"/><path stroke="#595959" stroke-width="1.0" stroke-linejoin="round" stroke-linecap="butt" d="m151.10498 44.076115l31.732285 0l0 0.062992096l31.732285 0" fill-rule="evenodd"/><path fill="#000000" fill-opacity="0.0" d="m151.10498 44.076115l31.732285 0l0 64.0l31.732285 0" fill-rule="evenodd"/><path stroke="#595959" stroke-width="1.0" stroke-linejoin="round" stroke-linecap="butt" d="m151.10498 44.076115l31.732285 0l0 64.0l31.732285 0" fill-rule="evenodd"/><path fill="#000000" fill-opacity="0.0" d="m151.10498 44.076115l31.732285 0l0 128.0l31.732285 0" fill-rule="evenodd"/><path stroke="#595959" stroke-width="1.0" stroke-linejoin="round" stroke-linecap="butt" d="m151.10498 44.076115l31.732285 0l0 128.0l31.732285 0" fill-rule="evenodd"/><path fill="#000000" fill-opacity="0.0" d="m151.10498 44.076115l31.732285 0l0 192.0l31.732285 0" fill-rule="evenodd"/><path stroke="#595959" stroke-width="1.0" stroke-linejoin="round" stroke-linecap="butt" d="m151.10498 44.076115l31.732285 0l0 192.0l31.732285 0" fill-rule="evenodd"/><path fill="#000000" fill-opacity="0.0" d="m151.10498 44.076115l31.732285 0l0 256.0l31.732285 0" fill-rule="evenodd"/><path stroke="#595959" stroke-width="1.0" stroke-linejoin="round" stroke-linecap="butt" d="m151.10498 44.076115l31.732285 0l0 256.0l31.732285 0" fill-rule="evenodd"/><path fill="#000000" fill-opacity="0.0" d="m748.6273 19.745407l189.19684 0l0 48.472443l-189.19684 0z" fill-rule="evenodd"/><path fill="#595959" d="m760.3617 51.785408l0 -16.796875l1.46875 0l7.671875 13.09375l-0.765625 0l7.609375 -13.09375l1.46875 0l0 16.796875l-1.703125 0l0 -14.140625l0.40625 0l-7.015625 12.0l-0.828125 0l-7.0625 -12.0l0.453125 0l0 14.140625l-1.703125 0zm27.701172 0.125q-1.828125 0 -3.28125 -0.828125q-1.453125 -0.828125 -2.296875 -2.28125q-0.828125 -1.453125 -0.828125 -3.328125q0 -1.890625 0.828125 -3.328125q0.84375 -1.453125 2.28125 -2.265625q1.4375 -0.8125 3.296875 -0.8125q1.875 0 3.3125 0.8125q1.453125 0.8125 2.28125 2.265625q0.828125 1.4375 0.828125 3.328125q0 1.875 -0.828125 3.328125q-0.828125 1.453125 -2.296875 2.28125q-1.453125 0.828125 -3.296875 0.828125zm0 -1.515625q1.359375 0 2.40625 -0.609375q1.0625 -0.609375 1.671875 -1.71875q0.625 -1.125 0.625 -2.59375q0 -1.484375 -0.625 -2.59375q-0.609375 -1.109375 -1.671875 -1.71875q-1.046875 -0.609375 -2.390625 -0.609375q-1.34375 0 -2.40625 0.609375q-1.046875 0.609375 -1.671875 1.71875q-0.625 1.109375 -0.625 2.59375q0 1.46875 0.625 2.59375q0.625 1.109375 1.671875 1.71875q1.0625 0.609375 2.390625 0.609375zm14.922974 1.515625q-1.796875 0 -3.234375 -0.8125q-1.421875 -0.828125 -2.234375 -2.28125q-0.8125 -1.453125 -0.8125 -3.34375q0 -1.921875 0.8125 -3.359375q0.8125 -1.4375 2.234375 -2.234375q1.4375 -0.8125 3.234375 -0.8125q1.65625 0 2.953125 0.75q1.3125 0.734375 2.09375 2.171875q0.78125 1.421875 0.78125 3.484375q0 2.046875 -0.765625 3.484375q-0.765625 1.4375 -2.078125 2.203125q-1.296875 0.75 -2.984375 0.75zm0.125 -1.515625q1.34375 0 2.40625 -0.609375q1.0625 -0.609375 1.671875 -1.71875q0.625 -1.125 0.625 -2.59375q0 -1.484375 -0.625 -2.59375q-0.609375 -1.109375 -1.671875 -1.71875q-1.0625 -0.609375 -2.40625 -0.609375q-1.328125 0 -2.390625 0.609375q-1.046875 0.609375 -1.671875 1.71875q-0.625 1.109375 -0.625 2.59375q0 1.46875 0.625 2.59375q0.625 1.109375 1.671875 1.71875q1.0625 0.609375 2.390625 0.609375zm4.75 1.390625l0 -3.796875l0.171875 -2.546875l-0.25 -2.53125l0 -8.9375l1.703125 0l0 17.8125l-1.625 0zm11.584412 0.125q-1.609375 0 -2.8125 -0.59375q-1.1875 -0.609375 -1.859375 -1.8125q-0.65625 -1.203125 -0.65625 -3.0l0 -7.3125l1.703125 0l0 7.125q0 2.015625 1.0 3.03125q1.0 1.015625 2.796875 1.015625q1.328125 0 2.296875 -0.53125q0.96875 -0.546875 1.484375 -1.578125q0.515625 -1.03125 0.515625 -2.46875l0 -6.59375l1.703125 0l0 12.59375l-1.625 0l0 -3.453125l0.265625 0.625q-0.609375 1.390625 -1.875 2.171875q-1.25 0.78125 -2.9375 0.78125zm10.924866 -0.125l0 -17.8125l1.703125 0l0 17.8125l-1.703125 0zm11.815369 0.125q-1.96875 0 -3.46875 -0.828125q-1.484375 -0.828125 -2.328125 -2.28125q-0.828125 -1.453125 -0.828125 -3.328125q0 -1.875 0.796875 -3.3125q0.8125 -1.4375 2.203125 -2.265625q1.40625 -0.828125 3.15625 -0.828125q1.78125 0 3.15625 0.8125q1.390625 0.796875 2.171875 2.25q0.796875 1.453125 0.796875 3.34375q0 0.125 -0.015625 0.265625q0 0.125 0 0.265625l-10.96875 0l0 -1.28125l10.046875 0l-0.671875 0.515625q0 -1.375 -0.59375 -2.4375q-0.578125 -1.078125 -1.59375 -1.671875q-1.0 -0.59375 -2.328125 -0.59375q-1.296875 0 -2.328125 0.59375q-1.03125 0.59375 -1.609375 1.6875q-0.5625 1.078125 -0.5625 2.46875l0 0.265625q0 1.4375 0.625 2.53125q0.640625 1.09375 1.78125 1.703125q1.140625 0.609375 2.609375 0.609375q1.140625 0 2.140625 -0.40625q1.0 -0.40625 1.71875 -1.25l0.953125 1.109375q-0.828125 1.0 -2.09375 1.53125q-1.265625 0.53125 -2.765625 0.53125zm12.527161 0q-1.5625 0 -2.953125 -0.4375q-1.390625 -0.453125 -2.1875 -1.125l0.765625 -1.34375q0.765625 0.578125 1.96875 1.0q1.203125 0.40625 2.515625 0.40625q1.8125 0 2.59375 -0.5625q0.796875 -0.5625 0.796875 -1.5q0 -0.6875 -0.453125 -1.078125q-0.4375 -0.40625 -1.15625 -0.609375q-0.71875 -0.203125 -1.609375 -0.34375q-0.890625 -0.140625 -1.765625 -0.328125q-0.875 -0.203125 -1.59375 -0.578125q-0.71875 -0.375 -1.171875 -1.015625q-0.4375 -0.65625 -0.4375 -1.734375q0 -1.03125 0.578125 -1.84375q0.578125 -0.8125 1.6875 -1.28125q1.125 -0.46875 2.734375 -0.46875q1.21875 0 2.4375 0.328125q1.234375 0.3125 2.015625 0.84375l-0.734375 1.375q-0.84375 -0.578125 -1.8125 -0.828125q-0.953125 -0.25 -1.90625 -0.25q-1.703125 0 -2.515625 0.59375q-0.796875 0.578125 -0.796875 1.484375q0 0.71875 0.4375 1.140625q0.4375 0.40625 1.171875 0.640625q0.734375 0.21875 1.609375 0.359375q0.875 0.140625 1.75 0.34375q0.875 0.203125 1.609375 0.5625q0.734375 0.34375 1.171875 0.984375q0.453125 0.625 0.453125 1.65625q0 1.109375 -0.609375 1.921875q-0.609375 0.796875 -1.78125 1.25q-1.15625 0.4375 -2.8125 0.4375z" fill-rule="nonzero"/><path fill="#eeeeee" d="m214.4252 339.02362l159.27557 0l0 48.472443l-159.27557 0z" fill-rule="evenodd"/><path stroke="#595959" stroke-width="1.0" stroke-linejoin="round" stroke-linecap="butt" d="m214.4252 339.02362l159.27557 0l0 48.472443l-159.27557 0z" fill-rule="evenodd"/><path fill="#000000" fill-opacity="0.0" d="m214.56955 339.8399l159.2756 0l0 48.472443l-159.2756 0z" fill-rule="evenodd"/><path fill="#595959" d="m226.30392 371.87988l0 -16.796875l11.515625 0l0 1.53125l-9.734375 0l0 13.734375l10.09375 0l0 1.53125l-11.875 0zm1.578125 -7.78125l0 -1.5l8.890625 0l0 1.5l-8.890625 0zm11.836578 7.78125l5.328125 -6.90625l-0.015625 0.828125l-5.0625 -6.515625l1.90625 0l4.15625 5.390625l-0.71875 -0.015625l4.15625 -5.375l1.875 0l-5.125 6.59375l0.03125 -0.90625l5.375 6.90625l-1.9375 0l-4.390625 -5.765625l0.671875 0.109375l-4.328125 5.65625l-1.921875 0zm21.237854 0.125q-1.625 0 -2.953125 -0.75q-1.3125 -0.765625 -2.0937653 -2.1875q-0.78125 -1.4375 -0.78125 -3.5q0 -2.0625 0.765625 -3.484375q0.76564026 -1.4375 2.0781403 -2.171875q1.328125 -0.75 2.984375 -0.75q1.8125 0 3.234375 0.8125q1.421875 0.796875 2.234375 2.25q0.828125 1.453125 0.828125 3.34375q0 1.921875 -0.828125 3.359375q-0.8125 1.4375 -2.234375 2.265625q-1.421875 0.8125 -3.234375 0.8125zm-6.5000153 4.53125l0 -17.25l1.6406403 0l0 3.78125l-0.17189026 2.53125l0.23439026 2.53125l0 8.40625l-1.7031403 0zm6.3906403 -6.046875q1.34375 0 2.390625 -0.609375q1.0625 -0.609375 1.6875 -1.71875q0.625 -1.125 0.625 -2.59375q0 -1.46875 -0.625 -2.5625q-0.625 -1.109375 -1.6875 -1.734375q-1.046875 -0.625 -2.390625 -0.625q-1.34375 0 -2.421875 0.625q-1.0625 0.625 -1.671875 1.734375q-0.609375 1.09375 -0.609375 2.5625q0 1.46875 0.609375 2.59375q0.609375 1.109375 1.671875 1.71875q1.078125 0.609375 2.421875 0.609375zm17.699951 1.390625l0 -2.78125l-0.0625 -0.453125l0 -4.65625q0 -1.609375 -0.90625 -2.46875q-0.890625 -0.875 -2.671875 -0.875q-1.21875 0 -2.328125 0.40625q-1.109375 0.40625 -1.875 1.078125l-0.765625 -1.265625q0.953125 -0.8125 2.296875 -1.25q1.34375 -0.453125 2.84375 -0.453125q2.4375 0 3.765625 1.21875q1.34375 1.203125 1.34375 3.671875l0 7.828125l-1.640625 0zm-4.34375 0.125q-1.40625 0 -2.453125 -0.46875q-1.046875 -0.46875 -1.609375 -1.296875q-0.546875 -0.828125 -0.546875 -1.90625q0 -0.984375 0.46875 -1.78125q0.46875 -0.8125 1.53125 -1.296875q1.078125 -0.5 2.875 -0.5l4.34375 0l0 1.265625l-4.296875 0q-1.8125 0 -2.53125 0.65625q-0.703125 0.640625 -0.703125 1.609375q0 1.078125 0.84375 1.734375q0.84375 0.640625 2.34375 0.640625q1.4375 0 2.484375 -0.65625q1.046875 -0.671875 1.53125 -1.921875l0.375 1.1875q-0.46875 1.234375 -1.65625 1.984375q-1.1875 0.75 -3.0 0.75zm10.613068 -0.125l0 -12.59375l1.640625 0l0 3.453125l-0.265625 -0.65625q0.59375 -1.359375 1.90625 -2.140625q1.328125 -0.78125 3.15625 -0.78125q1.53125 0 2.6875 0.59375q1.171875 0.578125 1.828125 1.78125q0.65625 1.203125 0.65625 3.03125l0 7.3125l-1.703125 0l0 -7.15625q0 -1.984375 -1.0 -3.0q-0.984375 -1.03125 -2.78125 -1.03125q-1.34375 0 -2.34375 0.546875q-1.0 0.53125 -1.546875 1.5625q-0.53125 1.015625 -0.53125 2.453125l0 6.625l-1.703125 0zm19.614594 0.125q-1.5625 0 -2.953125 -0.4375q-1.390625 -0.453125 -2.1875 -1.125l0.765625 -1.34375q0.765625 0.578125 1.96875 1.0q1.203125 0.40625 2.515625 0.40625q1.8125 0 2.59375 -0.5625q0.796875 -0.5625 0.796875 -1.5q0 -0.6875 -0.453125 -1.078125q-0.4375 -0.40625 -1.15625 -0.609375q-0.71875 -0.203125 -1.609375 -0.34375q-0.890625 -0.140625 -1.765625 -0.328125q-0.875 -0.203125 -1.59375 -0.578125q-0.71875 -0.375 -1.171875 -1.015625q-0.4375 -0.65625 -0.4375 -1.734375q0 -1.03125 0.578125 -1.84375q0.578125 -0.8125 1.6875 -1.28125q1.125 -0.46875 2.734375 -0.46875q1.21875 0 2.4375 0.328125q1.234375 0.3125 2.015625 0.84375l-0.734375 1.375q-0.84375 -0.578125 -1.8125 -0.828125q-0.953125 -0.25 -1.90625 -0.25q-1.703125 0 -2.515625 0.59375q-0.796875 0.578125 -0.796875 1.484375q0 0.71875 0.4375 1.140625q0.4375 0.40625 1.171875 0.640625q0.734375 0.21875 1.609375 0.359375q0.875 0.140625 1.75 0.34375q0.875 0.203125 1.609375 0.5625q0.734375 0.34375 1.171875 0.984375q0.453125 0.625 0.453125 1.65625q0 1.109375 -0.609375 1.921875q-0.609375 0.796875 -1.78125 1.25q-1.15625 0.4375 -2.8125 0.4375zm8.32132 -0.125l0 -12.59375l1.703125 0l0 12.59375l-1.703125 0zm0.875 -15.390625q-0.53125 0 -0.890625 -0.359375q-0.359375 -0.359375 -0.359375 -0.859375q0 -0.5 0.359375 -0.84375q0.359375 -0.359375 0.890625 -0.359375q0.53125 0 0.890625 0.34375q0.359375 0.328125 0.359375 0.84375q0 0.515625 -0.359375 0.875q-0.34375 0.359375 -0.890625 0.359375zm10.721619 15.515625q-1.828125 0 -3.28125 -0.828125q-1.453125 -0.828125 -2.296875 -2.28125q-0.828125 -1.453125 -0.828125 -3.328125q0 -1.890625 0.828125 -3.328125q0.84375 -1.453125 2.28125 -2.265625q1.4375 -0.8125 3.296875 -0.8125q1.875 0 3.3125 0.8125q1.453125 0.8125 2.28125 2.265625q0.828125 1.4375 0.828125 3.328125q0 1.875 -0.828125 3.328125q-0.828125 1.453125 -2.296875 2.28125q-1.453125 0.828125 -3.296875 0.828125zm0 -1.515625q1.359375 0 2.40625 -0.609375q1.0625 -0.609375 1.671875 -1.71875q0.625 -1.125 0.625 -2.59375q0 -1.484375 -0.625 -2.59375q-0.609375 -1.109375 -1.671875 -1.71875q-1.046875 -0.609375 -2.390625 -0.609375q-1.34375 0 -2.40625 0.609375q-1.046875 0.609375 -1.671875 1.71875q-0.625 1.109375 -0.625 2.59375q0 1.46875 0.625 2.59375q0.625 1.109375 1.671875 1.71875q1.0625 0.609375 2.390625 0.609375zm9.907318 1.390625l0 -12.59375l1.640625 0l0 3.453125l-0.265625 -0.65625q0.59375 -1.359375 1.90625 -2.140625q1.328125 -0.78125 3.15625 -0.78125q1.53125 0 2.6875 0.59375q1.171875 0.578125 1.828125 1.78125q0.65625 1.203125 0.65625 3.03125l0 7.3125l-1.703125 0l0 -7.15625q0 -1.984375 -1.0 -3.0q-0.984375 -1.03125 -2.78125 -1.03125q-1.34375 0 -2.34375 0.546875q-1.0 0.53125 -1.546875 1.5625q-0.53125 1.015625 -0.53125 2.453125l0 6.625l-1.703125 0zm19.614594 0.125q-1.5625 0 -2.953125 -0.4375q-1.390625 -0.453125 -2.1875 -1.125l0.765625 -1.34375q0.765625 0.578125 1.96875 1.0q1.203125 0.40625 2.515625 0.40625q1.8125 0 2.59375 -0.5625q0.796875 -0.5625 0.796875 -1.5q0 -0.6875 -0.453125 -1.078125q-0.4375 -0.40625 -1.15625 -0.609375q-0.71875 -0.203125 -1.609375 -0.34375q-0.890625 -0.140625 -1.765625 -0.328125q-0.875 -0.203125 -1.59375 -0.578125q-0.71875 -0.375 -1.171875 -1.015625q-0.4375 -0.65625 -0.4375 -1.734375q0 -1.03125 0.578125 -1.84375q0.578125 -0.8125 1.6875 -1.28125q1.125 -0.46875 2.734375 -0.46875q1.21875 0 2.4375 0.328125q1.234375 0.3125 2.015625 0.84375l-0.734375 1.375q-0.84375 -0.578125 -1.8125 -0.828125q-0.953125 -0.25 -1.90625 -0.25q-1.703125 0 -2.515625 0.59375q-0.796875 0.578125 -0.796875 1.484375q0 0.71875 0.4375 1.140625q0.4375 0.40625 1.171875 0.640625q0.734375 0.21875 1.609375 0.359375q0.875 0.140625 1.75 0.34375q0.875 0.203125 1.609375 0.5625q0.734375 0.34375 1.171875 0.984375q0.453125 0.625 0.453125 1.65625q0 1.109375 -0.609375 1.921875q-0.609375 0.796875 -1.78125 1.25q-1.15625 0.4375 -2.8125 0.4375z" fill-rule="nonzero"/><path fill="#000000" fill-opacity="0.0" d="m151.10498 44.076115l31.732285 0l0 320.0l31.732285 0" fill-rule="evenodd"/><path stroke="#595959" stroke-width="1.0" stroke-linejoin="round" stroke-linecap="butt" d="m151.10498 44.076115l31.732285 0l0 320.0l31.732285 0" fill-rule="evenodd"/><path fill="#eeeeee" d="m390.4252 275.02362l76.28345 0l0 48.472443l-76.28345 0z" fill-rule="evenodd"/><path stroke="#595959" stroke-width="1.0" stroke-linejoin="round" stroke-linecap="butt" d="m390.4252 275.02362l76.28345 0l0 48.472443l-76.28345 0z" fill-rule="evenodd"/><path fill="#000000" fill-opacity="0.0" d="m390.56955 275.8399l72.69293 0l0 43.62204l-72.69293 0z" fill-rule="evenodd"/><path fill="#595959" d="m406.00705 304.13364q-1.640625 0 -2.890625 -0.6875q-1.234375 -0.6875 -1.9375 -1.890625q-0.6875 -1.21875 -0.6875 -2.78125q0 -1.546875 0.671875 -2.75q0.671875 -1.203125 1.828125 -1.890625q1.171875 -0.6875 2.640625 -0.6875q1.484375 0 2.625 0.671875q1.15625 0.65625 1.8125 1.875q0.65625 1.203125 0.65625 2.78125q0 0.109375 -0.015625 0.21875q0 0.109375 0 0.234375l-9.140625 0l0 -1.0625l8.375 0l-0.5625 0.421875q0 -1.140625 -0.484375 -2.03125q-0.484375 -0.890625 -1.328125 -1.390625q-0.84375 -0.5 -1.9375 -0.5q-1.078125 0 -1.9375 0.5q-0.859375 0.5 -1.34375 1.40625q-0.484375 0.890625 -0.484375 2.046875l0 0.21875q0 1.203125 0.53125 2.109375q0.53125 0.90625 1.484375 1.421875q0.953125 0.515625 2.171875 0.515625q0.953125 0 1.78125 -0.34375q0.828125 -0.34375 1.4375 -1.046875l0.796875 0.921875q-0.703125 0.84375 -1.75 1.28125q-1.046875 0.4375 -2.3125 0.4375zm11.986237 0q-1.5625 0 -2.796875 -0.6875q-1.234375 -0.6875 -1.9375 -1.890625q-0.6875 -1.21875 -0.6875 -2.78125q0 -1.578125 0.6875 -2.765625q0.703125 -1.203125 1.9375 -1.875q1.234375 -0.6875 2.796875 -0.6875q1.34375 0 2.421875 0.515625q1.078125 0.515625 1.6875 1.5625l-1.046875 0.71875q-0.546875 -0.796875 -1.34375 -1.171875q-0.796875 -0.390625 -1.75 -0.390625q-1.109375 0 -2.015625 0.515625q-0.890625 0.5 -1.421875 1.421875q-0.515625 0.921875 -0.515625 2.15625q0 1.25 0.515625 2.171875q0.53125 0.90625 1.421875 1.421875q0.90625 0.515625 2.015625 0.515625q0.953125 0 1.75 -0.375q0.796875 -0.390625 1.34375 -1.171875l1.046875 0.71875q-0.609375 1.03125 -1.6875 1.5625q-1.078125 0.515625 -2.421875 0.515625zm6.740631 -0.09375l0 -14.84375l1.421875 0l0 7.21875l-0.28125 -0.53125q0.5 -1.140625 1.59375 -1.78125q1.09375 -0.65625 2.625 -0.65625q1.28125 0 2.25 0.484375q0.96875 0.484375 1.515625 1.484375q0.546875 1.0 0.546875 2.53125l0 6.09375l-1.421875 0l0 -5.953125q0 -1.671875 -0.828125 -2.515625q-0.828125 -0.84375 -2.328125 -0.84375q-1.125 0 -1.953125 0.453125q-0.828125 0.4375 -1.28125 1.296875q-0.4375 0.84375 -0.4375 2.046875l0 5.515625l-1.421875 0zm17.801239 0.09375q-1.53125 0 -2.75 -0.6875q-1.203125 -0.6875 -1.90625 -1.890625q-0.6875 -1.21875 -0.6875 -2.78125q0 -1.578125 0.6875 -2.765625q0.703125 -1.203125 1.90625 -1.875q1.203125 -0.6875 2.75 -0.6875q1.546875 0 2.75 0.6875q1.21875 0.671875 1.90625 1.875q0.703125 1.1875 0.703125 2.765625q0 1.5625 -0.703125 2.78125q-0.6875 1.203125 -1.90625 1.890625q-1.21875 0.6875 -2.75 0.6875zm0 -1.25q1.140625 0 2.015625 -0.515625q0.875 -0.515625 1.390625 -1.4375q0.515625 -0.9375 0.515625 -2.15625q0 -1.234375 -0.515625 -2.15625q-0.515625 -0.921875 -1.390625 -1.421875q-0.875 -0.515625 -2.0 -0.515625q-1.125 0 -2.0 0.515625q-0.875 0.5 -1.40625 1.421875q-0.515625 0.921875 -0.515625 2.15625q0 1.21875 0.515625 2.15625q0.53125 0.921875 1.40625 1.4375q0.875 0.515625 1.984375 0.515625z" fill-rule="nonzero"/><path fill="#eeeeee" d="m470.4252 275.02362l55.590546 0l0 48.472443l-55.590546 0z" fill-rule="evenodd"/><path stroke="#595959" stroke-width="1.0" stroke-linejoin="round" stroke-linecap="butt" d="m470.4252 275.02362l55.590546 0l0 48.472443l-55.590546 0z" fill-rule="evenodd"/><path fill="#000000" fill-opacity="0.0" d="m470.56955 275.8399l55.590546 0l0 43.62204l-55.590546 0z" fill-rule="evenodd"/><path fill="#595959" d="m486.00705 304.13364q-1.640625 0 -2.890625 -0.6875q-1.234375 -0.6875 -1.9375 -1.890625q-0.6875 -1.21875 -0.6875 -2.78125q0 -1.546875 0.671875 -2.75q0.671875 -1.203125 1.828125 -1.890625q1.171875 -0.6875 2.640625 -0.6875q1.484375 0 2.625 0.671875q1.15625 0.65625 1.8125 1.875q0.65625 1.203125 0.65625 2.78125q0 0.109375 -0.015625 0.21875q0 0.109375 0 0.234375l-9.140625 0l0 -1.0625l8.375 0l-0.5625 0.421875q0 -1.140625 -0.484375 -2.03125q-0.484375 -0.890625 -1.328125 -1.390625q-0.84375 -0.5 -1.9375 -0.5q-1.078125 0 -1.9375 0.5q-0.859375 0.5 -1.34375 1.40625q-0.484375 0.890625 -0.484375 2.046875l0 0.21875q0 1.203125 0.53125 2.109375q0.53125 0.90625 1.484375 1.421875q0.953125 0.515625 2.171875 0.515625q0.953125 0 1.78125 -0.34375q0.828125 -0.34375 1.4375 -1.046875l0.796875 0.921875q-0.703125 0.84375 -1.75 1.28125q-1.046875 0.4375 -2.3125 0.4375zm5.717499 -0.09375l4.4375 -5.765625l-0.015625 0.703125l-4.21875 -5.4375l1.609375 0l3.453125 4.5l-0.59375 -0.015625l3.453125 -4.484375l1.5625 0l-4.265625 5.5l0.015625 -0.765625l4.484375 5.765625l-1.609375 0l-3.671875 -4.796875l0.5625 0.078125l-3.59375 4.71875l-1.609375 0zm12.289368 0l0 -10.5l1.421875 0l0 10.5l-1.421875 0zm0.71875 -12.8125q-0.4375 0 -0.75 -0.296875q-0.296875 -0.3125 -0.296875 -0.734375q0 -0.421875 0.296875 -0.703125q0.3125 -0.296875 0.75 -0.296875q0.4375 0 0.734375 0.28125q0.3125 0.28125 0.3125 0.703125q0 0.4375 -0.296875 0.75q-0.296875 0.296875 -0.75 0.296875zm7.793762 12.90625q-1.4844055 0 -2.2812805 -0.796875q-0.796875 -0.796875 -0.796875 -2.25l0 -9.859375l1.421875 0l0 9.765625q0 0.921875 0.46875 1.421875q0.46875 0.5 1.3437805 0.5q0.953125 0 1.5625 -0.53125l0.5 1.015625q-0.421875 0.375 -1.015625 0.5625q-0.578125 0.171875 -1.203125 0.171875zm-4.9531555 -9.40625l0 -1.1875l6.5000305 0l0 1.1875l-6.5000305 0z" fill-rule="nonzero"/><path fill="#eeeeee" d="m530.021 275.02362l52.031494 0l0 48.472443l-52.031494 0z" fill-rule="evenodd"/><path stroke="#595959" stroke-width="1.0" stroke-linejoin="round" stroke-linecap="butt" d="m530.021 275.02362l52.031494 0l0 48.472443l-52.031494 0z" fill-rule="evenodd"/><path fill="#000000" fill-opacity="0.0" d="m530.16534 275.8399l52.031494 0l0 43.62204l-52.031494 0z" fill-rule="evenodd"/><path fill="#595959" d="m545.5091 304.13364q-1.5625 0 -2.796875 -0.6875q-1.234375 -0.6875 -1.9375 -1.890625q-0.6875 -1.21875 -0.6875 -2.78125q0 -1.578125 0.6875 -2.765625q0.703125 -1.203125 1.9375 -1.875q1.234375 -0.6875 2.796875 -0.6875q1.34375 0 2.421875 0.515625q1.078125 0.515625 1.6875 1.5625l-1.046875 0.71875q-0.546875 -0.796875 -1.34375 -1.171875q-0.796875 -0.390625 -1.75 -0.390625q-1.109375 0 -2.015625 0.515625q-0.890625 0.5 -1.421875 1.421875q-0.515625 0.921875 -0.515625 2.15625q0 1.25 0.515625 2.171875q0.53125 0.90625 1.421875 1.421875q0.90625 0.515625 2.015625 0.515625q0.953125 0 1.75 -0.375q0.796875 -0.390625 1.34375 -1.171875l1.046875 0.71875q-0.609375 1.03125 -1.6875 1.5625q-1.078125 0.515625 -2.421875 0.515625zm10.892517 0q-1.5 0 -2.6875 -0.671875q-1.1875 -0.6875 -1.875 -1.890625q-0.671875 -1.21875 -0.671875 -2.796875q0 -1.59375 0.671875 -2.796875q0.6875 -1.203125 1.875 -1.859375q1.1875 -0.671875 2.6875 -0.671875q1.390625 0 2.46875 0.625q1.09375 0.609375 1.734375 1.796875q0.65625 1.1875 0.65625 2.90625q0 1.703125 -0.640625 2.90625q-0.640625 1.203125 -1.734375 1.828125q-1.078125 0.625 -2.484375 0.625zm0.109375 -1.25q1.109375 0 2.0 -0.515625q0.890625 -0.515625 1.40625 -1.4375q0.515625 -0.9375 0.515625 -2.15625q0 -1.234375 -0.515625 -2.15625q-0.515625 -0.921875 -1.40625 -1.421875q-0.890625 -0.515625 -2.0 -0.515625q-1.109375 0 -1.984375 0.515625q-0.875 0.5 -1.40625 1.421875q-0.515625 0.921875 -0.515625 2.15625q0 1.21875 0.515625 2.15625q0.53125 0.921875 1.40625 1.4375q0.875 0.515625 1.984375 0.515625zm3.953125 1.15625l0 -3.15625l0.140625 -2.125l-0.203125 -2.125l0 -7.4375l1.421875 0l0 14.84375l-1.359375 0z" fill-rule="nonzero"/><path fill="#eeeeee" d="m586.2021 275.02362l63.4646 0l0 48.472443l-63.4646 0z" fill-rule="evenodd"/><path stroke="#595959" stroke-width="1.0" stroke-linejoin="round" stroke-linecap="butt" d="m586.2021 275.02362l63.4646 0l0 48.472443l-63.4646 0z" fill-rule="evenodd"/><path fill="#000000" fill-opacity="0.0" d="m586.34644 275.8399l63.4646 0l0 43.62204l-63.4646 0z" fill-rule="evenodd"/><path fill="#595959" d="m602.7527 304.13364q-1.359375 0 -2.46875 -0.625q-1.09375 -0.625 -1.75 -1.8125q-0.640625 -1.203125 -0.640625 -2.921875q0 -1.71875 0.625 -2.90625q0.640625 -1.1875 1.734375 -1.796875q1.109375 -0.625 2.5 -0.625q1.5 0 2.6875 0.671875q1.1875 0.65625 1.859375 1.875q0.6875 1.203125 0.6875 2.78125q0 1.609375 -0.6875 2.8125q-0.671875 1.1875 -1.859375 1.875q-1.1875 0.671875 -2.6875 0.671875zm-5.421875 3.78125l0 -14.375l1.359375 0l0 3.15625l-0.140625 2.109375l0.203125 2.109375l0 7.0l-1.421875 0zm5.3125 -5.03125q1.125 0 2.0 -0.515625q0.890625 -0.515625 1.40625 -1.4375q0.515625 -0.9375 0.515625 -2.15625q0 -1.21875 -0.515625 -2.125q-0.515625 -0.921875 -1.40625 -1.4375q-0.875 -0.53125 -2.0 -0.53125q-1.109375 0 -2.0 0.53125q-0.890625 0.515625 -1.40625 1.4375q-0.515625 0.90625 -0.515625 2.125q0 1.21875 0.515625 2.15625q0.515625 0.921875 1.40625 1.4375q0.890625 0.515625 2.0 0.515625zm10.088135 1.15625l-3.96875 -10.5l1.359375 0l3.609375 9.734375l-0.625 0l3.703125 -9.734375l1.21875 0l3.65625 9.734375l-0.625 0l3.671875 -9.734375l1.296875 0l-3.984375 10.5l-1.34375 0l-3.515625 -9.15625l0.421875 0l-3.546875 9.15625l-1.328125 0zm19.311218 0.09375q-1.5 0 -2.6875 -0.671875q-1.1875 -0.6875 -1.875 -1.890625q-0.671875 -1.21875 -0.671875 -2.796875q0 -1.59375 0.671875 -2.796875q0.6875 -1.203125 1.875 -1.859375q1.1875 -0.671875 2.6875 -0.671875q1.390625 0 2.46875 0.625q1.09375 0.609375 1.734375 1.796875q0.65625 1.1875 0.65625 2.90625q0 1.703125 -0.640625 2.90625q-0.640625 1.203125 -1.734375 1.828125q-1.078125 0.625 -2.484375 0.625zm0.109375 -1.25q1.109375 0 2.0 -0.515625q0.890625 -0.515625 1.40625 -1.4375q0.515625 -0.9375 0.515625 -2.15625q0 -1.234375 -0.515625 -2.15625q-0.515625 -0.921875 -1.40625 -1.421875q-0.890625 -0.515625 -2.0 -0.515625q-1.109375 0 -1.984375 0.515625q-0.875 0.5 -1.40625 1.421875q-0.515625 0.921875 -0.515625 2.15625q0 1.21875 0.515625 2.15625q0.53125 0.921875 1.40625 1.4375q0.875 0.515625 1.984375 0.515625zm3.953125 1.15625l0 -3.15625l0.140625 -2.125l-0.203125 -2.125l0 -7.4375l1.421875 0l0 14.84375l-1.359375 0z" fill-rule="nonzero"/><path fill="#eeeeee" d="m653.96063 275.02362l59.02362 0l0 48.472443l-59.02362 0z" fill-rule="evenodd"/><path stroke="#595959" stroke-width="1.0" stroke-linejoin="round" stroke-linecap="butt" d="m653.96063 275.02362l59.02362 0l0 48.472443l-59.02362 0z" fill-rule="evenodd"/><path fill="#000000" fill-opacity="0.0" d="m654.105 275.8399l55.590576 0l0 43.62204l-55.590576 0z" fill-rule="evenodd"/><path fill="#595959" d="m669.5425 304.13364q-1.640625 0 -2.890625 -0.6875q-1.234375 -0.6875 -1.9375 -1.890625q-0.6875 -1.21875 -0.6875 -2.78125q0 -1.546875 0.671875 -2.75q0.671875 -1.203125 1.828125 -1.890625q1.171875 -0.6875 2.640625 -0.6875q1.484375 0 2.625 0.671875q1.15625 0.65625 1.8125 1.875q0.65625 1.203125 0.65625 2.78125q0 0.109375 -0.015625 0.21875q0 0.109375 0 0.234375l-9.140625 0l0 -1.0625l8.375 0l-0.5625 0.421875q0 -1.140625 -0.484375 -2.03125q-0.484375 -0.890625 -1.328125 -1.390625q-0.84375 -0.5 -1.9375 -0.5q-1.078125 0 -1.9375 0.5q-0.859375 0.5 -1.34375 1.40625q-0.484375 0.890625 -0.484375 2.046875l0 0.21875q0 1.203125 0.53125 2.109375q0.53125 0.90625 1.484375 1.421875q0.953125 0.515625 2.171875 0.515625q0.953125 0 1.78125 -0.34375q0.828125 -0.34375 1.4375 -1.046875l0.796875 0.921875q-0.703125 0.84375 -1.75 1.28125q-1.046875 0.4375 -2.3125 0.4375zm7.626892 -0.09375l0 -10.5l1.359375 0l0 2.875l-0.21875 -0.53125q0.5 -1.140625 1.59375 -1.78125q1.09375 -0.65625 2.625 -0.65625q1.28125 0 2.25 0.484375q0.96875 0.484375 1.515625 1.484375q0.546875 1.0 0.546875 2.53125l0 6.09375l-1.421875 0l0 -5.953125q0 -1.671875 -0.828125 -2.515625q-0.828125 -0.84375 -2.328125 -0.84375q-1.125 0 -1.953125 0.453125q-0.828125 0.4375 -1.28125 1.296875q-0.4375 0.84375 -0.4375 2.046875l0 5.515625l-1.421875 0zm16.023071 0l-4.671875 -10.5l1.484375 0l4.28125 9.734375l-0.703125 0l4.34375 -9.734375l1.390625 0l-4.671875 10.5l-1.453125 0z" fill-rule="nonzero"/><path fill="#eeeeee" d="m797.85565 275.02362l83.74805 0l0 48.472443l-83.74805 0z" fill-rule="evenodd"/><path stroke="#595959" stroke-width="1.0" stroke-linejoin="round" stroke-linecap="butt" d="m797.85565 275.02362l83.74805 0l0 48.472443l-83.74805 0z" fill-rule="evenodd"/><path fill="#000000" fill-opacity="0.0" d="m798.0 275.8399l87.68506 0l0 43.62204l-87.68506 0z" fill-rule="evenodd"/><path fill="#595959" d="m813.4375 304.13364q-1.640625 0 -2.890625 -0.6875q-1.234375 -0.6875 -1.9375 -1.890625q-0.6875 -1.21875 -0.6875 -2.78125q0 -1.546875 0.671875 -2.75q0.671875 -1.203125 1.828125 -1.890625q1.171875 -0.6875 2.640625 -0.6875q1.484375 0 2.625 0.671875q1.15625 0.65625 1.8125 1.875q0.65625 1.203125 0.65625 2.78125q0 0.109375 -0.015625 0.21875q0 0.109375 0 0.234375l-9.140625 0l0 -1.0625l8.375 0l-0.5625 0.421875q0 -1.140625 -0.484375 -2.03125q-0.484375 -0.890625 -1.328125 -1.390625q-0.84375 -0.5 -1.9375 -0.5q-1.078125 0 -1.9375 0.5q-0.859375 0.5 -1.34375 1.40625q-0.484375 0.890625 -0.484375 2.046875l0 0.21875q0 1.203125 0.53125 2.109375q0.53125 0.90625 1.484375 1.421875q0.953125 0.515625 2.171875 0.515625q0.953125 0 1.78125 -0.34375q0.828125 -0.34375 1.4375 -1.046875l0.796875 0.921875q-0.703125 0.84375 -1.75 1.28125q-1.046875 0.4375 -2.3125 0.4375zm5.7174683 -0.09375l4.4375 -5.765625l-0.015625 0.703125l-4.21875 -5.4375l1.609375 0l3.453125 4.5l-0.59375 -0.015625l3.453125 -4.484375l1.5625 0l-4.265625 5.5l0.015625 -0.765625l4.484375 5.765625l-1.609375 0l-3.671875 -4.796875l0.5625 0.078125l-3.59375 4.71875l-1.609375 0zm17.711243 0.09375q-1.359375 0 -2.46875 -0.625q-1.09375 -0.625 -1.75 -1.8125q-0.640625 -1.203125 -0.640625 -2.921875q0 -1.71875 0.625 -2.90625q0.640625 -1.1875 1.734375 -1.796875q1.109375 -0.625 2.5 -0.625q1.5 0 2.6875 0.671875q1.1875 0.65625 1.859375 1.875q0.6875 1.203125 0.6875 2.78125q0 1.609375 -0.6875 2.8125q-0.671875 1.1875 -1.859375 1.875q-1.1875 0.671875 -2.6875 0.671875zm-5.421875 3.78125l0 -14.375l1.359375 0l0 3.15625l-0.140625 2.109375l0.203125 2.109375l0 7.0l-1.421875 0zm5.3125 -5.03125q1.125 0 2.0 -0.515625q0.890625 -0.515625 1.40625 -1.4375q0.515625 -0.9375 0.515625 -2.15625q0 -1.21875 -0.515625 -2.125q-0.515625 -0.921875 -1.40625 -1.4375q-0.875 -0.53125 -2.0 -0.53125q-1.109375 0 -2.0 0.53125q-0.890625 0.515625 -1.40625 1.4375q-0.515625 0.90625 -0.515625 2.125q0 1.21875 0.515625 2.15625q0.515625 0.921875 1.40625 1.4375q0.890625 0.515625 2.0 0.515625zm12.528748 1.25q-1.53125 0 -2.75 -0.6875q-1.203125 -0.6875 -1.90625 -1.890625q-0.6875 -1.21875 -0.6875 -2.78125q0 -1.578125 0.6875 -2.765625q0.703125 -1.203125 1.90625 -1.875q1.203125 -0.6875 2.75 -0.6875q1.546875 0 2.75 0.6875q1.21875 0.671875 1.90625 1.875q0.703125 1.1875 0.703125 2.765625q0 1.5625 -0.703125 2.78125q-0.6875 1.203125 -1.90625 1.890625q-1.21875 0.6875 -2.75 0.6875zm0 -1.25q1.140625 0 2.015625 -0.515625q0.875 -0.515625 1.390625 -1.4375q0.515625 -0.9375 0.515625 -2.15625q0 -1.234375 -0.515625 -2.15625q-0.515625 -0.921875 -1.390625 -1.421875q-0.875 -0.515625 -2.0 -0.515625q-1.125 0 -2.0 0.515625q-0.875 0.5 -1.40625 1.421875q-0.515625 0.921875 -0.515625 2.15625q0 1.21875 0.515625 2.15625q0.53125 0.921875 1.40625 1.4375q0.875 0.515625 1.984375 0.515625zm8.258728 1.15625l0 -10.5l1.359375 0l0 2.859375l-0.140625 -0.5q0.4375 -1.203125 1.46875 -1.828125q1.046875 -0.625 2.59375 -0.625l0 1.375q-0.078125 0 -0.171875 0q-0.078125 -0.015625 -0.15625 -0.015625q-1.65625 0 -2.59375 1.015625q-0.9375 1.0 -0.9375 2.859375l0 5.359375l-1.421875 0zm11.632507 0.09375q-1.484375 0 -2.28125 -0.796875q-0.796875 -0.796875 -0.796875 -2.25l0 -9.859375l1.421875 0l0 9.765625q0 0.921875 0.46875 1.421875q0.46875 0.5 1.34375 0.5q0.953125 0 1.5625 -0.53125l0.5 1.015625q-0.421875 0.375 -1.015625 0.5625q-0.578125 0.171875 -1.203125 0.171875zm-4.953125 -9.40625l0 -1.1875l6.5 0l0 1.1875l-6.5 0z" fill-rule="nonzero"/><path fill="#eeeeee" d="m717.13385 275.02362l76.28345 0l0 48.472443l-76.28345 0z" fill-rule="evenodd"/><path stroke="#595959" stroke-width="1.0" stroke-linejoin="round" stroke-linecap="butt" d="m717.13385 275.02362l76.28345 0l0 48.472443l-76.28345 0z" fill-rule="evenodd"/><path fill="#000000" fill-opacity="0.0" d="m717.2782 275.8399l76.28351 0l0 43.62204l-76.28351 0z" fill-rule="evenodd"/><path fill="#595959" d="m732.5907 304.13364q-1.328125 0 -2.328125 -0.5q-1.0 -0.5 -1.5625 -1.5q-0.546875 -1.0 -0.546875 -2.5l0 -6.09375l1.421875 0l0 5.9375q0 1.6875 0.828125 2.53125q0.828125 0.84375 2.328125 0.84375q1.109375 0 1.921875 -0.4375q0.8125 -0.453125 1.234375 -1.3125q0.4375 -0.859375 0.4375 -2.0625l0 -5.5l1.40625 0l0 10.5l-1.359375 0l0 -2.875l0.21875 0.515625q-0.5 1.15625 -1.546875 1.8125q-1.046875 0.640625 -2.453125 0.640625zm9.111877 -0.09375l0 -10.5l1.359375 0l0 2.875l-0.21875 -0.53125q0.5 -1.140625 1.59375 -1.78125q1.09375 -0.65625 2.625 -0.65625q1.28125 0 2.25 0.484375q0.96875 0.484375 1.515625 1.484375q0.546875 1.0 0.546875 2.53125l0 6.09375l-1.421875 0l0 -5.953125q0 -1.671875 -0.828125 -2.515625q-0.828125 -0.84375 -2.328125 -0.84375q-1.125 0 -1.953125 0.453125q-0.828125 0.4375 -1.28125 1.296875q-0.4375 0.84375 -0.4375 2.046875l0 5.515625l-1.421875 0zm16.33252 0.09375q-1.296875 0 -2.453125 -0.359375q-1.15625 -0.375 -1.828125 -0.9375l0.640625 -1.109375q0.640625 0.46875 1.640625 0.828125q1.0 0.34375 2.109375 0.34375q1.5 0 2.15625 -0.46875q0.65625 -0.46875 0.65625 -1.25q0 -0.578125 -0.375 -0.90625q-0.359375 -0.328125 -0.96875 -0.5q-0.59375 -0.171875 -1.34375 -0.296875q-0.734375 -0.125 -1.46875 -0.28125q-0.71875 -0.15625 -1.328125 -0.46875q-0.59375 -0.3125 -0.96875 -0.84375q-0.359375 -0.546875 -0.359375 -1.4375q0 -0.859375 0.46875 -1.53125q0.484375 -0.6875 1.40625 -1.078125q0.9375 -0.390625 2.28125 -0.390625q1.015625 0 2.03125 0.265625q1.03125 0.265625 1.6875 0.703125l-0.625 1.140625q-0.703125 -0.46875 -1.5 -0.671875q-0.796875 -0.21875 -1.59375 -0.21875q-1.421875 0 -2.09375 0.484375q-0.671875 0.484375 -0.671875 1.25q0 0.59375 0.375 0.9375q0.375 0.34375 0.984375 0.53125q0.609375 0.1875 1.328125 0.3125q0.734375 0.125 1.46875 0.296875q0.734375 0.15625 1.34375 0.453125q0.609375 0.296875 0.96875 0.828125q0.375 0.515625 0.375 1.375q0 0.921875 -0.515625 1.59375q-0.5 0.671875 -1.46875 1.046875q-0.96875 0.359375 -2.359375 0.359375zm11.400574 0q-1.640625 0 -2.890625 -0.6875q-1.234375 -0.6875 -1.9375 -1.890625q-0.6875 -1.21875 -0.6875 -2.78125q0 -1.546875 0.671875 -2.75q0.671875 -1.203125 1.828125 -1.890625q1.171875 -0.6875 2.640625 -0.6875q1.484375 0 2.625 0.671875q1.15625 0.65625 1.8125 1.875q0.65625 1.203125 0.65625 2.78125q0 0.109375 -0.015625 0.21875q0 0.109375 0 0.234375l-9.140625 0l0 -1.0625l8.375 0l-0.5625 0.421875q0 -1.140625 -0.484375 -2.03125q-0.484375 -0.890625 -1.328125 -1.390625q-0.84375 -0.5 -1.9375 -0.5q-1.078125 0 -1.9375 0.5q-0.859375 0.5 -1.34375 1.40625q-0.484375 0.890625 -0.484375 2.046875l0 0.21875q0 1.203125 0.53125 2.109375q0.53125 0.90625 1.484375 1.421875q0.953125 0.515625 2.171875 0.515625q0.953125 0 1.78125 -0.34375q0.828125 -0.34375 1.4375 -1.046875l0.796875 0.921875q-0.703125 0.84375 -1.75 1.28125q-1.046875 0.4375 -2.3125 0.4375zm10.939392 0q-1.484375 0 -2.28125 -0.796875q-0.796875 -0.796875 -0.796875 -2.25l0 -9.859375l1.421875 0l0 9.765625q0 0.921875 0.46875 1.421875q0.46875 0.5 1.34375 0.5q0.953125 0 1.5625 -0.53125l0.5 1.015625q-0.421875 0.375 -1.015625 0.5625q-0.578125 0.171875 -1.203125 0.171875zm-4.953125 -9.40625l0 -1.1875l6.5 0l0 1.1875l-6.5 0z" fill-rule="nonzero"/><path fill="#eeeeee" d="m214.4252 403.02362l128.53543 0l0 48.472443l-128.53543 0z" fill-rule="evenodd"/><path stroke="#595959" stroke-width="1.0" stroke-linejoin="round" stroke-linecap="butt" d="m214.4252 403.02362l128.53543 0l0 48.472443l-128.53543 0z" fill-rule="evenodd"/><path fill="#000000" fill-opacity="0.0" d="m214.56955 403.8399l128.53543 0l0 48.472443l-128.53543 0z" fill-rule="evenodd"/><path fill="#595959" d="m226.30392 435.87988l0 -16.796875l6.84375 0q2.6875 0 4.703125 1.078125q2.03125 1.0625 3.15625 2.953125q1.140625 1.890625 1.140625 4.359375q0 2.484375 -1.140625 4.375q-1.125 1.890625 -3.15625 2.96875q-2.015625 1.0625 -4.703125 1.0625l-6.84375 0zm1.78125 -1.53125l4.96875 0q2.234375 0 3.875 -0.875q1.640625 -0.875 2.546875 -2.421875q0.921875 -1.5625 0.921875 -3.578125q0 -2.03125 -0.921875 -3.5625q-0.90625 -1.546875 -2.546875 -2.421875q-1.640625 -0.875 -3.875 -0.875l-4.96875 0l0 13.734375zm23.042694 1.65625q-1.96875 0 -3.46875 -0.828125q-1.484375 -0.828125 -2.328125 -2.28125q-0.828125 -1.453125 -0.828125 -3.328125q0 -1.875 0.796875 -3.3125q0.8125 -1.4375 2.203125 -2.265625q1.40625 -0.828125 3.15625 -0.828125q1.78125 0 3.15625 0.8125q1.390625 0.796875 2.171875 2.25q0.796875 1.453125 0.796875 3.34375q0 0.125 -0.015625 0.265625q0 0.125 0 0.265625l-10.96875 0l0 -1.28125l10.046875 0l-0.671875 0.515625q0 -1.375 -0.59375 -2.4375q-0.578125 -1.078125 -1.59375 -1.671875q-1.0 -0.59375 -2.328125 -0.59375q-1.296875 0 -2.328125 0.59375q-1.03125 0.59375 -1.609375 1.6875q-0.5625 1.078125 -0.5625 2.46875l0 0.265625q0 1.4375 0.625 2.53125q0.640625 1.09375 1.78125 1.703125q1.140625 0.609375 2.609375 0.609375q1.140625 0 2.140625 -0.40625q1.0 -0.40625 1.71875 -1.25l0.953125 1.109375q-0.828125 1.0 -2.09375 1.53125q-1.265625 0.53125 -2.765625 0.53125zm15.636597 0q-1.65625 0 -2.984375 -0.75q-1.3125 -0.765625 -2.078125 -2.203125q-0.765625 -1.4375 -0.765625 -3.484375q0 -2.0625 0.78125 -3.484375q0.78125 -1.4375 2.09375 -2.171875q1.328125 -0.75 2.953125 -0.75q1.8125 0 3.234375 0.8125q1.421875 0.796875 2.234375 2.234375q0.828125 1.4375 0.828125 3.359375q0 1.890625 -0.828125 3.34375q-0.8125 1.453125 -2.234375 2.28125q-1.421875 0.8125 -3.234375 0.8125zm-6.5 -0.125l0 -17.8125l1.703125 0l0 8.9375l-0.234375 2.53125l0.171875 2.546875l0 3.796875l-1.640625 0zm6.390625 -1.390625q1.34375 0 2.390625 -0.609375q1.0625 -0.609375 1.6875 -1.71875q0.625 -1.125 0.625 -2.59375q0 -1.484375 -0.625 -2.59375q-0.625 -1.109375 -1.6875 -1.71875q-1.046875 -0.609375 -2.390625 -0.609375q-1.34375 0 -2.421875 0.609375q-1.0625 0.609375 -1.671875 1.71875q-0.609375 1.109375 -0.609375 2.59375q0 1.46875 0.609375 2.59375q0.609375 1.109375 1.671875 1.71875q1.078125 0.609375 2.421875 0.609375zm15.084442 1.515625q-1.609375 0 -2.8125 -0.59375q-1.1875 -0.609375 -1.859375 -1.8125q-0.65625 -1.203125 -0.65625 -3.0l0 -7.3125l1.703125 0l0 7.125q0 2.015625 1.0 3.03125q1.0 1.015625 2.796875 1.015625q1.328125 0 2.296875 -0.53125q0.96875 -0.546875 1.484375 -1.578125q0.515625 -1.03125 0.515625 -2.46875l0 -6.59375l1.703125 0l0 12.59375l-1.625 0l0 -3.453125l0.265625 0.625q-0.609375 1.390625 -1.875 2.171875q-1.25 0.78125 -2.9375 0.78125zm16.299835 4.65625q-1.71875 0 -3.3125 -0.515625q-1.578125 -0.5 -2.5625 -1.4375l0.859375 -1.296875q0.890625 0.796875 2.1875 1.265625q1.3125 0.46875 2.78125 0.46875q2.40625 0 3.53125 -1.125q1.125 -1.109375 1.125 -3.453125l0 -3.15625l0.234375 -2.15625l-0.15625 -2.15625l0 -3.8125l1.625 0l0 11.0625q0 3.265625 -1.59375 4.78125q-1.59375 1.53125 -4.71875 1.53125zm-0.3125 -5.265625q-1.796875 0 -3.234375 -0.78125q-1.4375 -0.78125 -2.265625 -2.171875q-0.828125 -1.390625 -0.828125 -3.1875q0 -1.796875 0.828125 -3.171875q0.828125 -1.390625 2.265625 -2.15625q1.4375 -0.765625 3.234375 -0.765625q1.6875 0 3.03125 0.703125q1.34375 0.6875 2.125 2.0625q0.796875 1.359375 0.796875 3.328125q0 1.96875 -0.796875 3.34375q-0.78125 1.359375 -2.125 2.078125q-1.34375 0.71875 -3.03125 0.71875zm0.171875 -1.5q1.390625 0 2.46875 -0.59375q1.078125 -0.59375 1.703125 -1.625q0.625 -1.046875 0.625 -2.421875q0 -1.359375 -0.625 -2.390625q-0.625 -1.046875 -1.703125 -1.625q-1.078125 -0.59375 -2.46875 -0.59375q-1.375 0 -2.46875 0.59375q-1.078125 0.578125 -1.703125 1.625q-0.609375 1.03125 -0.609375 2.390625q0 1.375 0.609375 2.421875q0.625 1.03125 1.703125 1.625q1.09375 0.59375 2.46875 0.59375z" fill-rule="nonzero"/><path fill="#000000" fill-opacity="0.0" d="m151.10498 44.076115l31.732285 0l0 384.0l31.732285 0" fill-rule="evenodd"/><path stroke="#595959" stroke-width="1.0" stroke-linejoin="round" stroke-linecap="butt" d="m151.10498 44.076115l31.732285 0l0 384.0l31.732285 0" fill-rule="evenodd"/><path fill="#eeeeee" d="m390.4252 403.02362l110.48819 0l0 48.472443l-110.48819 0z" fill-rule="evenodd"/><path stroke="#595959" stroke-width="1.0" stroke-linejoin="round" stroke-linecap="butt" d="m390.4252 403.02362l110.48819 0l0 48.472443l-110.48819 0z" fill-rule="evenodd"/><path fill="#000000" fill-opacity="0.0" d="m390.56955 403.8399l116.8504 0l0 43.62204l-116.8504 0z" fill-rule="evenodd"/><path fill="#595959" d="m406.9758 432.13364q-1.359375 0 -2.46875 -0.625q-1.09375 -0.625 -1.75 -1.8125q-0.640625 -1.203125 -0.640625 -2.921875q0 -1.71875 0.625 -2.90625q0.640625 -1.1875 1.734375 -1.796875q1.109375 -0.625 2.5 -0.625q1.5 0 2.6875 0.671875q1.1875 0.65625 1.859375 1.875q0.6875 1.203125 0.6875 2.78125q0 1.609375 -0.6875 2.8125q-0.671875 1.1875 -1.859375 1.875q-1.1875 0.671875 -2.6875 0.671875zm-5.421875 3.78125l0 -14.375l1.359375 0l0 3.15625l-0.140625 2.109375l0.203125 2.109375l0 7.0l-1.421875 0zm5.3125 -5.03125q1.125 0 2.0 -0.515625q0.890625 -0.515625 1.40625 -1.4375q0.515625 -0.9375 0.515625 -2.15625q0 -1.21875 -0.515625 -2.125q-0.515625 -0.921875 -1.40625 -1.4375q-0.875 -0.53125 -2.0 -0.53125q-1.109375 0 -2.0 0.53125q-0.890625 0.515625 -1.40625 1.4375q-0.515625 0.90625 -0.515625 2.125q0 1.21875 0.515625 2.15625q0.515625 0.921875 1.40625 1.4375q0.890625 0.515625 2.0 0.515625zm8.247498 1.15625l0 -10.5l1.359375 0l0 2.859375l-0.140625 -0.5q0.4375 -1.203125 1.46875 -1.828125q1.046875 -0.625 2.59375 -0.625l0 1.375q-0.078125 0 -0.171875 0q-0.078125 -0.015625 -0.15625 -0.015625q-1.65625 0 -2.59375 1.015625q-0.9375 1.0 -0.9375 2.859375l0 5.359375l-1.421875 0zm7.8599854 0l0 -10.5l1.421875 0l0 10.5l-1.421875 0zm0.71875 -12.8125q-0.4375 0 -0.75 -0.296875q-0.296875 -0.3125 -0.296875 -0.734375q0 -0.421875 0.296875 -0.703125q0.3125 -0.296875 0.75 -0.296875q0.4375 0 0.734375 0.28125q0.3125 0.28125 0.3125 0.703125q0 0.4375 -0.296875 0.75q-0.296875 0.296875 -0.75 0.296875zm4.6612244 12.8125l0 -10.5l1.359375 0l0 2.875l-0.21875 -0.53125q0.5 -1.140625 1.59375 -1.78125q1.09375 -0.65625 2.625 -0.65625q1.28125 0 2.25 0.484375q0.96875 0.484375 1.515625 1.484375q0.546875 1.0 0.546875 2.53125l0 6.09375l-1.421875 0l0 -5.953125q0 -1.671875 -0.828125 -2.515625q-0.828125 -0.84375 -2.328125 -0.84375q-1.125 0 -1.953125 0.453125q-0.828125 0.4375 -1.28125 1.296875q-0.4375 0.84375 -0.4375 2.046875l0 5.515625l-1.421875 0zm16.832489 0.09375q-1.484375 0 -2.28125 -0.796875q-0.796875 -0.796875 -0.796875 -2.25l0 -9.859375l1.421875 0l0 9.765625q0 0.921875 0.46875 1.421875q0.46875 0.5 1.34375 0.5q0.953125 0 1.5625 -0.53125l0.5 1.015625q-0.421875 0.375 -1.015625 0.5625q-0.578125 0.171875 -1.203125 0.171875zm-4.953125 -9.40625l0 -1.1875l6.5 0l0 1.1875l-6.5 0zm8.476257 10.265625l0 -0.953125l10.0 0l0 0.953125l-10.0 0zm14.896851 -0.859375q-1.484375 0 -2.28125 -0.796875q-0.796875 -0.796875 -0.796875 -2.25l0 -9.859375l1.421875 0l0 9.765625q0 0.921875 0.46875 1.421875q0.46875 0.5 1.34375 0.5q0.953125 0 1.5625 -0.53125l0.5 1.015625q-0.421875 0.375 -1.015625 0.5625q-0.578125 0.171875 -1.203125 0.171875zm-4.953125 -9.40625l0 -1.1875l6.5 0l0 1.1875l-6.5 0zm10.869995 6.59375l0.046875 -1.828125l6.546875 -5.953125l1.734375 0l-4.625 4.421875l-0.796875 0.671875l-2.90625 2.6875zm-1.109375 2.71875l0 -14.84375l1.421875 0l0 14.84375l-1.421875 0zm8.140625 0l-4.390625 -5.453125l0.921875 -1.109375l5.203125 6.5625l-1.734375 0zm3.6593628 0l0 -10.5l1.359375 0l0 2.875l-0.21875 -0.53125q0.5 -1.140625 1.59375 -1.78125q1.09375 -0.65625 2.625 -0.65625q1.28125 0 2.25 0.484375q0.96875 0.484375 1.515625 1.484375q0.546875 1.0 0.546875 2.53125l0 6.09375l-1.421875 0l0 -5.953125q0 -1.671875 -0.828125 -2.515625q-0.828125 -0.84375 -2.328125 -0.84375q-1.125 0 -1.953125 0.453125q-0.828125 0.4375 -1.28125 1.296875q-0.4375 0.84375 -0.4375 2.046875l0 5.515625l-1.421875 0z" fill-rule="nonzero"/><path fill="#eeeeee" d="m754.20734 115.59318l0.8189087 0l0 0.06298828l-0.8189087 0z" fill-rule="evenodd"/><path stroke="#595959" stroke-width="1.0" stroke-linejoin="round" stroke-linecap="butt" d="m754.20734 115.59318l0.8189087 0l0 0.06298828l-0.8189087 0z" fill-rule="evenodd"/><path fill="#eeeeee" d="m504.4252 403.02362l110.48819 0l0 48.472443l-110.48819 0z" fill-rule="evenodd"/><path stroke="#595959" stroke-width="1.0" stroke-linejoin="round" stroke-linecap="butt" d="m504.4252 403.02362l110.48819 0l0 48.472443l-110.48819 0z" fill-rule="evenodd"/><path fill="#000000" fill-opacity="0.0" d="m504.56955 403.8399l116.85037 0l0 43.62204l-116.85037 0z" fill-rule="evenodd"/><path fill="#595959" d="m520.9758 432.13364q-1.359375 0 -2.46875 -0.625q-1.09375 -0.625 -1.75 -1.8125q-0.640625 -1.203125 -0.640625 -2.921875q0 -1.71875 0.625 -2.90625q0.640625 -1.1875 1.734375 -1.796875q1.109375 -0.625 2.5 -0.625q1.5 0 2.6875 0.671875q1.1875 0.65625 1.859375 1.875q0.6875 1.203125 0.6875 2.78125q0 1.609375 -0.6875 2.8125q-0.671875 1.1875 -1.859375 1.875q-1.1875 0.671875 -2.6875 0.671875zm-5.421875 3.78125l0 -14.375l1.359375 0l0 3.15625l-0.140625 2.109375l0.203125 2.109375l0 7.0l-1.421875 0zm5.3125 -5.03125q1.125 0 2.0 -0.515625q0.890625 -0.515625 1.40625 -1.4375q0.515625 -0.9375 0.515625 -2.15625q0 -1.21875 -0.515625 -2.125q-0.515625 -0.921875 -1.40625 -1.4375q-0.875 -0.53125 -2.0 -0.53125q-1.109375 0 -2.0 0.53125q-0.890625 0.515625 -1.40625 1.4375q-0.515625 0.90625 -0.515625 2.125q0 1.21875 0.515625 2.15625q0.515625 0.921875 1.40625 1.4375q0.890625 0.515625 2.0 0.515625zm8.247437 1.15625l0 -10.5l1.359375 0l0 2.859375l-0.140625 -0.5q0.4375 -1.203125 1.46875 -1.828125q1.046875 -0.625 2.59375 -0.625l0 1.375q-0.078125 0 -0.171875 0q-0.078125 -0.015625 -0.15625 -0.015625q-1.65625 0 -2.59375 1.015625q-0.9375 1.0 -0.9375 2.859375l0 5.359375l-1.421875 0zm7.8599854 0l0 -10.5l1.421875 0l0 10.5l-1.421875 0zm0.71875 -12.8125q-0.4375 0 -0.75 -0.296875q-0.296875 -0.3125 -0.296875 -0.734375q0 -0.421875 0.296875 -0.703125q0.3125 -0.296875 0.75 -0.296875q0.4375 0 0.734375 0.28125q0.3125 0.28125 0.3125 0.703125q0 0.4375 -0.296875 0.75q-0.296875 0.296875 -0.75 0.296875zm4.661255 12.8125l0 -10.5l1.359375 0l0 2.875l-0.21875 -0.53125q0.5 -1.140625 1.59375 -1.78125q1.09375 -0.65625 2.625 -0.65625q1.28125 0 2.25 0.484375q0.96875 0.484375 1.515625 1.484375q0.546875 1.0 0.546875 2.53125l0 6.09375l-1.421875 0l0 -5.953125q0 -1.671875 -0.828125 -2.515625q-0.828125 -0.84375 -2.328125 -0.84375q-1.125 0 -1.953125 0.453125q-0.828125 0.4375 -1.28125 1.296875q-0.4375 0.84375 -0.4375 2.046875l0 5.515625l-1.421875 0zm16.83252 0.09375q-1.484375 0 -2.28125 -0.796875q-0.796875 -0.796875 -0.796875 -2.25l0 -9.859375l1.421875 0l0 9.765625q0 0.921875 0.46875 1.421875q0.46875 0.5 1.34375 0.5q0.953125 0 1.5625 -0.53125l0.5 1.015625q-0.421875 0.375 -1.015625 0.5625q-0.578125 0.171875 -1.203125 0.171875zm-4.953125 -9.40625l0 -1.1875l6.5 0l0 1.1875l-6.5 0zm8.476196 10.265625l0 -0.953125l10.0 0l0 0.953125l-10.0 0zm18.362488 -0.953125l0 -2.3125l-0.0625 -0.390625l0 -3.875q0 -1.34375 -0.75 -2.0625q-0.75 -0.71875 -2.234375 -0.71875q-1.015625 0 -1.9375 0.34375q-0.921875 0.328125 -1.5625 0.890625l-0.640625 -1.0625q0.8125 -0.671875 1.921875 -1.03125q1.125 -0.375 2.359375 -0.375q2.046875 0 3.15625 1.015625q1.109375 1.0 1.109375 3.0625l0 6.515625l-1.359375 0zm-3.625 0.09375q-1.171875 0 -2.046875 -0.390625q-0.875 -0.390625 -1.34375 -1.078125q-0.453125 -0.6875 -0.453125 -1.578125q0 -0.828125 0.390625 -1.5q0.390625 -0.671875 1.28125 -1.078125q0.890625 -0.40625 2.390625 -0.40625l3.625 0l0 1.0625l-3.578125 0q-1.515625 0 -2.109375 0.546875q-0.59375 0.53125 -0.59375 1.328125q0 0.90625 0.703125 1.453125q0.703125 0.53125 1.953125 0.53125q1.203125 0 2.0625 -0.546875q0.875 -0.5625 1.28125 -1.59375l0.3125 0.96875q-0.390625 1.046875 -1.390625 1.671875q-0.984375 0.609375 -2.484375 0.609375zm11.659363 0q-1.296875 0 -2.453125 -0.359375q-1.15625 -0.375 -1.828125 -0.9375l0.640625 -1.109375q0.640625 0.46875 1.640625 0.828125q1.0 0.34375 2.109375 0.34375q1.5 0 2.15625 -0.46875q0.65625 -0.46875 0.65625 -1.25q0 -0.578125 -0.375 -0.90625q-0.359375 -0.328125 -0.96875 -0.5q-0.59375 -0.171875 -1.34375 -0.296875q-0.734375 -0.125 -1.46875 -0.28125q-0.71875 -0.15625 -1.328125 -0.46875q-0.59375 -0.3125 -0.96875 -0.84375q-0.359375 -0.546875 -0.359375 -1.4375q0 -0.859375 0.46875 -1.53125q0.484375 -0.6875 1.40625 -1.078125q0.9375 -0.390625 2.28125 -0.390625q1.015625 0 2.03125 0.265625q1.03125 0.265625 1.6875 0.703125l-0.625 1.140625q-0.703125 -0.46875 -1.5 -0.671875q-0.796875 -0.21875 -1.59375 -0.21875q-1.421875 0 -2.09375 0.484375q-0.671875 0.484375 -0.671875 1.25q0 0.59375 0.375 0.9375q0.375 0.34375 0.984375 0.53125q0.609375 0.1875 1.328125 0.3125q0.734375 0.125 1.46875 0.296875q0.734375 0.15625 1.34375 0.453125q0.609375 0.296875 0.96875 0.828125q0.375 0.515625 0.375 1.375q0 0.921875 -0.515625 1.59375q-0.5 0.671875 -1.46875 1.046875q-0.96875 0.359375 -2.359375 0.359375zm10.26001 0q-1.484375 0 -2.28125 -0.796875q-0.796875 -0.796875 -0.796875 -2.25l0 -9.859375l1.421875 0l0 9.765625q0 0.921875 0.46875 1.421875q0.46875 0.5 1.34375 0.5q0.953125 0 1.5625 -0.53125l0.5 1.015625q-0.421875 0.375 -1.015625 0.5625q-0.578125 0.171875 -1.203125 0.171875zm-4.953125 -9.40625l0 -1.1875l6.5 0l0 1.1875l-6.5 0z" fill-rule="nonzero"/><path fill="#eeeeee" d="m618.4252 403.02362l189.1969 0l0 48.472443l-189.1969 0z" fill-rule="evenodd"/><path stroke="#595959" stroke-width="1.0" stroke-linejoin="round" stroke-linecap="butt" d="m618.4252 403.02362l189.1969 0l0 48.472443l-189.1969 0z" fill-rule="evenodd"/><path fill="#000000" fill-opacity="0.0" d="m618.5696 403.8399l198.58264 0l0 43.62204l-198.58264 0z" fill-rule="evenodd"/><path fill="#595959" d="m634.9758 432.13364q-1.359375 0 -2.46875 -0.625q-1.09375 -0.625 -1.75 -1.8125q-0.640625 -1.203125 -0.640625 -2.921875q0 -1.71875 0.625 -2.90625q0.640625 -1.1875 1.734375 -1.796875q1.109375 -0.625 2.5 -0.625q1.5 0 2.6875 0.671875q1.1875 0.65625 1.859375 1.875q0.6875 1.203125 0.6875 2.78125q0 1.609375 -0.6875 2.8125q-0.671875 1.1875 -1.859375 1.875q-1.1875 0.671875 -2.6875 0.671875zm-5.421875 3.78125l0 -14.375l1.359375 0l0 3.15625l-0.140625 2.109375l0.203125 2.109375l0 7.0l-1.421875 0zm5.3125 -5.03125q1.125 0 2.0 -0.515625q0.890625 -0.515625 1.40625 -1.4375q0.515625 -0.9375 0.515625 -2.15625q0 -1.21875 -0.515625 -2.125q-0.515625 -0.921875 -1.40625 -1.4375q-0.875 -0.53125 -2.0 -0.53125q-1.109375 0 -2.0 0.53125q-0.890625 0.515625 -1.40625 1.4375q-0.515625 0.90625 -0.515625 2.125q0 1.21875 0.515625 2.15625q0.515625 0.921875 1.40625 1.4375q0.890625 0.515625 2.0 0.515625zm8.247437 1.15625l0 -10.5l1.359375 0l0 2.859375l-0.140625 -0.5q0.4375 -1.203125 1.46875 -1.828125q1.046875 -0.625 2.59375 -0.625l0 1.375q-0.078125 0 -0.171875 0q-0.078125 -0.015625 -0.15625 -0.015625q-1.65625 0 -2.59375 1.015625q-0.9375 1.0 -0.9375 2.859375l0 5.359375l-1.421875 0zm7.8599854 0l0 -10.5l1.421875 0l0 10.5l-1.421875 0zm0.71875 -12.8125q-0.4375 0 -0.75 -0.296875q-0.296875 -0.3125 -0.296875 -0.734375q0 -0.421875 0.296875 -0.703125q0.3125 -0.296875 0.75 -0.296875q0.4375 0 0.734375 0.28125q0.3125 0.28125 0.3125 0.703125q0 0.4375 -0.296875 0.75q-0.296875 0.296875 -0.75 0.296875zm4.661255 12.8125l0 -10.5l1.359375 0l0 2.875l-0.21875 -0.53125q0.5 -1.140625 1.59375 -1.78125q1.09375 -0.65625 2.625 -0.65625q1.28125 0 2.25 0.484375q0.96875 0.484375 1.515625 1.484375q0.546875 1.0 0.546875 2.53125l0 6.09375l-1.421875 0l0 -5.953125q0 -1.671875 -0.828125 -2.515625q-0.828125 -0.84375 -2.328125 -0.84375q-1.125 0 -1.953125 0.453125q-0.828125 0.4375 -1.28125 1.296875q-0.4375 0.84375 -0.4375 2.046875l0 5.515625l-1.421875 0zm16.83252 0.09375q-1.484375 0 -2.28125 -0.796875q-0.796875 -0.796875 -0.796875 -2.25l0 -9.859375l1.421875 0l0 9.765625q0 0.921875 0.46875 1.421875q0.46875 0.5 1.34375 0.5q0.953125 0 1.5625 -0.53125l0.5 1.015625q-0.421875 0.375 -1.015625 0.5625q-0.578125 0.171875 -1.203125 0.171875zm-4.953125 -9.40625l0 -1.1875l6.5 0l0 1.1875l-6.5 0zm8.476196 10.265625l0 -0.953125l10.0 0l0 0.953125l-10.0 0zm15.783752 -0.859375q-1.5625 0 -2.796875 -0.6875q-1.234375 -0.6875 -1.9375 -1.890625q-0.6875 -1.21875 -0.6875 -2.78125q0 -1.578125 0.6875 -2.765625q0.703125 -1.203125 1.9375 -1.875q1.234375 -0.6875 2.796875 -0.6875q1.34375 0 2.421875 0.515625q1.078125 0.515625 1.6875 1.5625l-1.046875 0.71875q-0.546875 -0.796875 -1.34375 -1.171875q-0.796875 -0.390625 -1.75 -0.390625q-1.109375 0 -2.015625 0.515625q-0.890625 0.5 -1.421875 1.421875q-0.515625 0.921875 -0.515625 2.15625q0 1.25 0.515625 2.171875q0.53125 0.90625 1.421875 1.421875q0.90625 0.515625 2.015625 0.515625q0.953125 0 1.75 -0.375q0.796875 -0.390625 1.34375 -1.171875l1.046875 0.71875q-0.609375 1.03125 -1.6875 1.5625q-1.078125 0.515625 -2.421875 0.515625zm11.001892 0q-1.53125 0 -2.75 -0.6875q-1.203125 -0.6875 -1.90625 -1.890625q-0.6875 -1.21875 -0.6875 -2.78125q0 -1.578125 0.6875 -2.765625q0.703125 -1.203125 1.90625 -1.875q1.203125 -0.6875 2.75 -0.6875q1.546875 0 2.75 0.6875q1.21875 0.671875 1.90625 1.875q0.703125 1.1875 0.703125 2.765625q0 1.5625 -0.703125 2.78125q-0.6875 1.203125 -1.90625 1.890625q-1.21875 0.6875 -2.75 0.6875zm0 -1.25q1.140625 0 2.015625 -0.515625q0.875 -0.515625 1.390625 -1.4375q0.515625 -0.9375 0.515625 -2.15625q0 -1.234375 -0.515625 -2.15625q-0.515625 -0.921875 -1.390625 -1.421875q-0.875 -0.515625 -2.0 -0.515625q-1.125 0 -2.0 0.515625q-0.875 0.5 -1.40625 1.421875q-0.515625 0.921875 -0.515625 2.15625q0 1.21875 0.515625 2.15625q0.53125 0.921875 1.40625 1.4375q0.875 0.515625 1.984375 0.515625zm8.258728 1.15625l0 -10.5l1.359375 0l0 2.84375l-0.21875 -0.5q0.46875 -1.140625 1.53125 -1.78125q1.078125 -0.65625 2.546875 -0.65625q1.53125 0 2.609375 0.765625q1.09375 0.765625 1.40625 2.3125l-0.5625 -0.21875q0.46875 -1.28125 1.625 -2.0625q1.171875 -0.796875 2.8125 -0.796875q1.28125 0 2.234375 0.484375q0.953125 0.484375 1.484375 1.484375q0.53125 1.0 0.53125 2.53125l0 6.09375l-1.421875 0l0 -5.953125q0 -1.671875 -0.796875 -2.515625q-0.78125 -0.84375 -2.21875 -0.84375q-1.09375 0 -1.890625 0.453125q-0.78125 0.4375 -1.21875 1.296875q-0.421875 0.84375 -0.421875 2.046875l0 5.515625l-1.421875 0l0 -5.953125q0 -1.671875 -0.796875 -2.515625q-0.796875 -0.84375 -2.234375 -0.84375q-1.0625 0 -1.859375 0.453125q-0.796875 0.4375 -1.234375 1.296875q-0.421875 0.84375 -0.421875 2.046875l0 5.515625l-1.421875 0zm21.21997 0l0 -10.5l1.359375 0l0 2.84375l-0.21875 -0.5q0.46875 -1.140625 1.53125 -1.78125q1.078125 -0.65625 2.546875 -0.65625q1.53125 0 2.609375 0.765625q1.09375 0.765625 1.40625 2.3125l-0.5625 -0.21875q0.46875 -1.28125 1.625 -2.0625q1.171875 -0.796875 2.8125 -0.796875q1.28125 0 2.234375 0.484375q0.953125 0.484375 1.484375 1.484375q0.53125 1.0 0.53125 2.53125l0 6.09375l-1.421875 0l0 -5.953125q0 -1.671875 -0.796875 -2.515625q-0.78125 -0.84375 -2.21875 -0.84375q-1.09375 0 -1.890625 0.453125q-0.78125 0.4375 -1.21875 1.296875q-0.421875 0.84375 -0.421875 2.046875l0 5.515625l-1.421875 0l0 -5.953125q0 -1.671875 -0.796875 -2.515625q-0.796875 -0.84375 -2.234375 -0.84375q-1.0625 0 -1.859375 0.453125q-0.796875 0.4375 -1.234375 1.296875q-0.421875 0.84375 -0.421875 2.046875l0 5.515625l-1.421875 0zm19.235657 0.953125l0 -0.953125l10.0 0l0 0.953125l-10.0 0zm14.896851 -0.859375q-1.484375 0 -2.28125 -0.796875q-0.796875 -0.796875 -0.796875 -2.25l0 -9.859375l1.421875 0l0 9.765625q0 0.921875 0.46875 1.421875q0.46875 0.5 1.34375 0.5q0.953125 0 1.5625 -0.53125l0.5 1.015625q-0.421875 0.375 -1.015625 0.5625q-0.578125 0.171875 -1.203125 0.171875zm-4.953125 -9.40625l0 -1.1875l6.5 0l0 1.1875l-6.5 0zm15.938721 9.3125l0 -2.3125l-0.0625 -0.390625l0 -3.875q0 -1.34375 -0.75 -2.0625q-0.75 -0.71875 -2.234375 -0.71875q-1.015625 0 -1.9375 0.34375q-0.921875 0.328125 -1.5625 0.890625l-0.640625 -1.0625q0.8125 -0.671875 1.921875 -1.03125q1.125 -0.375 2.359375 -0.375q2.046875 0 3.15625 1.015625q1.109375 1.0 1.109375 3.0625l0 6.515625l-1.359375 0zm-3.625 0.09375q-1.171875 0 -2.046875 -0.390625q-0.875 -0.390625 -1.34375 -1.078125q-0.453125 -0.6875 -0.453125 -1.578125q0 -0.828125 0.390625 -1.5q0.390625 -0.671875 1.28125 -1.078125q0.890625 -0.40625 2.390625 -0.40625l3.625 0l0 1.0625l-3.578125 0q-1.515625 0 -2.109375 0.546875q-0.59375 0.53125 -0.59375 1.328125q0 0.90625 0.703125 1.453125q0.703125 0.53125 1.953125 0.53125q1.203125 0 2.0625 -0.546875q0.875 -0.5625 1.28125 -1.59375l0.3125 0.96875q-0.390625 1.046875 -1.390625 1.671875q-0.984375 0.609375 -2.484375 0.609375zm14.268738 0q-1.390625 0 -2.5 -0.625q-1.09375 -0.625 -1.734375 -1.828125q-0.625 -1.203125 -0.625 -2.90625q0 -1.71875 0.640625 -2.90625q0.65625 -1.1875 1.75 -1.796875q1.109375 -0.625 2.46875 -0.625q1.5 0 2.6875 0.671875q1.1875 0.65625 1.859375 1.859375q0.6875 1.203125 0.6875 2.796875q0 1.578125 -0.6875 2.796875q-0.671875 1.203125 -1.859375 1.890625q-1.1875 0.671875 -2.6875 0.671875zm-5.421875 -0.09375l0 -14.84375l1.421875 0l0 7.4375l-0.203125 2.125l0.140625 2.125l0 3.15625l-1.359375 0zm5.3125 -1.15625q1.125 0 2.0 -0.515625q0.890625 -0.515625 1.40625 -1.4375q0.515625 -0.9375 0.515625 -2.15625q0 -1.234375 -0.515625 -2.15625q-0.515625 -0.921875 -1.40625 -1.421875q-0.875 -0.515625 -2.0 -0.515625q-1.109375 0 -2.0 0.515625q-0.890625 0.5 -1.40625 1.421875q-0.515625 0.921875 -0.515625 2.15625q0 1.21875 0.515625 2.15625q0.515625 0.921875 1.40625 1.4375q0.890625 0.515625 2.0 0.515625z" fill-rule="nonzero"/><path fill="#eeeeee" d="m214.4252 467.02362l152.91339 0l0 48.472412l-152.91339 0z" fill-rule="evenodd"/><path stroke="#595959" stroke-width="1.0" stroke-linejoin="round" stroke-linecap="butt" d="m214.4252 467.02362l152.91339 0l0 48.472412l-152.91339 0z" fill-rule="evenodd"/><path fill="#000000" fill-opacity="0.0" d="m214.56955 467.8399l167.1181 0l0 48.472412l-167.1181 0z" fill-rule="evenodd"/><path fill="#595959" d="m223.61642 499.87988l7.6875 -16.796875l1.75 0l7.671875 16.796875l-1.875 0l-7.046875 -15.765625l0.71875 0l-7.0625 15.765625l-1.84375 0zm3.03125 -4.484375l0.515625 -1.4375l9.78125 0l0.515625 1.4375l-10.8125 0zm16.504822 4.484375l0 -12.59375l1.640625 0l0 3.453125l-0.265625 -0.65625q0.59375 -1.359375 1.90625 -2.140625q1.328125 -0.78125 3.15625 -0.78125q1.53125 0 2.6875 0.59375q1.171875 0.578125 1.828125 1.78125q0.65625 1.203125 0.65625 3.03125l0 7.3125l-1.703125 0l0 -7.15625q0 -1.984375 -1.0 -3.0q-0.984375 -1.03125 -2.78125 -1.03125q-1.34375 0 -2.34375 0.546875q-1.0 0.53125 -1.546875 1.5625q-0.53125 1.015625 -0.53125 2.453125l0 6.625l-1.703125 0zm21.239594 0.125q-1.796875 0 -3.234375 -0.8125q-1.421875 -0.828125 -2.234375 -2.28125q-0.8125 -1.453125 -0.8125 -3.34375q0 -1.921875 0.8125 -3.359375q0.8125 -1.4375 2.234375 -2.234375q1.4375 -0.8125 3.234375 -0.8125q1.65625 0 2.953125 0.75q1.3125 0.734375 2.09375 2.171875q0.78125 1.421875 0.78125 3.484375q0 2.046875 -0.765625 3.484375q-0.765625 1.4375 -2.078125 2.203125q-1.296875 0.75 -2.984375 0.75zm0.125 -1.515625q1.34375 0 2.40625 -0.609375q1.0625 -0.609375 1.671875 -1.71875q0.625 -1.125 0.625 -2.59375q0 -1.484375 -0.625 -2.59375q-0.609375 -1.109375 -1.671875 -1.71875q-1.0625 -0.609375 -2.40625 -0.609375q-1.328125 0 -2.390625 0.609375q-1.046875 0.609375 -1.671875 1.71875q-0.625 1.109375 -0.625 2.59375q0 1.46875 0.625 2.59375q0.625 1.109375 1.671875 1.71875q1.0625 0.609375 2.390625 0.609375zm4.75 1.390625l0 -3.796875l0.171875 -2.546875l-0.25 -2.53125l0 -8.9375l1.703125 0l0 17.8125l-1.625 0zm12.669312 0l0 -12.59375l1.640625 0l0 3.40625l-0.265625 -0.609375q0.5625 -1.359375 1.84375 -2.140625q1.296875 -0.78125 3.046875 -0.78125q1.84375 0 3.140625 0.921875q1.296875 0.921875 1.6875 2.765625l-0.671875 -0.25q0.546875 -1.546875 1.953125 -2.484375q1.40625 -0.953125 3.375 -0.953125q1.53125 0 2.671875 0.59375q1.140625 0.578125 1.765625 1.78125q0.640625 1.203125 0.640625 3.03125l0 7.3125l-1.703125 0l0 -7.15625q0 -1.984375 -0.953125 -3.0q-0.9375 -1.03125 -2.671875 -1.03125q-1.296875 0 -2.25 0.546875q-0.9375 0.53125 -1.453125 1.5625q-0.515625 1.015625 -0.515625 2.453125l0 6.625l-1.703125 0l0 -7.15625q0 -1.984375 -0.96875 -3.0q-0.953125 -1.03125 -2.6875 -1.03125q-1.265625 0 -2.234375 0.546875q-0.953125 0.53125 -1.46875 1.5625q-0.515625 1.015625 -0.515625 2.453125l0 6.625l-1.703125 0zm30.604553 0.125q-1.828125 0 -3.28125 -0.828125q-1.453125 -0.828125 -2.296875 -2.28125q-0.828125 -1.453125 -0.828125 -3.328125q0 -1.890625 0.828125 -3.328125q0.84375 -1.453125 2.28125 -2.265625q1.4375 -0.8125 3.296875 -0.8125q1.875 0 3.3125 0.8125q1.453125 0.8125 2.28125 2.265625q0.828125 1.4375 0.828125 3.328125q0 1.875 -0.828125 3.328125q-0.828125 1.453125 -2.296875 2.28125q-1.453125 0.828125 -3.296875 0.828125zm0 -1.515625q1.359375 0 2.40625 -0.609375q1.0625 -0.609375 1.671875 -1.71875q0.625 -1.125 0.625 -2.59375q0 -1.484375 -0.625 -2.59375q-0.609375 -1.109375 -1.671875 -1.71875q-1.046875 -0.609375 -2.390625 -0.609375q-1.34375 0 -2.40625 0.609375q-1.046875 0.609375 -1.671875 1.71875q-0.625 1.109375 -0.625 2.59375q0 1.46875 0.625 2.59375q0.625 1.109375 1.671875 1.71875q1.0625 0.609375 2.390625 0.609375zm9.907318 1.390625l0 -12.59375l1.640625 0l0 3.421875l-0.171875 -0.59375q0.53125 -1.4375 1.765625 -2.1875q1.25 -0.765625 3.109375 -0.765625l0 1.65625q-0.109375 0 -0.203125 -0.015625q-0.09375 -0.015625 -0.1875 -0.015625q-1.984375 0 -3.125 1.21875q-1.125 1.21875 -1.125 3.4375l0 6.4375l-1.703125 0zm14.671356 0.125q-1.96875 0 -3.46875 -0.828125q-1.484375 -0.828125 -2.328125 -2.28125q-0.828125 -1.453125 -0.828125 -3.328125q0 -1.875 0.796875 -3.3125q0.8125 -1.4375 2.203125 -2.265625q1.40625 -0.828125 3.15625 -0.828125q1.78125 0 3.15625 0.8125q1.390625 0.796875 2.171875 2.25q0.796875 1.453125 0.796875 3.34375q0 0.125 -0.015625 0.265625q0 0.125 0 0.265625l-10.96875 0l0 -1.28125l10.046875 0l-0.671875 0.515625q0 -1.375 -0.59375 -2.4375q-0.578125 -1.078125 -1.59375 -1.671875q-1.0 -0.59375 -2.328125 -0.59375q-1.296875 0 -2.328125 0.59375q-1.03125 0.59375 -1.609375 1.6875q-0.5625 1.078125 -0.5625 2.46875l0 0.265625q0 1.4375 0.625 2.53125q0.640625 1.09375 1.78125 1.703125q1.140625 0.609375 2.609375 0.609375q1.140625 0 2.140625 -0.40625q1.0 -0.40625 1.71875 -1.25l0.953125 1.109375q-0.828125 1.0 -2.09375 1.53125q-1.265625 0.53125 -2.765625 0.53125zm9.308472 0q-0.53125 0 -0.90625 -0.375q-0.375 -0.390625 -0.375 -0.953125q0 -0.578125 0.375 -0.9375q0.375 -0.359375 0.90625 -0.359375q0.53125 0 0.890625 0.359375q0.375 0.359375 0.375 0.9375q0 0.5625 -0.375 0.953125q-0.359375 0.375 -0.890625 0.375zm5.203125 0q-0.53125 0 -0.90625 -0.375q-0.375 -0.390625 -0.375 -0.953125q0 -0.578125 0.375 -0.9375q0.375 -0.359375 0.90625 -0.359375q0.53125 0 0.890625 0.359375q0.375 0.359375 0.375 0.9375q0 0.5625 -0.375 0.953125q-0.359375 0.375 -0.890625 0.375zm5.234375 0q-0.53125 0 -0.90625 -0.375q-0.375 -0.390625 -0.375 -0.953125q0 -0.578125 0.375 -0.9375q0.375 -0.359375 0.90625 -0.359375q0.53125 0 0.890625 0.359375q0.375 0.359375 0.375 0.9375q0 0.5625 -0.375 0.953125q-0.359375 0.375 -0.890625 0.375z" fill-rule="nonzero"/><path fill="#000000" fill-opacity="0.0" d="m151.10498 44.076115l31.732285 0l0 448.0l31.732285 0" fill-rule="evenodd"/><path stroke="#595959" stroke-width="1.0" stroke-linejoin="round" stroke-linecap="butt" d="m151.10498 44.076115l31.732285 0l0 448.0l31.732285 0" fill-rule="evenodd"/></g></svg>