<svg version="1.1" viewBox="0.0 0.0 960.0 540.0" fill="none" stroke="none" stroke-linecap="square" stroke-miterlimit="10" xmlns:xlink="http://www.w3.org/1999/xlink" xmlns="http://www.w3.org/2000/svg"><clipPath id="g31a5ff0e54d_1_14.0"><path d="m0 0l960.0 0l0 540.0l-960.0 0l0 -540.0z" clip-rule="nonzero"/></clipPath><g clip-path="url(#g31a5ff0e54d_1_14.0)"><path fill="#ffffff" d="m0 0l960.0 0l0 540.0l-960.0 0z" fill-rule="evenodd"/><path fill="#ffffff" d="m159.82939 268.4252l202.20473 0l0 150.96063l-202.20473 0z" fill-rule="evenodd"/><path stroke="#980000" stroke-width="1.0" stroke-linejoin="round" stroke-linecap="butt" d="m159.82939 268.4252l202.20473 0l0 150.96063l-202.20473 0z" fill-rule="evenodd"/><path fill="#ffffff" d="m159.82939 146.58398l202.20473 0l0 105.98425l-202.20473 0z" fill-rule="evenodd"/><path stroke="#980000" stroke-width="1.0" stroke-linejoin="round" stroke-linecap="butt" d="m159.82939 146.58398l202.20473 0l0 105.98425l-202.20473 0z" fill-rule="evenodd"/><path fill="#ffffff" d="m177.5328 379.05786l0 0c0 -3.5688782 2.8931732 -6.4620667 6.4620667 -6.4620667l149.78452 0c1.7138672 0 3.3575134 0.68081665 4.569397 1.8927002c1.211853 1.2118835 1.8926697 2.8555298 1.8926697 4.5693665l0 25.847534c0 3.5688782 -2.893158 6.4620667 -6.4620667 6.4620667l-149.78452 0c-3.5688934 0 -6.4620667 -2.8931885 -6.4620667 -6.4620667z" fill-rule="evenodd"/><path stroke="#595959" stroke-width="1.0" stroke-linejoin="round" stroke-linecap="butt" d="m177.5328 379.05786l0 0c0 -3.5688782 2.8931732 -6.4620667 6.4620667 -6.4620667l149.78452 0c1.7138672 0 3.3575134 0.68081665 4.569397 1.8927002c1.211853 1.2118835 1.8926697 2.8555298 1.8926697 4.5693665l0 25.847534c0 3.5688782 -2.893158 6.4620667 -6.4620667 6.4620667l-149.78452 0c-3.5688934 0 -6.4620667 -2.8931885 -6.4620667 -6.4620667z" fill-rule="evenodd"/><path fill="#ffffff" d="m177.5328 331.05786l0 0c0 -3.5688782 2.8931732 -6.4620667 6.4620667 -6.4620667l149.78452 0c1.7138672 0 3.3575134 0.68081665 4.569397 1.8927002c1.211853 1.2118835 1.8926697 2.8555298 1.8926697 4.5693665l0 25.847534c0 3.5688782 -2.893158 6.4620667 -6.4620667 6.4620667l-149.78452 0c-3.5688934 0 -6.4620667 -2.8931885 -6.4620667 -6.4620667z" fill-rule="evenodd"/><path stroke="#595959" stroke-width="1.0" stroke-linejoin="round" stroke-linecap="butt" d="m177.5328 331.05786l0 0c0 -3.5688782 2.8931732 -6.4620667 6.4620667 -6.4620667l149.78452 0c1.7138672 0 3.3575134 0.68081665 4.569397 1.8927002c1.211853 1.2118835 1.8926697 2.8555298 1.8926697 4.5693665l0 25.847534c0 3.5688782 -2.893158 6.4620667 -6.4620667 6.4620667l-149.78452 0c-3.5688934 0 -6.4620667 -2.8931885 -6.4620667 -6.4620667z" fill-rule="evenodd"/><path fill="#ffffff" d="m177.5328 211.05788l0 0c0 -3.5689087 2.8931732 -6.462082 6.4620667 -6.462082l149.78452 0c1.7138672 0 3.3575134 0.6808319 4.569397 1.8927002c1.211853 1.2118835 1.8926697 2.8555298 1.8926697 4.5693817l0 25.847504c0 3.5689087 -2.893158 6.4620667 -6.4620667 6.4620667l-149.78452 0c-3.5688934 0 -6.4620667 -2.893158 -6.4620667 -6.4620667z" fill-rule="evenodd"/><path stroke="#595959" stroke-width="1.0" stroke-linejoin="round" stroke-linecap="butt" d="m177.5328 211.05788l0 0c0 -3.5689087 2.8931732 -6.462082 6.4620667 -6.462082l149.78452 0c1.7138672 0 3.3575134 0.6808319 4.569397 1.8927002c1.211853 1.2118835 1.8926697 2.8555298 1.8926697 4.5693817l0 25.847504c0 3.5689087 -2.893158 6.4620667 -6.4620667 6.4620667l-149.78452 0c-3.5688934 0 -6.4620667 -2.893158 -6.4620667 -6.4620667z" fill-rule="evenodd"/><path fill="#ffffff" d="m176.7664 443.8294l164.25197 0l0 38.771637l-164.25197 0z" fill-rule="evenodd"/><path stroke="#595959" stroke-width="1.0" stroke-linejoin="round" stroke-linecap="butt" d="m176.7664 443.8294l164.25197 0l0 38.771637l-164.25197 0z" fill-rule="evenodd"/><path fill="#ffffff" d="m176.7664 275.8294l164.25197 0l0 38.771637l-164.25197 0z" fill-rule="evenodd"/><path stroke="#595959" stroke-width="1.0" stroke-linejoin="round" stroke-linecap="butt" d="m176.7664 275.8294l164.25197 0l0 38.771637l-164.25197 0z" fill-rule="evenodd"/><path fill="#ffffff" d="m176.7664 155.82939l164.25197 0l0 38.771652l-164.25197 0z" fill-rule="evenodd"/><path stroke="#595959" stroke-width="1.0" stroke-linejoin="round" stroke-linecap="butt" d="m176.7664 155.82939l164.25197 0l0 38.771652l-164.25197 0z" fill-rule="evenodd"/><path fill="#ffffff" d="m176.7664 83.8294l164.25197 0l0 38.771652l-164.25197 0z" fill-rule="evenodd"/><path stroke="#595959" stroke-width="1.0" stroke-linejoin="round" stroke-linecap="butt" d="m176.7664 83.8294l164.25197 0l0 38.771652l-164.25197 0z" fill-rule="evenodd"/><path fill="#000000" fill-opacity="0.0" d="m4.6272964 3.7454069l189.19684 0l0 48.47244l-189.19684 0z" fill-rule="evenodd"/><path fill="#595959" d="m16.361671 35.785408l0 -16.796875l6.296875 0q2.125 0 3.65625 0.6875q1.546875 0.671875 2.375 1.96875q0.828125 1.28125 0.828125 3.09375q0 1.78125 -0.828125 3.0625q-0.828125 1.28125 -2.375 1.984375q-1.53125 0.703125 -3.65625 0.703125l-5.3125 0l0.796875 -0.84375l0 6.140625l-1.78125 0zm1.78125 -6.0l-0.796875 -0.859375l5.25 0q2.53125 0 3.828125 -1.09375q1.3125 -1.09375 1.3125 -3.09375q0 -2.015625 -1.3125 -3.109375q-1.296875 -1.109375 -3.828125 -1.109375l-5.25 0l0.796875 -0.84375l0 10.109375zm22.621948 6.0l0 -2.78125l-0.0625 -0.453125l0 -4.65625q0 -1.609375 -0.90625 -2.46875q-0.890625 -0.875 -2.671875 -0.875q-1.21875 0 -2.328125 0.40625q-1.109375 0.40625 -1.875 1.078125l-0.765625 -1.265625q0.953125 -0.8125 2.296875 -1.25q1.34375 -0.453125 2.84375 -0.453125q2.4375 0 3.765625 1.21875q1.34375 1.203125 1.34375 3.671875l0 7.828125l-1.640625 0zm-4.34375 0.125q-1.40625 0 -2.453125 -0.46875q-1.046875 -0.46875 -1.609375 -1.296875q-0.546875 -0.828125 -0.546875 -1.90625q0 -0.984375 0.46875 -1.78125q0.46875 -0.8125 1.53125 -1.296875q1.078125 -0.5 2.875 -0.5l4.34375 0l0 1.265625l-4.296875 0q-1.8125 0 -2.53125 0.65625q-0.703125 0.640625 -0.703125 1.609375q0 1.078125 0.84375 1.734375q0.84375 0.640625 2.34375 0.640625q1.4375 0 2.484375 -0.65625q1.046875 -0.671875 1.53125 -1.921875l0.375 1.1875q-0.46875 1.234375 -1.65625 1.984375q-1.1875 0.75 -3.0 0.75zm10.613083 -0.125l0 -12.59375l1.640625 0l0 3.421875l-0.171875 -0.59375q0.53125 -1.4375 1.765625 -2.1875q1.25 -0.765625 3.109375 -0.765625l0 1.65625q-0.109375 0 -0.203125 -0.015625q-0.09375 -0.015625 -0.1875 -0.015625q-1.984375 0 -3.125 1.21875q-1.125 1.21875 -1.125 3.4375l0 6.4375l-1.703125 0zm12.9665985 0.125q-1.5625 0 -2.953125 -0.4375q-1.390625 -0.453125 -2.1875 -1.125l0.765625 -1.34375q0.765625 0.578125 1.96875 1.0q1.203125 0.40625 2.515625 0.40625q1.8125 0 2.59375 -0.5625q0.796875 -0.5625 0.796875 -1.5q0 -0.6875 -0.453125 -1.078125q-0.4375 -0.40625 -1.15625 -0.609375q-0.71875 -0.203125 -1.609375 -0.34375q-0.890625 -0.140625 -1.765625 -0.328125q-0.875 -0.203125 -1.59375 -0.578125q-0.71875 -0.375 -1.171875 -1.015625q-0.4375 -0.65625 -0.4375 -1.734375q0 -1.03125 0.578125 -1.84375q0.578125 -0.8125 1.6875 -1.28125q1.125 -0.46875 2.734375 -0.46875q1.21875 0 2.4375 0.328125q1.234375 0.3125 2.015625 0.84375l-0.734375 1.375q-0.84375 -0.578125 -1.8125 -0.828125q-0.953125 -0.25 -1.90625 -0.25q-1.703125 0 -2.515625 0.59375q-0.796875 0.578125 -0.796875 1.484375q0 0.71875 0.4375 1.140625q0.4375 0.40625 1.171875 0.640625q0.734375 0.21875 1.609375 0.359375q0.875 0.140625 1.75 0.34375q0.875 0.203125 1.609375 0.5625q0.734375 0.34375 1.171875 0.984375q0.453125 0.625 0.453125 1.65625q0 1.109375 -0.609375 1.921875q-0.609375 0.796875 -1.78125 1.25q-1.15625 0.4375 -2.8125 0.4375zm8.321335 -0.125l0 -12.59375l1.703125 0l0 12.59375l-1.703125 0zm0.875 -15.390625q-0.53125 0 -0.890625 -0.359375q-0.359375 -0.359375 -0.359375 -0.859375q0 -0.5 0.359375 -0.84375q0.359375 -0.359375 0.890625 -0.359375q0.53125 0 0.890625 0.34375q0.359375 0.328125 0.359375 0.84375q0 0.515625 -0.359375 0.875q-0.34375 0.359375 -0.890625 0.359375zm5.5809784 15.390625l0 -12.59375l1.640625 0l0 3.453125l-0.265625 -0.65625q0.59375 -1.359375 1.90625 -2.140625q1.328125 -0.78125 3.15625 -0.78125q1.53125 0 2.6875 0.59375q1.171875 0.578125 1.828125 1.78125q0.65625 1.203125 0.65625 3.03125l0 7.3125l-1.703125 0l0 -7.15625q0 -1.984375 -1.0 -3.0q-0.984375 -1.03125 -2.78125 -1.03125q-1.34375 0 -2.34375 0.546875q-1.0 0.53125 -1.546875 1.5625q-0.53125 1.015625 -0.53125 2.453125l0 6.625l-1.703125 0zm21.598953 4.78125q-1.71875 0 -3.3125 -0.515625q-1.578125 -0.5 -2.5625 -1.4375l0.859375 -1.296875q0.890625 0.796875 2.1875 1.265625q1.3125 0.46875 2.78125 0.46875q2.40625 0 3.53125 -1.125q1.125 -1.109375 1.125 -3.453125l0 -3.15625l0.234375 -2.15625l-0.15625 -2.15625l0 -3.8125l1.625 0l0 11.0625q0 3.265625 -1.59375 4.78125q-1.59375 1.53125 -4.71875 1.53125zm-0.3125 -5.265625q-1.796875 0 -3.234375 -0.78125q-1.4375 -0.78125 -2.265625 -2.171875q-0.828125 -1.390625 -0.828125 -3.1875q0 -1.796875 0.828125 -3.171875q0.828125 -1.390625 2.265625 -2.15625q1.4375 -0.765625 3.234375 -0.765625q1.6875 0 3.03125 0.703125q1.34375 0.6875 2.125 2.0625q0.796875 1.359375 0.796875 3.328125q0 1.96875 -0.796875 3.34375q-0.78125 1.359375 -2.125 2.078125q-1.34375 0.71875 -3.03125 0.71875zm0.171875 -1.5q1.390625 0 2.46875 -0.59375q1.078125 -0.59375 1.703125 -1.625q0.625 -1.046875 0.625 -2.421875q0 -1.359375 -0.625 -2.390625q-0.625 -1.046875 -1.703125 -1.625q-1.078125 -0.59375 -2.46875 -0.59375q-1.375 0 -2.46875 0.59375q-1.078125 0.578125 -1.703125 1.625q-0.609375 1.03125 -0.609375 2.390625q0 1.375 0.609375 2.421875q0.625 1.03125 1.703125 1.625q1.09375 0.59375 2.46875 0.59375z" fill-rule="nonzero"/><path fill="#000000" fill-opacity="0.0" d="m2.727034 509.57742l284.9449 0l0 32.314972l-284.9449 0z" fill-rule="evenodd"/><path fill="#595959" d="m12.789535 528.81744l0 -7.90625l0.75 0l0 3.84375l-0.15625 -0.28125q0.265625 -0.609375 0.84375 -0.953125q0.59375 -0.34375 1.40625 -0.34375q0.68749905 0 1.203124 0.265625q0.515625 0.25 0.8125 0.78125q0.296875 0.53125 0.296875 1.34375l0 3.25l-0.765625 0l0 -3.171875q0 -0.890625 -0.4375 -1.34375q-0.4375 -0.453125 -1.249999 -0.453125q-0.59375 0 -1.03125 0.25q-0.4375 0.234375 -0.6875 0.6875q-0.234375 0.453125 -0.234375 1.09375l0 2.9375l-0.75 0zm8.969329 0.046875q-0.796875 0 -1.21875 -0.421875q-0.421875 -0.421875 -0.421875 -1.203125l0 -5.25l0.75 0l0 5.203125q0 0.5 0.25 0.765625q0.25 0.265625 0.71875 0.265625q0.5 0 0.828125 -0.296875l0.265625 0.546875q-0.21875 0.203125 -0.53125 0.296875q-0.3125 0.09375 -0.640625 0.09375zm-2.640625 -5.015625l0 -0.625l3.453125 0l0 0.625l-3.453125 0zm6.8177643 5.015625q-0.796875 0 -1.21875 -0.421875q-0.421875 -0.421875 -0.421875 -1.203125l0 -5.25l0.75 0l0 5.203125q0 0.5 0.25 0.765625q0.25 0.265625 0.71875 0.265625q0.5 0 0.828125 -0.296875l0.265625 0.546875q-0.21875 0.203125 -0.53125 0.296875q-0.3125 0.09375 -0.640625 0.09375zm-2.640625 -5.015625l0 -0.625l3.453125 0l0 0.625l-3.453125 0zm8.076477 5.015625q-0.71875 0 -1.3125 -0.328125q-0.578125 -0.34375 -0.921875 -0.96875q-0.34375 -0.640625 -0.34375 -1.546875q0 -0.921875 0.328125 -1.546875q0.34375 -0.640625 0.921875 -0.96875q0.59375 -0.328125 1.328125 -0.328125q0.7968769 0 1.4375019 0.359375q0.640625 0.34375 1.0 1.0q0.359375 0.640625 0.359375 1.484375q0 0.84375 -0.359375 1.484375q-0.359375 0.640625 -1.0 1.0q-0.640625 0.359375 -1.4375019 0.359375zm-2.875 2.015625l0 -7.65625l0.71875 0l0 1.6875l-0.078125 1.109375l0.109375 1.140625l0 3.71875l-0.75 0zm2.828125 -2.6875q0.59375 0 1.0625019 -0.265625q0.46875 -0.265625 0.75 -0.765625q0.28125 -0.5 0.28125 -1.140625q0 -0.65625 -0.28125 -1.140625q-0.28125 -0.5 -0.75 -0.765625q-0.4687519 -0.28125 -1.0625019 -0.28125q-0.59375 0 -1.078125 0.28125q-0.46875 0.265625 -0.75 0.765625q-0.265625 0.484375 -0.265625 1.140625q0 0.640625 0.265625 1.140625q0.28125 0.5 0.75 0.765625q0.484375 0.265625 1.078125 0.265625zm5.896883 0.671875q-0.703125 0 -1.328125 -0.1875q-0.609375 -0.203125 -0.953125 -0.5l0.34375 -0.59375q0.328125 0.25 0.859375 0.4375q0.546875 0.1875 1.125 0.1875q0.796875 0 1.140625 -0.25q0.359375 -0.25 0.359375 -0.671875q0 -0.296875 -0.203125 -0.46875q-0.1875 -0.1875 -0.515625 -0.265625q-0.3125 -0.09375 -0.703125 -0.15625q-0.390625 -0.078125 -0.78125 -0.15625q-0.390625 -0.09375 -0.71875 -0.25q-0.3125 -0.171875 -0.515625 -0.453125q-0.1875 -0.28125 -0.1875 -0.765625q0 -0.453125 0.25 -0.8125q0.25 -0.375 0.75 -0.578125q0.5 -0.203125 1.21875 -0.203125q0.53125 0 1.078125 0.140625q0.546875 0.140625 0.890625 0.375l-0.328125 0.609375q-0.375 -0.265625 -0.796875 -0.375q-0.421875 -0.109375 -0.84375 -0.109375q-0.765625 0 -1.125 0.265625q-0.359375 0.265625 -0.359375 0.65625q0 0.328125 0.203125 0.515625q0.203125 0.171875 0.515625 0.28125q0.328125 0.09375 0.71875 0.15625q0.390625 0.0625 0.78125 0.15625q0.390625 0.09375 0.703125 0.25q0.328125 0.15625 0.53125 0.4375q0.203125 0.28125 0.203125 0.734375q0 0.484375 -0.28125 0.84375q-0.265625 0.359375 -0.78125 0.5625q-0.515625 0.1875 -1.25 0.1875zm3.7628021 -4.546875q-0.234375 0 -0.40625 -0.15625q-0.15625 -0.171875 -0.15625 -0.421875q0 -0.25 0.15625 -0.40625q0.171875 -0.171875 0.40625 -0.171875q0.234375 0 0.390625 0.171875q0.171875 0.15625 0.171875 0.40625q0 0.25 -0.171875 0.421875q-0.15625 0.15625 -0.390625 0.15625zm0 4.546875q-0.234375 0 -0.40625 -0.15625q-0.15625 -0.171875 -0.15625 -0.421875q0 -0.25 0.15625 -0.40625q0.171875 -0.171875 0.40625 -0.171875q0.234375 0 0.390625 0.171875q0.171875 0.15625 0.171875 0.40625q0 0.25 -0.171875 0.421875q-0.15625 0.15625 -0.390625 0.15625zm1.348526 1.015625l3.515625 -10.03125l0.6875 0l-3.515625 10.03125l-0.6875 0zm2.8765564 0l3.515625 -10.03125l0.6875 0l-3.515625 10.03125l-0.6875 0zm6.5476837 -1.015625q-0.875 0 -1.546875 -0.359375q-0.65625 -0.375 -1.03125 -1.015625q-0.375 -0.640625 -0.375 -1.46875q0 -0.84375 0.359375 -1.46875q0.359375 -0.640625 0.984375 -1.0q0.625 -0.375 1.40625 -0.375q0.78125 0 1.390625 0.359375q0.625 0.34375 0.96875 1.0q0.359375 0.640625 0.359375 1.484375q0 0.046875 -0.015625 0.109375q0 0.0625 0 0.125l-4.875 0l0 -0.578125l4.46875 0l-0.296875 0.234375q0 -0.609375 -0.265625 -1.078125q-0.265625 -0.484375 -0.71875 -0.75q-0.4375 -0.265625 -1.015625 -0.265625q-0.578125 0 -1.046875 0.265625q-0.453125 0.265625 -0.71875 0.75q-0.25 0.484375 -0.25 1.09375l0 0.125q0 0.640625 0.28125 1.125q0.296875 0.484375 0.796875 0.75q0.5 0.265625 1.15625 0.265625q0.515625 0 0.953125 -0.171875q0.4375 -0.1875 0.765625 -0.5625l0.421875 0.5q-0.375 0.4375 -0.9375 0.671875q-0.546875 0.234375 -1.21875 0.234375zm4.061447 -0.046875l0 -5.59375l0.71875 0l0 1.53125l-0.125 -0.28125q0.265625 -0.609375 0.84375 -0.953125q0.59375 -0.34375 1.40625 -0.34375q0.6875 0 1.203125 0.265625q0.515625 0.25 0.8125 0.78125q0.296875 0.53125 0.296875 1.34375l0 3.25l-0.765625 0l0 -3.171875q0 -0.890625 -0.4375 -1.34375q-0.4375 -0.453125 -1.25 -0.453125q-0.59375 0 -1.03125 0.25q-0.4375 0.234375 -0.6875 0.6875q-0.234375 0.453125 -0.234375 1.09375l0 2.9375l-0.75 0zm7.266205 0.046875q-0.234375 0 -0.40625 -0.15625q-0.15625 -0.171875 -0.15625 -0.421875q0 -0.25 0.15625 -0.40625q0.171875 -0.171875 0.40625 -0.171875q0.234375 0 0.390625 0.171875q0.171875 0.15625 0.171875 0.40625q0 0.25 -0.171875 0.421875q-0.15625 0.15625 -0.390625 0.15625zm2.9589844 -0.046875l-2.109375 -5.59375l0.734375 0l1.921875 5.1875l-0.34375 0l1.984375 -5.1875l0.640625 0l1.953125 5.1875l-0.328125 0l1.953125 -5.1875l0.6875 0l-2.125 5.59375l-0.703125 0l-1.875 -4.875l0.21875 0l-1.890625 4.875l-0.71875 0zm8.241943 0l0 -5.59375l0.75 0l0 5.59375l-0.75 0zm0.375 -6.828125q-0.234375 0 -0.40625 -0.15625q-0.15625 -0.171875 -0.15625 -0.390625q0 -0.21875 0.15625 -0.375q0.171875 -0.15625 0.40625 -0.15625q0.234375 0 0.390625 0.15625q0.15625 0.140625 0.15625 0.359375q0 0.234375 -0.15625 0.40625q-0.15625 0.15625 -0.390625 0.15625zm3.085312 5.375l0.015625 -0.96875l3.484375 -3.171875l0.921875 0l-2.453125 2.359375l-0.421875 0.359375l-1.546875 1.421875zm-0.59375 1.453125l0 -7.90625l0.75 0l0 7.90625l-0.75 0zm4.328125 0l-2.328125 -2.90625l0.484375 -0.59375l2.765625 3.5l-0.921875 0zm2.0443726 0l0 -5.59375l0.75 0l0 5.59375l-0.75 0zm0.375 -6.828125q-0.234375 0 -0.40625 -0.15625q-0.15625 -0.171875 -0.15625 -0.390625q0 -0.21875 0.15625 -0.375q0.171875 -0.15625 0.40625 -0.15625q0.234375 0 0.390625 0.15625q0.15625 0.140625 0.15625 0.359375q0 0.234375 -0.15625 0.40625q-0.15625 0.15625 -0.390625 0.15625zm5.366562 6.875q-0.71875 0 -1.3125 -0.328125q-0.578125 -0.34375 -0.921875 -0.96875q-0.34375 -0.640625 -0.34375 -1.546875q0 -0.921875 0.328125 -1.546875q0.34375 -0.640625 0.921875 -0.96875q0.59375 -0.328125 1.328125 -0.328125q0.796875 0 1.4375 0.359375q0.640625 0.34375 1.0 1.0q0.359375 0.640625 0.359375 1.484375q0 0.84375 -0.359375 1.484375q-0.359375 0.640625 -1.0 1.0q-0.640625 0.359375 -1.4375 0.359375zm-2.875 2.015625l0 -7.65625l0.71875 0l0 1.6875l-0.078125 1.109375l0.109375 1.140625l0 3.71875l-0.75 0zm2.828125 -2.6875q0.59375 0 1.0625 -0.265625q0.46875 -0.265625 0.75 -0.765625q0.28125 -0.5 0.28125 -1.140625q0 -0.65625 -0.28125 -1.140625q-0.28125 -0.5 -0.75 -0.765625q-0.46875 -0.28125 -1.0625 -0.28125q-0.59375 0 -1.078125 0.28125q-0.46875 0.265625 -0.75 0.765625q-0.265625 0.484375 -0.265625 1.140625q0 0.640625 0.265625 1.140625q0.28125 0.5 0.75 0.765625q0.484375 0.265625 1.078125 0.265625zm6.771881 0.671875q-0.875 0 -1.546875 -0.359375q-0.65625 -0.375 -1.03125 -1.015625q-0.375 -0.640625 -0.375 -1.46875q0 -0.84375 0.359375 -1.46875q0.359375 -0.640625 0.984375 -1.0q0.625 -0.375 1.40625 -0.375q0.78125 0 1.390625 0.359375q0.625 0.34375 0.96875 1.0q0.359375 0.640625 0.359375 1.484375q0 0.046875 -0.015625 0.109375q0 0.0625 0 0.125l-4.875 0l0 -0.578125l4.46875 0l-0.296875 0.234375q0 -0.609375 -0.265625 -1.078125q-0.265625 -0.484375 -0.71875 -0.75q-0.4375 -0.265625 -1.015625 -0.265625q-0.578125 0 -1.046875 0.265625q-0.453125 0.265625 -0.71875 0.75q-0.25 0.484375 -0.25 1.09375l0 0.125q0 0.640625 0.28125 1.125q0.296875 0.484375 0.796875 0.75q0.5 0.265625 1.15625 0.265625q0.515625 0 0.953125 -0.171875q0.4375 -0.1875 0.765625 -0.5625l0.421875 0.5q-0.375 0.4375 -0.9375 0.671875q-0.546875 0.234375 -1.21875 0.234375zm6.280197 0q-0.796875 0 -1.4375 -0.359375q-0.625 -0.359375 -1.0 -1.0q-0.359375 -0.640625 -0.359375 -1.484375q0 -0.859375 0.359375 -1.5q0.375 -0.640625 1.0 -0.984375q0.640625 -0.359375 1.4375 -0.359375q0.734375 0 1.3125 0.328125q0.578125 0.328125 0.921875 0.96875q0.359375 0.625 0.359375 1.546875q0 0.90625 -0.34375 1.546875q-0.34375 0.625 -0.921875 0.96875q-0.578125 0.328125 -1.328125 0.328125zm0.046875 -0.671875q0.609375 0 1.078125 -0.265625q0.46875 -0.265625 0.734375 -0.765625q0.28125 -0.5 0.28125 -1.140625q0 -0.671875 -0.28125 -1.15625q-0.265625 -0.484375 -0.734375 -0.75q-0.46875 -0.28125 -1.078125 -0.28125q-0.578125 0 -1.046875 0.28125q-0.46875 0.265625 -0.75 0.75q-0.28125 0.484375 -0.28125 1.15625q0 0.640625 0.28125 1.140625q0.28125 0.5 0.75 0.765625q0.46875 0.265625 1.046875 0.265625zm2.125 0.625l0 -1.6875l0.0625 -1.125l-0.109375 -1.125l0 -3.96875l0.765625 0l0 7.90625l-0.71875 0zm2.834381 0l0 -5.59375l0.75 0l0 5.59375l-0.75 0zm0.375 -6.828125q-0.234375 0 -0.40625 -0.15625q-0.15625 -0.171875 -0.15625 -0.390625q0 -0.21875 0.15625 -0.375q0.171875 -0.15625 0.40625 -0.15625q0.234375 0 0.390625 0.15625q0.15625 0.140625 0.15625 0.359375q0 0.234375 -0.15625 0.40625q-0.15625 0.15625 -0.390625 0.15625zm5.991562 6.828125l0 -1.234375l-0.03125 -0.203125l0 -2.0625q0 -0.71875 -0.40625 -1.09375q-0.390625 -0.390625 -1.1875 -0.390625q-0.546875 0 -1.03125 0.1875q-0.484375 0.171875 -0.828125 0.46875l-0.34375 -0.5625q0.421875 -0.359375 1.015625 -0.546875q0.609375 -0.203125 1.265625 -0.203125q1.09375 0 1.671875 0.53125q0.59375 0.53125 0.59375 1.640625l0 3.46875l-0.71875 0zm-1.9375 0.046875q-0.625 0 -1.09375 -0.203125q-0.453125 -0.203125 -0.703125 -0.5625q-0.234375 -0.375 -0.234375 -0.859375q0 -0.4375 0.203125 -0.796875q0.203125 -0.359375 0.671875 -0.578125q0.484375 -0.21875 1.28125 -0.21875l1.921875 0l0 0.578125l-1.90625 0q-0.8125 0 -1.125 0.28125q-0.3125 0.28125 -0.3125 0.71875q0 0.46875 0.375 0.765625q0.375 0.28125 1.046875 0.28125q0.640625 0 1.09375 -0.28125q0.46875 -0.296875 0.6875 -0.859375l0.171875 0.53125q-0.21875 0.546875 -0.75 0.875q-0.515625 0.328125 -1.328125 0.328125zm4.7872467 0q-0.234375 0 -0.40625 -0.15625q-0.15625 -0.171875 -0.15625 -0.421875q0 -0.25 0.15625 -0.40625q0.171875 -0.171875 0.40625 -0.171875q0.234375 0 0.390625 0.171875q0.171875 0.15625 0.171875 0.40625q0 0.25 -0.171875 0.421875q-0.15625 0.15625 -0.390625 0.15625zm4.3022766 0q-0.796875 0 -1.453125 -0.359375q-0.640625 -0.375 -1.015625 -1.015625q-0.375 -0.640625 -0.375 -1.46875q0 -0.84375 0.375 -1.484375q0.375 -0.640625 1.015625 -1.0q0.640625 -0.359375 1.453125 -0.359375q0.84375 0 1.484375 0.359375q0.640625 0.359375 1.0 1.0q0.375 0.640625 0.375 1.484375q0 0.828125 -0.375 1.46875q-0.359375 0.640625 -1.015625 1.015625q-0.640625 0.359375 -1.46875 0.359375zm0 -0.671875q0.609375 0 1.078125 -0.265625q0.46875 -0.265625 0.734375 -0.765625q0.28125 -0.5 0.28125 -1.140625q0 -0.671875 -0.28125 -1.15625q-0.265625 -0.484375 -0.734375 -0.75q-0.46875 -0.28125 -1.0625 -0.28125q-0.59375 0 -1.0625 0.28125q-0.46875 0.265625 -0.75 0.75q-0.28125 0.484375 -0.28125 1.15625q0 0.640625 0.28125 1.140625q0.28125 0.5 0.75 0.765625q0.46875 0.265625 1.046875 0.265625zm4.415909 0.625l0 -5.59375l0.71875 0l0 1.515625l-0.078125 -0.265625q0.234375 -0.625 0.78125 -0.953125q0.5625 -0.34375 1.390625 -0.34375l0 0.734375q-0.046875 0 -0.09375 0q-0.046875 -0.015625 -0.078125 -0.015625q-0.890625 0 -1.390625 0.546875q-0.5 0.53125 -0.5 1.515625l0 2.859375l-0.75 0zm6.5095215 2.125q-0.765625 0 -1.46875 -0.234375q-0.703125 -0.21875 -1.140625 -0.640625l0.390625 -0.5625q0.390625 0.34375 0.96875 0.546875q0.578125 0.21875 1.234375 0.21875q1.0625 0 1.5625 -0.5q0.5 -0.5 0.5 -1.546875l0 -1.390625l0.109375 -0.953125l-0.078125 -0.96875l0 -1.6875l0.734375 0l0 4.90625q0 1.453125 -0.71875 2.125q-0.703125 0.6875 -2.09375 0.6875zm-0.140625 -2.34375q-0.796875 0 -1.4375 -0.34375q-0.640625 -0.34375 -1.015625 -0.953125q-0.359375 -0.625 -0.359375 -1.421875q0 -0.796875 0.359375 -1.40625q0.375 -0.625 1.015625 -0.953125q0.640625 -0.34375 1.4375 -0.34375q0.75 0 1.34375 0.3125q0.609375 0.296875 0.953125 0.90625q0.359375 0.609375 0.359375 1.484375q0 0.875 -0.359375 1.484375q-0.34375 0.59375 -0.953125 0.921875q-0.59375 0.3125 -1.34375 0.3125zm0.078125 -0.671875q0.625 0 1.09375 -0.25q0.484375 -0.265625 0.765625 -0.71875q0.28125 -0.46875 0.28125 -1.078125q0 -0.609375 -0.28125 -1.0625q-0.28125 -0.46875 -0.765625 -0.71875q-0.46875 -0.265625 -1.09375 -0.265625q-0.609375 0 -1.09375 0.265625q-0.484375 0.25 -0.765625 0.71875q-0.265625 0.453125 -0.265625 1.0625q0 0.609375 0.265625 1.078125q0.28125 0.453125 0.765625 0.71875q0.484375 0.25 1.09375 0.25zm3.6589813 1.953125l3.515625 -10.03125l0.6875 0l-3.515625 10.03125l-0.6875 0zm5.703018 -1.0625l-2.109375 -5.59375l0.734375 0l1.921875 5.1875l-0.34375 0l1.984375 -5.1875l0.640625 0l1.953125 5.1875l-0.328125 0l1.953125 -5.1875l0.6875 0l-2.125 5.59375l-0.703125 0l-1.875 -4.875l0.21875 0l-1.890625 4.875l-0.71875 0zm8.241943 0l0 -5.59375l0.75 0l0 5.59375l-0.75 0zm0.375 -6.828125q-0.234375 0 -0.40625 -0.15625q-0.15625 -0.171875 -0.15625 -0.390625q0 -0.21875 0.15625 -0.375q0.171875 -0.15625 0.40625 -0.15625q0.234375 0 0.390625 0.15625q0.15625 0.140625 0.15625 0.359375q0 0.234375 -0.15625 0.40625q-0.15625 0.15625 -0.390625 0.15625zm3.085312 5.375l0.015625 -0.96875l3.484375 -3.171875l0.921875 0l-2.453125 2.359375l-0.421875 0.359375l-1.546875 1.421875zm-0.59375 1.453125l0 -7.90625l0.75 0l0 7.90625l-0.75 0zm4.328125 0l-2.328125 -2.90625l0.484375 -0.59375l2.765625 3.5l-0.921875 0zm2.0443726 0l0 -5.59375l0.75 0l0 5.59375l-0.75 0zm0.375 -6.828125q-0.234375 0 -0.40625 -0.15625q-0.15625 -0.171875 -0.15625 -0.390625q0 -0.21875 0.15625 -0.375q0.171875 -0.15625 0.40625 -0.15625q0.234375 0 0.390625 0.15625q0.15625 0.140625 0.15625 0.359375q0 0.234375 -0.15625 0.40625q-0.15625 0.15625 -0.390625 0.15625zm1.1634369 7.890625l3.515625 -10.03125l0.6875 0l-3.515625 10.03125l-0.6875 0zm5.0542603 -1.0625l0 -7.453125l2.78125 0q0.953125 0 1.625 0.296875q0.6875 0.296875 1.046875 0.875q0.375 0.5625 0.375 1.375q0 0.796875 -0.375 1.375q-0.359375 0.5625 -1.046875 0.875q-0.671875 0.296875 -1.625 0.296875l-2.34375 0l0.34375 -0.375l0 2.734375l-0.78125 0zm0.78125 -2.671875l-0.34375 -0.375l2.328125 0q1.125 0 1.703125 -0.484375q0.578125 -0.484375 0.578125 -1.375q0 -0.890625 -0.578125 -1.375q-0.578125 -0.5 -1.703125 -0.5l-2.328125 0l0.34375 -0.375l0 4.484375zm10.053757 2.671875l0 -1.234375l-0.03125 -0.203125l0 -2.0625q0 -0.71875 -0.40625 -1.09375q-0.390625 -0.390625 -1.1875 -0.390625q-0.546875 0 -1.03125 0.1875q-0.484375 0.171875 -0.828125 0.46875l-0.34375 -0.5625q0.421875 -0.359375 1.015625 -0.546875q0.609375 -0.203125 1.265625 -0.203125q1.09375 0 1.671875 0.53125q0.59375 0.53125 0.59375 1.640625l0 3.46875l-0.71875 0zm-1.9375 0.046875q-0.625 0 -1.09375 -0.203125q-0.453125 -0.203125 -0.703125 -0.5625q-0.234375 -0.375 -0.234375 -0.859375q0 -0.4375 0.203125 -0.796875q0.203125 -0.359375 0.671875 -0.578125q0.484375 -0.21875 1.28125 -0.21875l1.921875 0l0 0.578125l-1.90625 0q-0.8125 0 -1.125 0.28125q-0.3125 0.28125 -0.3125 0.71875q0 0.46875 0.375 0.765625q0.375 0.28125 1.046875 0.28125q0.640625 0 1.09375 -0.28125q0.46875 -0.296875 0.6875 -0.859375l0.171875 0.53125q-0.21875 0.546875 -0.75 0.875q-0.515625 0.328125 -1.328125 0.328125zm4.7247467 -0.046875l0 -5.59375l0.71875 0l0 1.515625l-0.078125 -0.265625q0.234375 -0.625 0.78125 -0.953125q0.5625 -0.34375 1.390625 -0.34375l0 0.734375q-0.046875 0 -0.09375 0q-0.046875 -0.015625 -0.078125 -0.015625q-0.890625 0 -1.390625 0.546875q-0.5 0.53125 -0.5 1.515625l0 2.859375l-0.75 0zm5.7518616 0.046875q-0.703125 0 -1.328125 -0.1875q-0.609375 -0.203125 -0.953125 -0.5l0.34375 -0.59375q0.328125 0.25 0.859375 0.4375q0.546875 0.1875 1.125 0.1875q0.796875 0 1.140625 -0.25q0.359375 -0.25 0.359375 -0.671875q0 -0.296875 -0.203125 -0.46875q-0.1875 -0.1875 -0.515625 -0.265625q-0.3125 -0.09375 -0.703125 -0.15625q-0.390625 -0.078125 -0.78125 -0.15625q-0.390625 -0.09375 -0.71875 -0.25q-0.3125 -0.171875 -0.515625 -0.453125q-0.1875 -0.28125 -0.1875 -0.765625q0 -0.453125 0.25 -0.8125q0.25 -0.375 0.75 -0.578125q0.5 -0.203125 1.21875 -0.203125q0.53125 0 1.078125 0.140625q0.546875 0.140625 0.890625 0.375l-0.328125 0.609375q-0.375 -0.265625 -0.796875 -0.375q-0.421875 -0.109375 -0.84375 -0.109375q-0.765625 0 -1.125 0.265625q-0.359375 0.265625 -0.359375 0.65625q0 0.328125 0.203125 0.515625q0.203125 0.171875 0.515625 0.28125q0.328125 0.09375 0.71875 0.15625q0.390625 0.0625 0.78125 0.15625q0.390625 0.09375 0.703125 0.25q0.328125 0.15625 0.53125 0.4375q0.203125 0.28125 0.203125 0.734375q0 0.484375 -0.28125 0.84375q-0.265625 0.359375 -0.78125 0.5625q-0.515625 0.1875 -1.25 0.1875zm3.7003021 -0.046875l0 -5.59375l0.75 0l0 5.59375l-0.75 0zm0.375 -6.828125q-0.234375 0 -0.40625 -0.15625q-0.15625 -0.171875 -0.15625 -0.390625q0 -0.21875 0.15625 -0.375q0.171875 -0.15625 0.40625 -0.15625q0.234375 0 0.390625 0.15625q0.15625 0.140625 0.15625 0.359375q0 0.234375 -0.15625 0.40625q-0.15625 0.15625 -0.390625 0.15625zm2.491562 6.828125l0 -5.59375l0.71875 0l0 1.53125l-0.125 -0.28125q0.265625 -0.609375 0.84375 -0.953125q0.59375 -0.34375 1.40625 -0.34375q0.6875 0 1.203125 0.265625q0.515625 0.25 0.8125 0.78125q0.296875 0.53125 0.296875 1.34375l0 3.25l-0.765625 0l0 -3.171875q0 -0.890625 -0.4375 -1.34375q-0.4375 -0.453125 -1.25 -0.453125q-0.59375 0 -1.03125 0.25q-0.4375 0.234375 -0.6875 0.6875q-0.234375 0.453125 -0.234375 1.09375l0 2.9375l-0.75 0zm9.578705 2.125q-0.765625 0 -1.46875 -0.234375q-0.703125 -0.21875 -1.140625 -0.640625l0.390625 -0.5625q0.390625 0.34375 0.96875 0.546875q0.578125 0.21875 1.234375 0.21875q1.0625 0 1.5625 -0.5q0.5 -0.5 0.5 -1.546875l0 -1.390625l0.109375 -0.953125l-0.078125 -0.96875l0 -1.6875l0.734375 0l0 4.90625q0 1.453125 -0.71875 2.125q-0.703125 0.6875 -2.09375 0.6875zm-0.140625 -2.34375q-0.796875 0 -1.4375 -0.34375q-0.640625 -0.34375 -1.015625 -0.953125q-0.359375 -0.625 -0.359375 -1.421875q0 -0.796875 0.359375 -1.40625q0.375 -0.625 1.015625 -0.953125q0.640625 -0.34375 1.4375 -0.34375q0.75 0 1.34375 0.3125q0.609375 0.296875 0.953125 0.90625q0.359375 0.609375 0.359375 1.484375q0 0.875 -0.359375 1.484375q-0.34375 0.59375 -0.953125 0.921875q-0.59375 0.3125 -1.34375 0.3125zm0.078125 -0.671875q0.625 0 1.09375 -0.25q0.484375 -0.265625 0.765625 -0.71875q0.28125 -0.46875 0.28125 -1.078125q0 -0.609375 -0.28125 -1.0625q-0.28125 -0.46875 -0.765625 -0.71875q-0.46875 -0.265625 -1.09375 -0.265625q-0.609375 0 -1.09375 0.265625q-0.484375 0.25 -0.765625 0.71875q-0.265625 0.453125 -0.265625 1.0625q0 0.609375 0.265625 1.078125q0.28125 0.453125 0.765625 0.71875q0.484375 0.25 1.09375 0.25zm5.5027313 0.890625l0.921875 -7.453125l0.578125 0l-0.921875 7.453125l-0.578125 0zm-1.265625 -2.03125l0 -0.578125l6.4375 0l0 0.578125l-6.4375 0zm4.03125 2.03125l0.921875 -7.453125l0.578125 0l-0.921875 7.453125l-0.578125 0zm-3.6875 -4.84375l0 -0.59375l6.4375 0l0 0.59375l-6.4375 0zm7.9793243 4.84375l0 -7.453125l2.78125 0q0.953125 0 1.625 0.296875q0.6875 0.296875 1.046875 0.875q0.375 0.5625 0.375 1.375q0 0.796875 -0.375 1.375q-0.359375 0.5625 -1.046875 0.875q-0.671875 0.296875 -1.625 0.296875l-2.34375 0l0.34375 -0.375l0 2.734375l-0.78125 0zm0.78125 -2.671875l-0.34375 -0.375l2.328125 0q1.125 0 1.703125 -0.484375q0.578125 -0.484375 0.578125 -1.375q0 -0.890625 -0.578125 -1.375q-0.578125 -0.5 -1.703125 -0.5l-2.328125 0l0.34375 -0.375l0 4.484375zm10.053757 2.671875l0 -1.234375l-0.03125 -0.203125l0 -2.0625q0 -0.71875 -0.40625 -1.09375q-0.390625 -0.390625 -1.1875 -0.390625q-0.546875 0 -1.03125 0.1875q-0.484375 0.171875 -0.828125 0.46875l-0.34375 -0.5625q0.421875 -0.359375 1.015625 -0.546875q0.609375 -0.203125 1.265625 -0.203125q1.09375 0 1.671875 0.53125q0.59375 0.53125 0.59375 1.640625l0 3.46875l-0.71875 0zm-1.9375 0.046875q-0.625 0 -1.09375 -0.203125q-0.453125 -0.203125 -0.703125 -0.5625q-0.234375 -0.375 -0.234375 -0.859375q0 -0.4375 0.203125 -0.796875q0.203125 -0.359375 0.671875 -0.578125q0.484375 -0.21875 1.28125 -0.21875l1.921875 0l0 0.578125l-1.90625 0q-0.8125 0 -1.125 0.28125q-0.3125 0.28125 -0.3125 0.71875q0 0.46875 0.375 0.765625q0.375 0.28125 1.046875 0.28125q0.640625 0 1.09375 -0.28125q0.46875 -0.296875 0.6875 -0.859375l0.171875 0.53125q-0.21875 0.546875 -0.75 0.875q-0.515625 0.328125 -1.328125 0.328125zm4.7247467 -0.046875l0 -5.59375l0.71875 0l0 1.515625l-0.078125 -0.265625q0.234375 -0.625 0.78125 -0.953125q0.5625 -0.34375 1.390625 -0.34375l0 0.734375q-0.046875 0 -0.09375 0q-0.046875 -0.015625 -0.078125 -0.015625q-0.890625 0 -1.390625 0.546875q-0.5 0.53125 -0.5 1.515625l0 2.859375l-0.75 0zm5.7518616 0.046875q-0.703125 0 -1.328125 -0.1875q-0.609375 -0.203125 -0.953125 -0.5l0.34375 -0.59375q0.328125 0.25 0.859375 0.4375q0.546875 0.1875 1.125 0.1875q0.796875 0 1.140625 -0.25q0.359375 -0.25 0.359375 -0.671875q0 -0.296875 -0.203125 -0.46875q-0.1875 -0.1875 -0.515625 -0.265625q-0.3125 -0.09375 -0.703125 -0.15625q-0.390625 -0.078125 -0.78125 -0.15625q-0.390625 -0.09375 -0.71875 -0.25q-0.3125 -0.171875 -0.515625 -0.453125q-0.1875 -0.28125 -0.1875 -0.765625q0 -0.453125 0.25 -0.8125q0.25 -0.375 0.75 -0.578125q0.5 -0.203125 1.21875 -0.203125q0.53125 0 1.078125 0.140625q0.546875 0.140625 0.890625 0.375l-0.328125 0.609375q-0.375 -0.265625 -0.796875 -0.375q-0.421875 -0.109375 -0.84375 -0.109375q-0.765625 0 -1.125 0.265625q-0.359375 0.265625 -0.359375 0.65625q0 0.328125 0.203125 0.515625q0.203125 0.171875 0.515625 0.28125q0.328125 0.09375 0.71875 0.15625q0.390625 0.0625 0.78125 0.15625q0.390625 0.09375 0.703125 0.25q0.328125 0.15625 0.53125 0.4375q0.203125 0.28125 0.203125 0.734375q0 0.484375 -0.28125 0.84375q-0.265625 0.359375 -0.78125 0.5625q-0.515625 0.1875 -1.25 0.1875zm6.075302 0q-0.875 0 -1.546875 -0.359375q-0.65625 -0.375 -1.03125 -1.015625q-0.375 -0.640625 -0.375 -1.46875q0 -0.84375 0.359375 -1.46875q0.359375 -0.640625 0.984375 -1.0q0.625 -0.375 1.40625 -0.375q0.78125 0 1.390625 0.359375q0.625 0.34375 0.96875 1.0q0.359375 0.640625 0.359375 1.484375q0 0.046875 -0.015625 0.109375q0 0.0625 0 0.125l-4.875 0l0 -0.578125l4.46875 0l-0.296875 0.234375q0 -0.609375 -0.265625 -1.078125q-0.265625 -0.484375 -0.71875 -0.75q-0.4375 -0.265625 -1.015625 -0.265625q-0.578125 0 -1.046875 0.265625q-0.453125 0.265625 -0.71875 0.75q-0.25 0.484375 -0.25 1.09375l0 0.125q0 0.640625 0.28125 1.125q0.296875 0.484375 0.796875 0.75q0.5 0.265625 1.15625 0.265625q0.515625 0 0.953125 -0.171875q0.4375 -0.1875 0.765625 -0.5625l0.421875 0.5q-0.375 0.4375 -0.9375 0.671875q-0.546875 0.234375 -1.21875 0.234375zm4.061447 -0.046875l0 -5.59375l0.71875 0l0 1.515625l-0.078125 -0.265625q0.234375 -0.625 0.78125 -0.953125q0.5625 -0.34375 1.390625 -0.34375l0 0.734375q-0.046875 0 -0.09375 0q-0.046875 -0.015625 -0.078125 -0.015625q-0.890625 0 -1.390625 0.546875q-0.5 0.53125 -0.5 1.515625l0 2.859375l-0.75 0z" fill-rule="nonzero"/><path fill="#000000" fill-opacity="0.0" d="m176.0 83.8294l164.25198 0l0 38.771652l-164.25198 0z" fill-rule="evenodd"/><path fill="#595959" d="m238.68018 108.28315q-1.25 0 -2.390625 -0.40625q-1.140625 -0.40625 -1.765625 -1.046875l0.46875 -0.90625q0.59375 0.5625 1.59375 0.96875q1.0 0.390625 2.09375 0.390625q1.0625 0 1.71875 -0.265625q0.671875 -0.265625 0.984375 -0.71875q0.3125 -0.453125 0.3125 -0.984375q0 -0.65625 -0.375 -1.0625q-0.375 -0.40625 -0.984375 -0.625q-0.609375 -0.234375 -1.34375 -0.40625q-0.734375 -0.1875 -1.46875 -0.375q-0.734375 -0.203125 -1.359375 -0.53125q-0.609375 -0.34375 -0.984375 -0.890625q-0.375 -0.5625 -0.375 -1.453125q0 -0.84375 0.4375 -1.53125q0.4375 -0.703125 1.34375 -1.125q0.921875 -0.421875 2.34375 -0.421875q0.9375 0 1.859375 0.265625q0.9375 0.265625 1.609375 0.734375l-0.40625 0.9375q-0.71875 -0.484375 -1.53125 -0.703125q-0.796875 -0.21875 -1.546875 -0.21875q-1.015625 0 -1.671875 0.265625q-0.65625 0.265625 -0.96875 0.734375q-0.3125 0.453125 -0.3125 1.03125q0 0.65625 0.375 1.0625q0.375 0.390625 0.984375 0.609375q0.625 0.21875 1.359375 0.40625q0.734375 0.171875 1.46875 0.390625q0.734375 0.203125 1.34375 0.53125q0.625 0.328125 1.0 0.875q0.375 0.53125 0.375 1.421875q0 0.8125 -0.453125 1.515625q-0.453125 0.6875 -1.375 1.109375q-0.90625 0.421875 -2.359375 0.421875zm9.168152 -0.015625q-1.171875 0 -1.8125 -0.640625q-0.640625 -0.640625 -0.640625 -1.8125l0 -7.875l1.125 0l0 7.8125q0 0.734375 0.375 1.140625q0.375 0.40625 1.09375 0.40625q0.75 0 1.234375 -0.4375l0.40625 0.8125q-0.328125 0.3125 -0.8125 0.453125q-0.46875 0.140625 -0.96875 0.140625zm-3.96875 -7.53125l0 -0.953125l5.203125 0l0 0.953125l-5.203125 0zm7.8085175 7.453125l0 -8.40625l1.09375 0l0 2.296875l-0.109375 -0.40625q0.34375 -0.953125 1.171875 -1.453125q0.84375 -0.515625 2.078125 -0.515625l0 1.109375q-0.0625 0 -0.140625 0q-0.0625 -0.015625 -0.125 -0.015625q-1.328125 0 -2.078125 0.8125q-0.75 0.796875 -0.75 2.296875l0 4.28125l-1.140625 0zm6.2880096 0l0 -8.40625l1.140625 0l0 8.40625l-1.140625 0zm0.578125 -10.25q-0.34375 0 -0.59375 -0.234375q-0.234375 -0.25 -0.234375 -0.59375q0 -0.328125 0.234375 -0.5625q0.25 -0.234375 0.59375 -0.234375q0.359375 0 0.59375 0.234375q0.234375 0.21875 0.234375 0.546875q0 0.359375 -0.234375 0.609375q-0.21875 0.234375 -0.59375 0.234375zm3.725891 10.25l0 -8.40625l1.09375 0l0 2.3125l-0.171875 -0.4375q0.390625 -0.90625 1.265625 -1.421875q0.890625 -0.53125 2.109375 -0.53125q1.015625 0 1.796875 0.390625q0.78125 0.390625 1.21875 1.203125q0.4375 0.796875 0.4375 2.015625l0 4.875l-1.140625 0l0 -4.765625q0 -1.328125 -0.671875 -2.0q-0.65625 -0.6875 -1.859375 -0.6875q-0.890625 0 -1.5625 0.359375q-0.65625 0.359375 -1.015625 1.046875q-0.359375 0.671875 -0.359375 1.625l0 4.421875l-1.140625 0zm14.4097595 3.1875q-1.15625 0 -2.21875 -0.34375q-1.046875 -0.328125 -1.703125 -0.953125l0.578125 -0.859375q0.59375 0.515625 1.453125 0.828125q0.875 0.3125 1.859375 0.3125q1.59375 0 2.34375 -0.75q0.75 -0.734375 0.75 -2.296875l0 -2.09375l0.171875 -1.453125l-0.125 -1.4375l0 -2.546875l1.09375 0l0 7.375q0 2.1875 -1.0625 3.203125q-1.0625 1.015625 -3.140625 1.015625zm-0.21875 -3.5q-1.1875 0 -2.15625 -0.515625q-0.953125 -0.53125 -1.515625 -1.453125q-0.546875 -0.9375 -0.546875 -2.140625q0 -1.1875 0.546875 -2.109375q0.5625 -0.921875 1.515625 -1.4375q0.96875 -0.515625 2.15625 -0.515625q1.125 0 2.015625 0.46875q0.90625 0.46875 1.421875 1.375q0.53125 0.90625 0.53125 2.21875q0 1.3125 -0.53125 2.234375q-0.515625 0.90625 -1.421875 1.390625q-0.890625 0.484375 -2.015625 0.484375zm0.125 -1.015625q0.921875 0 1.640625 -0.390625q0.71875 -0.390625 1.125 -1.078125q0.421875 -0.703125 0.421875 -1.625q0 -0.90625 -0.421875 -1.59375q-0.40625 -0.6875 -1.125 -1.078125q-0.71875 -0.390625 -1.640625 -0.390625q-0.921875 0 -1.65625 0.390625q-0.71875 0.390625 -1.125 1.078125q-0.40625 0.6875 -0.40625 1.59375q0 0.921875 0.40625 1.625q0.40625 0.6875 1.125 1.078125q0.734375 0.390625 1.65625 0.390625z" fill-rule="nonzero"/><path fill="#000000" fill-opacity="0.0" d="m176.0 155.82939l164.25198 0l0 38.771652l-164.25198 0z" fill-rule="evenodd"/><path fill="#595959" d="m198.46597 180.18939l0 -11.203125l1.1875 0l0 10.171875l6.265625 0l0 1.03125l-7.453125 0zm12.6241455 0.078125q-1.3125 0 -2.3125 -0.546875q-0.984375 -0.5625 -1.546875 -1.515625q-0.5625 -0.96875 -0.5625 -2.21875q0 -1.25 0.53125 -2.203125q0.546875 -0.96875 1.484375 -1.515625q0.9375 -0.5625 2.09375 -0.5625q1.1875 0 2.109375 0.546875q0.921875 0.53125 1.4375 1.5q0.53125 0.96875 0.53125 2.234375q0 0.078125 -0.015625 0.171875q0 0.078125 0 0.171875l-7.3125 0l0 -0.84375l6.703125 0l-0.4375 0.328125q0 -0.90625 -0.390625 -1.609375q-0.390625 -0.71875 -1.0625 -1.109375q-0.671875 -0.40625 -1.5625 -0.40625q-0.859375 0 -1.546875 0.40625q-0.6875 0.390625 -1.078125 1.109375q-0.375 0.71875 -0.375 1.640625l0 0.1875q0 0.953125 0.421875 1.6875q0.421875 0.71875 1.171875 1.140625q0.765625 0.40625 1.75 0.40625q0.765625 0 1.421875 -0.265625q0.671875 -0.28125 1.15625 -0.84375l0.640625 0.734375q-0.5625 0.671875 -1.40625 1.03125q-0.84375 0.34375 -1.84375 0.34375zm4.564636 -0.078125l3.5625 -4.609375l-0.015625 0.5625l-3.375 -4.359375l1.28125 0l2.765625 3.609375l-0.484375 -0.015625l2.765625 -3.59375l1.25 0l-3.40625 4.40625l0.015625 -0.609375l3.578125 4.609375l-1.296875 0l-2.921875 -3.84375l0.453125 0.0625l-2.890625 3.78125l-1.28125 0zm9.825272 0l0 -8.40625l1.140625 0l0 8.40625l-1.140625 0zm0.578125 -10.25q-0.34375 0 -0.59375 -0.234375q-0.234375 -0.25 -0.234375 -0.59375q0 -0.328125 0.234375 -0.5625q0.25 -0.234375 0.59375 -0.234375q0.359375 0 0.59375 0.234375q0.234375 0.21875 0.234375 0.546875q0 0.359375 -0.234375 0.609375q-0.21875 0.234375 -0.59375 0.234375zm7.225891 10.328125q-1.25 0 -2.234375 -0.546875q-0.984375 -0.5625 -1.546875 -1.515625q-0.5625 -0.96875 -0.5625 -2.21875q0 -1.265625 0.5625 -2.21875q0.5625 -0.96875 1.546875 -1.515625q0.984375 -0.546875 2.234375 -0.546875q1.0625 0 1.921875 0.421875q0.875 0.421875 1.375 1.25l-0.859375 0.578125q-0.421875 -0.640625 -1.0625 -0.9375q-0.640625 -0.3125 -1.390625 -0.3125q-0.90625 0 -1.625 0.40625q-0.71875 0.40625 -1.140625 1.140625q-0.40625 0.734375 -0.40625 1.734375q0 0.984375 0.40625 1.71875q0.421875 0.734375 1.140625 1.15625q0.71875 0.40625 1.625 0.40625q0.75 0 1.390625 -0.296875q0.640625 -0.3125 1.0625 -0.9375l0.859375 0.578125q-0.5 0.8125 -1.375 1.234375q-0.859375 0.421875 -1.921875 0.421875zm10.773636 -0.078125l0 -1.859375l-0.046875 -0.296875l0 -3.109375q0 -1.078125 -0.609375 -1.640625q-0.59375 -0.578125 -1.765625 -0.578125q-0.828125 0 -1.5625 0.28125q-0.734375 0.265625 -1.25 0.703125l-0.5 -0.84375q0.640625 -0.546875 1.53125 -0.84375q0.890625 -0.296875 1.890625 -0.296875q1.625 0 2.515625 0.8125q0.890625 0.8125 0.890625 2.453125l0 5.21875l-1.09375 0zm-2.890625 0.078125q-0.9375 0 -1.640625 -0.3125q-0.703125 -0.3125 -1.078125 -0.859375q-0.359375 -0.546875 -0.359375 -1.28125q0 -0.65625 0.3125 -1.1875q0.3125 -0.53125 1.015625 -0.859375q0.71875 -0.328125 1.921875 -0.328125l2.90625 0l0 0.84375l-2.875 0q-1.21875 0 -1.6875 0.4375q-0.46875 0.421875 -0.46875 1.0625q0 0.71875 0.5625 1.15625q0.5625 0.4375 1.5625 0.4375q0.96875 0 1.65625 -0.4375q0.703125 -0.453125 1.015625 -1.28125l0.265625 0.78125q-0.328125 0.84375 -1.125 1.34375q-0.78125 0.484375 -1.984375 0.484375zm7.0650177 -0.078125l0 -11.875l1.140625 0l0 11.875l-1.140625 0zm6.9491425 0l5.125 -11.203125l1.15625 0l5.125 11.203125l-1.25 0l-4.703125 -10.515625l0.484375 0l-4.703125 10.515625l-1.234375 0zm2.015625 -2.984375l0.359375 -0.96875l6.5 0l0.359375 0.96875l-7.21875 0zm11.003296 2.984375l0 -8.40625l1.09375 0l0 2.3125l-0.171875 -0.4375q0.390625 -0.90625 1.265625 -1.421875q0.890625 -0.53125 2.109375 -0.53125q1.015625 0 1.796875 0.390625q0.78125 0.390625 1.21875 1.203125q0.4375 0.796875 0.4375 2.015625l0 4.875l-1.140625 0l0 -4.765625q0 -1.328125 -0.671875 -2.0q-0.65625 -0.6875 -1.859375 -0.6875q-0.890625 0 -1.5625 0.359375q-0.65625 0.359375 -1.015625 1.046875q-0.359375 0.671875 -0.359375 1.625l0 4.421875l-1.140625 0zm16.081635 0l0 -1.859375l-0.046875 -0.296875l0 -3.109375q0 -1.078125 -0.609375 -1.640625q-0.59375 -0.578125 -1.765625 -0.578125q-0.828125 0 -1.5625 0.28125q-0.734375 0.265625 -1.25 0.703125l-0.5 -0.84375q0.640625 -0.546875 1.53125 -0.84375q0.890625 -0.296875 1.890625 -0.296875q1.625 0 2.515625 0.8125q0.890625 0.8125 0.890625 2.453125l0 5.21875l-1.09375 0zm-2.890625 0.078125q-0.9375 0 -1.640625 -0.3125q-0.703125 -0.3125 -1.078125 -0.859375q-0.359375 -0.546875 -0.359375 -1.28125q0 -0.65625 0.3125 -1.1875q0.3125 -0.53125 1.015625 -0.859375q0.71875 -0.328125 1.921875 -0.328125l2.90625 0l0 0.84375l-2.875 0q-1.21875 0 -1.6875 0.4375q-0.46875 0.421875 -0.46875 1.0625q0 0.71875 0.5625 1.15625q0.5625 0.4375 1.5625 0.4375q0.96875 0 1.65625 -0.4375q0.703125 -0.453125 1.015625 -1.28125l0.265625 0.78125q-0.328125 0.84375 -1.125 1.34375q-0.78125 0.484375 -1.984375 0.484375zm7.065033 -0.078125l0 -11.875l1.140625 0l0 11.875l-1.140625 0zm4.30249 3.1875q-0.578125 0 -1.125 -0.203125q-0.53125 -0.1875 -0.921875 -0.5625l0.53125 -0.859375q0.328125 0.3125 0.703125 0.46875q0.375 0.171875 0.828125 0.171875q0.5625 0 0.96875 -0.3125q0.421875 -0.3125 0.78125 -1.09375l0.546875 -1.234375l0.125 -0.171875l3.453125 -7.796875l1.125 0l-4.203125 9.421875q-0.359375 0.8125 -0.78125 1.28125q-0.421875 0.484375 -0.921875 0.6875q-0.5 0.203125 -1.109375 0.203125zm2.25 -2.953125l-3.875 -8.640625l1.1875 0l3.421875 7.71875l-0.734375 0.921875zm8.529175 -0.15625q-1.046875 0 -1.984375 -0.296875q-0.921875 -0.296875 -1.4375 -0.734375l0.5 -0.90625q0.515625 0.390625 1.3125 0.671875q0.8125 0.28125 1.6875 0.28125q1.203125 0 1.71875 -0.375q0.53125 -0.375 0.53125 -1.0q0 -0.46875 -0.296875 -0.734375q-0.296875 -0.265625 -0.78125 -0.390625q-0.46875 -0.140625 -1.0625 -0.234375q-0.59375 -0.109375 -1.1875 -0.234375q-0.578125 -0.125 -1.0625 -0.375q-0.46875 -0.25 -0.765625 -0.671875q-0.296875 -0.4375 -0.296875 -1.15625q0 -0.6875 0.375 -1.234375q0.390625 -0.546875 1.125 -0.859375q0.75 -0.3125 1.828125 -0.3125q0.8125 0 1.625 0.21875q0.828125 0.21875 1.359375 0.5625l-0.5 0.921875q-0.5625 -0.390625 -1.203125 -0.546875q-0.640625 -0.171875 -1.28125 -0.171875q-1.140625 0 -1.671875 0.390625q-0.53125 0.390625 -0.53125 1.0q0 0.484375 0.296875 0.75q0.296875 0.265625 0.78125 0.421875q0.484375 0.15625 1.0625 0.25q0.59375 0.09375 1.171875 0.234375q0.59375 0.140625 1.078125 0.375q0.484375 0.21875 0.78125 0.640625q0.296875 0.421875 0.296875 1.125q0 0.734375 -0.40625 1.265625q-0.40625 0.53125 -1.1875 0.828125q-0.78125 0.296875 -1.875 0.296875zm5.5423584 -0.078125l0 -8.40625l1.140625 0l0 8.40625l-1.140625 0zm0.578125 -10.25q-0.34375 0 -0.59375 -0.234375q-0.234375 -0.25 -0.234375 -0.59375q0 -0.328125 0.234375 -0.5625q0.25 -0.234375 0.59375 -0.234375q0.359375 0 0.59375 0.234375q0.234375 0.21875 0.234375 0.546875q0 0.359375 -0.234375 0.609375q-0.21875 0.234375 -0.59375 0.234375zm5.991516 10.328125q-1.046875 0 -1.984375 -0.296875q-0.921875 -0.296875 -1.4375 -0.734375l0.5 -0.90625q0.515625 0.390625 1.3125 0.671875q0.8125 0.28125 1.6875 0.28125q1.203125 0 1.71875 -0.375q0.53125 -0.375 0.53125 -1.0q0 -0.46875 -0.296875 -0.734375q-0.296875 -0.265625 -0.78125 -0.390625q-0.46875 -0.140625 -1.0625 -0.234375q-0.59375 -0.109375 -1.1875 -0.234375q-0.578125 -0.125 -1.0625 -0.375q-0.46875 -0.25 -0.765625 -0.671875q-0.296875 -0.4375 -0.296875 -1.15625q0 -0.6875 0.375 -1.234375q0.390625 -0.546875 1.125 -0.859375q0.75 -0.3125 1.828125 -0.3125q0.8125 0 1.625 0.21875q0.828125 0.21875 1.359375 0.5625l-0.5 0.921875q-0.5625 -0.390625 -1.203125 -0.546875q-0.640625 -0.171875 -1.28125 -0.171875q-1.140625 0 -1.671875 0.390625q-0.53125 0.390625 -0.53125 1.0q0 0.484375 0.296875 0.75q0.296875 0.265625 0.78125 0.421875q0.484375 0.15625 1.0625 0.25q0.59375 0.09375 1.171875 0.234375q0.59375 0.140625 1.078125 0.375q0.484375 0.21875 0.78125 0.640625q0.296875 0.421875 0.296875 1.125q0 0.734375 -0.40625 1.265625q-0.40625 0.53125 -1.1875 0.828125q-0.78125 0.296875 -1.875 0.296875z" fill-rule="nonzero"/><path fill="#000000" fill-opacity="0.0" d="m176.0 203.82939l162.70865 0l0 38.771652l-162.70865 0z" fill-rule="evenodd"/><path fill="#595959" d="m233.42627 228.18939l0 -10.171875l-3.9375 0l0 -1.03125l9.0625 0l0 1.03125l-3.9375 0l0 10.171875l-1.1875 0zm9.319641 0.078125q-1.21875 0 -2.1875 -0.546875q-0.96875 -0.5625 -1.53125 -1.515625q-0.5625 -0.96875 -0.5625 -2.21875q0 -1.265625 0.5625 -2.21875q0.5625 -0.96875 1.515625 -1.515625q0.96875 -0.546875 2.203125 -0.546875q1.234375 0 2.203125 0.546875q0.96875 0.546875 1.515625 1.515625q0.5625 0.953125 0.5625 2.21875q0 1.25 -0.5625 2.21875q-0.546875 0.953125 -1.53125 1.515625q-0.96875 0.546875 -2.1875 0.546875zm0 -1.0q0.90625 0 1.609375 -0.40625q0.703125 -0.421875 1.109375 -1.15625q0.40625 -0.75 0.40625 -1.71875q0 -1.0 -0.40625 -1.734375q-0.40625 -0.734375 -1.109375 -1.140625q-0.703125 -0.40625 -1.59375 -0.40625q-0.90625 0 -1.609375 0.40625q-0.703125 0.40625 -1.125 1.140625q-0.40625 0.734375 -0.40625 1.734375q0 0.96875 0.40625 1.71875q0.421875 0.734375 1.125 1.15625q0.703125 0.40625 1.59375 0.40625zm7.500763 -1.25l0.03125 -1.453125l5.234375 -4.78125l1.390625 0l-3.703125 3.546875l-0.640625 0.546875l-2.3125 2.140625zm-0.90625 2.171875l0 -11.875l1.140625 0l0 11.875l-1.140625 0zm6.515625 0l-3.5 -4.375l0.734375 -0.875l4.15625 5.25l-1.390625 0zm6.294525 0.078125q-1.3125 0 -2.3125 -0.546875q-0.984375 -0.5625 -1.546875 -1.515625q-0.5625 -0.96875 -0.5625 -2.21875q0 -1.25 0.53125 -2.203125q0.546875 -0.96875 1.484375 -1.515625q0.9375 -0.5625 2.09375 -0.5625q1.1875 0 2.109375 0.546875q0.921875 0.53125 1.4375 1.5q0.53125 0.96875 0.53125 2.234375q0 0.078125 -0.015625 0.171875q0 0.078125 0 0.171875l-7.3125 0l0 -0.84375l6.703125 0l-0.4375 0.328125q0 -0.90625 -0.390625 -1.609375q-0.390625 -0.71875 -1.0625 -1.109375q-0.671875 -0.40625 -1.5625 -0.40625q-0.859375 0 -1.546875 0.40625q-0.6875 0.390625 -1.078125 1.109375q-0.375 0.71875 -0.375 1.640625l0 0.1875q0 0.953125 0.421875 1.6875q0.421875 0.71875 1.171875 1.140625q0.765625 0.40625 1.75 0.40625q0.765625 0 1.421875 -0.265625q0.671875 -0.28125 1.15625 -0.84375l0.640625 0.734375q-0.5625 0.671875 -1.40625 1.03125q-0.84375 0.34375 -1.84375 0.34375zm6.085907 -0.078125l0 -8.40625l1.09375 0l0 2.3125l-0.171875 -0.4375q0.390625 -0.90625 1.265625 -1.421875q0.890625 -0.53125 2.109375 -0.53125q1.015625 0 1.796875 0.390625q0.78125 0.390625 1.21875 1.203125q0.4375 0.796875 0.4375 2.015625l0 4.875l-1.140625 0l0 -4.765625q0 -1.328125 -0.671875 -2.0q-0.65625 -0.6875 -1.859375 -0.6875q-0.890625 0 -1.5625 0.359375q-0.65625 0.359375 -1.015625 1.046875q-0.359375 0.671875 -0.359375 1.625l0 4.421875l-1.140625 0zm13.0816345 0.078125q-1.046875 0 -1.984375 -0.296875q-0.921875 -0.296875 -1.4375 -0.734375l0.5 -0.90625q0.515625 0.390625 1.3125 0.671875q0.8125 0.28125 1.6875 0.28125q1.203125 0 1.71875 -0.375q0.53125 -0.375 0.53125 -1.0q0 -0.46875 -0.296875 -0.734375q-0.296875 -0.265625 -0.78125 -0.390625q-0.46875 -0.140625 -1.0625 -0.234375q-0.59375 -0.109375 -1.1875 -0.234375q-0.578125 -0.125 -1.0625 -0.375q-0.46875 -0.25 -0.765625 -0.671875q-0.296875 -0.4375 -0.296875 -1.15625q0 -0.6875 0.375 -1.234375q0.390625 -0.546875 1.125 -0.859375q0.75 -0.3125 1.828125 -0.3125q0.8125 0 1.625 0.21875q0.828125 0.21875 1.359375 0.5625l-0.5 0.921875q-0.5625 -0.390625 -1.203125 -0.546875q-0.640625 -0.171875 -1.28125 -0.171875q-1.140625 0 -1.671875 0.390625q-0.53125 0.390625 -0.53125 1.0q0 0.484375 0.296875 0.75q0.296875 0.265625 0.78125 0.421875q0.484375 0.15625 1.0625 0.25q0.59375 0.09375 1.171875 0.234375q0.59375 0.140625 1.078125 0.375q0.484375 0.21875 0.78125 0.640625q0.296875 0.421875 0.296875 1.125q0 0.734375 -0.40625 1.265625q-0.40625 0.53125 -1.1875 0.828125q-0.78125 0.296875 -1.875 0.296875z" fill-rule="nonzero"/><path fill="#000000" fill-opacity="0.0" d="m176.0 275.8294l164.25198 0l0 38.771637l-164.25198 0z" fill-rule="evenodd"/><path fill="#595959" d="m191.7761 300.28314q-1.25 0 -2.390625 -0.40625q-1.140625 -0.40625 -1.765625 -1.046875l0.46875 -0.90625q0.59375 0.5625 1.59375 0.96875q1.0 0.390625 2.09375 0.390625q1.0625 0 1.71875 -0.265625q0.671875 -0.265625 0.984375 -0.71875q0.3125 -0.453125 0.3125 -0.984375q0 -0.65625 -0.375 -1.0625q-0.375 -0.40625 -0.984375 -0.625q-0.609375 -0.234375 -1.34375 -0.40625q-0.734375 -0.1875 -1.46875 -0.375q-0.734375 -0.203125 -1.359375 -0.53125q-0.609375 -0.34375 -0.984375 -0.890625q-0.375 -0.5625 -0.375 -1.453125q0 -0.84375 0.4375 -1.53125q0.4375 -0.703125 1.34375 -1.125q0.921875 -0.421875 2.34375 -0.421875q0.9375 0 1.859375 0.265625q0.9375 0.265625 1.609375 0.734375l-0.40625 0.9375q-0.71875 -0.484375 -1.53125 -0.703125q-0.796875 -0.21875 -1.546875 -0.21875q-1.015625 0 -1.671875 0.265625q-0.65625 0.265625 -0.96875 0.734375q-0.3125 0.453125 -0.3125 1.03125q0 0.65625 0.375 1.0625q0.375 0.390625 0.984375 0.609375q0.625 0.21875 1.359375 0.40625q0.734375 0.171875 1.46875 0.390625q0.734375 0.203125 1.34375 0.53125q0.625 0.328125 1.0 0.875q0.375 0.53125 0.375 1.421875q0 0.8125 -0.453125 1.515625q-0.453125 0.6875 -1.375 1.109375q-0.90625 0.421875 -2.359375 0.421875zm6.574402 3.09375q-0.578125 0 -1.125 -0.203125q-0.53125 -0.1875 -0.921875 -0.5625l0.53125 -0.859375q0.328125 0.3125 0.703125 0.46875q0.375 0.171875 0.828125 0.171875q0.5625 0 0.96875 -0.3125q0.421875 -0.3125 0.78125 -1.09375l0.546875 -1.234375l0.125 -0.171875l3.453125 -7.796875l1.125 0l-4.203125 9.421875q-0.359375 0.8125 -0.78125 1.28125q-0.421875 0.484375 -0.921875 0.6875q-0.5 0.203125 -1.109375 0.203125zm2.25 -2.953125l-3.875 -8.640625l1.1875 0l3.421875 7.71875l-0.734375 0.921875zm6.359497 -0.234375l0 -8.40625l1.09375 0l0 2.3125l-0.171875 -0.4375q0.390625 -0.90625 1.265625 -1.421875q0.890625 -0.53125 2.109375 -0.53125q1.015625 0 1.796875 0.390625q0.78125 0.390625 1.21875 1.203125q0.4375 0.796875 0.4375 2.015625l0 4.875l-1.140625 0l0 -4.765625q0 -1.328125 -0.671875 -2.0q-0.65625 -0.6875 -1.859375 -0.6875q-0.890625 0 -1.5625 0.359375q-0.65625 0.359375 -1.015625 1.046875q-0.359375 0.671875 -0.359375 1.625l0 4.421875l-1.140625 0zm13.47229 0.078125q-1.171875 0 -1.8125 -0.640625q-0.640625 -0.640625 -0.640625 -1.8125l0 -7.875l1.125 0l0 7.8125q0 0.734375 0.375 1.140625q0.375 0.40625 1.09375 0.40625q0.75 0 1.234375 -0.4375l0.40625 0.8125q-0.328125 0.3125 -0.8125 0.453125q-0.46875 0.140625 -0.96875 0.140625zm-3.96875 -7.53125l0 -0.953125l5.203125 0l0 0.953125l-5.203125 0zm12.75412 7.453125l0 -1.859375l-0.046875 -0.296875l0 -3.109375q0 -1.078125 -0.609375 -1.640625q-0.59375 -0.578125 -1.765625 -0.578125q-0.828125 0 -1.5625 0.28125q-0.734375 0.265625 -1.25 0.703125l-0.5 -0.84375q0.640625 -0.546875 1.53125 -0.84375q0.890625 -0.296875 1.890625 -0.296875q1.625 0 2.515625 0.8125q0.890625 0.8125 0.890625 2.453125l0 5.21875l-1.09375 0zm-2.890625 0.078125q-0.9375 0 -1.640625 -0.3125q-0.703125 -0.3125 -1.078125 -0.859375q-0.359375 -0.546875 -0.359375 -1.28125q0 -0.65625 0.3125 -1.1875q0.3125 -0.53125 1.015625 -0.859375q0.71875 -0.328125 1.921875 -0.328125l2.90625 0l0 0.84375l-2.875 0q-1.21875 0 -1.6875 0.4375q-0.46875 0.421875 -0.46875 1.0625q0 0.71875 0.5625 1.15625q0.5625 0.4375 1.5625 0.4375q0.96875 0 1.65625 -0.4375q0.703125 -0.453125 1.015625 -1.28125l0.265625 0.78125q-0.328125 0.84375 -1.125 1.34375q-0.78125 0.484375 -1.984375 0.484375zm10.565033 0q-1.25 0 -2.234375 -0.546875q-0.984375 -0.5625 -1.546875 -1.515625q-0.5625 -0.96875 -0.5625 -2.21875q0 -1.265625 0.5625 -2.21875q0.5625 -0.96875 1.546875 -1.515625q0.984375 -0.546875 2.234375 -0.546875q1.0625 0 1.921875 0.421875q0.875 0.421875 1.375 1.25l-0.859375 0.578125q-0.421875 -0.640625 -1.0625 -0.9375q-0.640625 -0.3125 -1.390625 -0.3125q-0.90625 0 -1.625 0.40625q-0.71875 0.40625 -1.140625 1.140625q-0.40625 0.734375 -0.40625 1.734375q0 0.984375 0.40625 1.71875q0.421875 0.734375 1.140625 1.15625q0.71875 0.40625 1.625 0.40625q0.75 0 1.390625 -0.296875q0.640625 -0.3125 1.0625 -0.9375l0.859375 0.578125q-0.5 0.8125 -1.375 1.234375q-0.859375 0.421875 -1.921875 0.421875zm8.260254 0q-1.171875 0 -1.8125 -0.640625q-0.640625 -0.640625 -0.640625 -1.8125l0 -7.875l1.125 0l0 7.8125q0 0.734375 0.375 1.140625q0.375 0.40625 1.09375 0.40625q0.75 0 1.234375 -0.4375l0.40625 0.8125q-0.328125 0.3125 -0.8125 0.453125q-0.46875 0.140625 -0.96875 0.140625zm-3.96875 -7.53125l0 -0.953125l5.203125 0l0 0.953125l-5.203125 0zm7.808502 7.453125l0 -8.40625l1.140625 0l0 8.40625l-1.140625 0zm0.578125 -10.25q-0.34375 0 -0.59375 -0.234375q-0.234375 -0.25 -0.234375 -0.59375q0 -0.328125 0.234375 -0.5625q0.25 -0.234375 0.59375 -0.234375q0.359375 0 0.59375 0.234375q0.234375 0.21875 0.234375 0.546875q0 0.359375 -0.234375 0.609375q-0.21875 0.234375 -0.59375 0.234375zm7.225891 10.328125q-1.25 0 -2.234375 -0.546875q-0.984375 -0.5625 -1.546875 -1.515625q-0.5625 -0.96875 -0.5625 -2.21875q0 -1.265625 0.5625 -2.21875q0.5625 -0.96875 1.546875 -1.515625q0.984375 -0.546875 2.234375 -0.546875q1.0625 0 1.921875 0.421875q0.875 0.421875 1.375 1.25l-0.859375 0.578125q-0.421875 -0.640625 -1.0625 -0.9375q-0.640625 -0.3125 -1.390625 -0.3125q-0.90625 0 -1.625 0.40625q-0.71875 0.40625 -1.140625 1.140625q-0.40625 0.734375 -0.40625 1.734375q0 0.984375 0.40625 1.71875q0.421875 0.734375 1.140625 1.15625q0.71875 0.40625 1.625 0.40625q0.75 0 1.390625 -0.296875q0.640625 -0.3125 1.0625 -0.9375l0.859375 0.578125q-0.5 0.8125 -1.375 1.234375q-0.859375 0.421875 -1.921875 0.421875zm8.153137 -0.078125l5.125 -11.203125l1.15625 0l5.125 11.203125l-1.25 0l-4.703125 -10.515625l0.484375 0l-4.703125 10.515625l-1.234375 0zm2.015625 -2.984375l0.359375 -0.96875l6.5 0l0.359375 0.96875l-7.21875 0zm11.003296 2.984375l0 -8.40625l1.09375 0l0 2.3125l-0.171875 -0.4375q0.390625 -0.90625 1.265625 -1.421875q0.890625 -0.53125 2.109375 -0.53125q1.015625 0 1.796875 0.390625q0.78125 0.390625 1.21875 1.203125q0.4375 0.796875 0.4375 2.015625l0 4.875l-1.140625 0l0 -4.765625q0 -1.328125 -0.671875 -2.0q-0.65625 -0.6875 -1.859375 -0.6875q-0.890625 0 -1.5625 0.359375q-0.65625 0.359375 -1.015625 1.046875q-0.359375 0.671875 -0.359375 1.625l0 4.421875l-1.140625 0zm16.081635 0l0 -1.859375l-0.046875 -0.296875l0 -3.109375q0 -1.078125 -0.609375 -1.640625q-0.59375 -0.578125 -1.765625 -0.578125q-0.828125 0 -1.5625 0.28125q-0.734375 0.265625 -1.25 0.703125l-0.5 -0.84375q0.640625 -0.546875 1.53125 -0.84375q0.890625 -0.296875 1.890625 -0.296875q1.625 0 2.515625 0.8125q0.890625 0.8125 0.890625 2.453125l0 5.21875l-1.09375 0zm-2.890625 0.078125q-0.9375 0 -1.640625 -0.3125q-0.703125 -0.3125 -1.078125 -0.859375q-0.359375 -0.546875 -0.359375 -1.28125q0 -0.65625 0.3125 -1.1875q0.3125 -0.53125 1.015625 -0.859375q0.71875 -0.328125 1.921875 -0.328125l2.90625 0l0 0.84375l-2.875 0q-1.21875 0 -1.6875 0.4375q-0.46875 0.421875 -0.46875 1.0625q0 0.71875 0.5625 1.15625q0.5625 0.4375 1.5625 0.4375q0.96875 0 1.65625 -0.4375q0.703125 -0.453125 1.015625 -1.28125l0.265625 0.78125q-0.328125 0.84375 -1.125 1.34375q-0.78125 0.484375 -1.984375 0.484375zm7.065033 -0.078125l0 -11.875l1.140625 0l0 11.875l-1.140625 0zm4.3025208 3.1875q-0.578125 0 -1.125 -0.203125q-0.53125 -0.1875 -0.921875 -0.5625l0.53125 -0.859375q0.328125 0.3125 0.703125 0.46875q0.375 0.171875 0.828125 0.171875q0.5625 0 0.96875 -0.3125q0.421875 -0.3125 0.78125 -1.09375l0.546875 -1.234375l0.125 -0.171875l3.453125 -7.796875l1.125 0l-4.203125 9.421875q-0.359375 0.8125 -0.78125 1.28125q-0.421875 0.484375 -0.921875 0.6875q-0.5 0.203125 -1.109375 0.203125zm2.25 -2.953125l-3.875 -8.640625l1.1875 0l3.421875 7.71875l-0.734375 0.921875zm8.529144 -0.15625q-1.046875 0 -1.984375 -0.296875q-0.921875 -0.296875 -1.4375 -0.734375l0.5 -0.90625q0.515625 0.390625 1.3125 0.671875q0.8125 0.28125 1.6875 0.28125q1.203125 0 1.71875 -0.375q0.53125 -0.375 0.53125 -1.0q0 -0.46875 -0.296875 -0.734375q-0.296875 -0.265625 -0.78125 -0.390625q-0.46875 -0.140625 -1.0625 -0.234375q-0.59375 -0.109375 -1.1875 -0.234375q-0.578125 -0.125 -1.0625 -0.375q-0.46875 -0.25 -0.765625 -0.671875q-0.296875 -0.4375 -0.296875 -1.15625q0 -0.6875 0.375 -1.234375q0.390625 -0.546875 1.125 -0.859375q0.75 -0.3125 1.828125 -0.3125q0.8125 0 1.625 0.21875q0.828125 0.21875 1.359375 0.5625l-0.5 0.921875q-0.5625 -0.390625 -1.203125 -0.546875q-0.640625 -0.171875 -1.28125 -0.171875q-1.140625 0 -1.671875 0.390625q-0.53125 0.390625 -0.53125 1.0q0 0.484375 0.296875 0.75q0.296875 0.265625 0.78125 0.421875q0.484375 0.15625 1.0625 0.25q0.59375 0.09375 1.171875 0.234375q0.59375 0.140625 1.078125 0.375q0.484375 0.21875 0.78125 0.640625q0.296875 0.421875 0.296875 1.125q0 0.734375 -0.40625 1.265625q-0.40625 0.53125 -1.1875 0.828125q-0.78125 0.296875 -1.875 0.296875zm5.542389 -0.078125l0 -8.40625l1.140625 0l0 8.40625l-1.140625 0zm0.578125 -10.25q-0.34375 0 -0.59375 -0.234375q-0.234375 -0.25 -0.234375 -0.59375q0 -0.328125 0.234375 -0.5625q0.25 -0.234375 0.59375 -0.234375q0.359375 0 0.59375 0.234375q0.234375 0.21875 0.234375 0.546875q0 0.359375 -0.234375 0.609375q-0.21875 0.234375 -0.59375 0.234375zm5.991516 10.328125q-1.046875 0 -1.984375 -0.296875q-0.921875 -0.296875 -1.4375 -0.734375l0.5 -0.90625q0.515625 0.390625 1.3125 0.671875q0.8125 0.28125 1.6875 0.28125q1.203125 0 1.71875 -0.375q0.53125 -0.375 0.53125 -1.0q0 -0.46875 -0.296875 -0.734375q-0.296875 -0.265625 -0.78125 -0.390625q-0.46875 -0.140625 -1.0625 -0.234375q-0.59375 -0.109375 -1.1875 -0.234375q-0.578125 -0.125 -1.0625 -0.375q-0.46875 -0.25 -0.765625 -0.671875q-0.296875 -0.4375 -0.296875 -1.15625q0 -0.6875 0.375 -1.234375q0.390625 -0.546875 1.125 -0.859375q0.75 -0.3125 1.828125 -0.3125q0.8125 0 1.625 0.21875q0.828125 0.21875 1.359375 0.5625l-0.5 0.921875q-0.5625 -0.390625 -1.203125 -0.546875q-0.640625 -0.171875 -1.28125 -0.171875q-1.140625 0 -1.671875 0.390625q-0.53125 0.390625 -0.53125 1.0q0 0.484375 0.296875 0.75q0.296875 0.265625 0.78125 0.421875q0.484375 0.15625 1.0625 0.25q0.59375 0.09375 1.171875 0.234375q0.59375 0.140625 1.078125 0.375q0.484375 0.21875 0.78125 0.640625q0.296875 0.421875 0.296875 1.125q0 0.734375 -0.40625 1.265625q-0.40625 0.53125 -1.1875 0.828125q-0.78125 0.296875 -1.875 0.296875z" fill-rule="nonzero"/><path fill="#000000" fill-opacity="0.0" d="m176.0 323.8294l164.25198 0l0 38.771637l-164.25198 0z" fill-rule="evenodd"/><path fill="#595959" d="m244.87794 348.1894l0 -10.171875l-3.9375 0l0 -1.03125l9.0625 0l0 1.03125l-3.9375 0l0 10.171875l-1.1875 0zm6.538147 0l0 -8.40625l1.09375 0l0 2.296875l-0.109375 -0.40625q0.34375 -0.953125 1.171875 -1.453125q0.84375 -0.515625 2.078125 -0.515625l0 1.109375q-0.0625 0 -0.140625 0q-0.0625 -0.015625 -0.125 -0.015625q-1.328125 0 -2.078125 0.8125q-0.75 0.796875 -0.75 2.296875l0 4.28125l-1.140625 0zm9.786148 0.078125q-1.3125 0 -2.3125 -0.546875q-0.984375 -0.5625 -1.546875 -1.515625q-0.5625 -0.96875 -0.5625 -2.21875q0 -1.25 0.53125 -2.203125q0.546875 -0.96875 1.484375 -1.515625q0.9375 -0.5625 2.09375 -0.5625q1.1875 0 2.109375 0.546875q0.921875 0.53125 1.4375 1.5q0.53125 0.96875 0.53125 2.234375q0 0.078125 -0.015625 0.171875q0 0.078125 0 0.171875l-7.3125 0l0 -0.84375l6.703125 0l-0.4375 0.328125q0 -0.90625 -0.390625 -1.609375q-0.390625 -0.71875 -1.0625 -1.109375q-0.671875 -0.40625 -1.5625 -0.40625q-0.859375 0 -1.546875 0.40625q-0.6875 0.390625 -1.078125 1.109375q-0.375 0.71875 -0.375 1.640625l0 0.1875q0 0.953125 0.421875 1.6875q0.421875 0.71875 1.171875 1.140625q0.765625 0.40625 1.75 0.40625q0.765625 0 1.421875 -0.265625q0.671875 -0.28125 1.15625 -0.84375l0.640625 0.734375q-0.5625 0.671875 -1.40625 1.03125q-0.84375 0.34375 -1.84375 0.34375zm9.664032 0q-1.3125 0 -2.3125 -0.546875q-0.984375 -0.5625 -1.546875 -1.515625q-0.5625 -0.96875 -0.5625 -2.21875q0 -1.25 0.53125 -2.203125q0.546875 -0.96875 1.484375 -1.515625q0.9375 -0.5625 2.09375 -0.5625q1.1875 0 2.109375 0.546875q0.921875 0.53125 1.4375 1.5q0.53125 0.96875 0.53125 2.234375q0 0.078125 -0.015625 0.171875q0 0.078125 0 0.171875l-7.3125 0l0 -0.84375l6.703125 0l-0.4375 0.328125q0 -0.90625 -0.390625 -1.609375q-0.390625 -0.71875 -1.0625 -1.109375q-0.671875 -0.40625 -1.5625 -0.40625q-0.859375 0 -1.546875 0.40625q-0.6875 0.390625 -1.078125 1.109375q-0.375 0.71875 -0.375 1.640625l0 0.1875q0 0.953125 0.421875 1.6875q0.421875 0.71875 1.171875 1.140625q0.765625 0.40625 1.75 0.40625q0.765625 0 1.421875 -0.265625q0.671875 -0.28125 1.15625 -0.84375l0.640625 0.734375q-0.5625 0.671875 -1.40625 1.03125q-0.84375 0.34375 -1.84375 0.34375z" fill-rule="nonzero"/><path fill="#000000" fill-opacity="0.0" d="m176.0 371.8294l164.25198 0l0 38.771637l-164.25198 0z" fill-rule="evenodd"/><path fill="#595959" d="m199.46936 396.28314q-1.265625 0 -2.34375 -0.421875q-1.0625 -0.421875 -1.84375 -1.1875q-0.78125 -0.765625 -1.234375 -1.8125q-0.4375 -1.046875 -0.4375 -2.265625q0 -1.234375 0.4375 -2.265625q0.453125 -1.046875 1.234375 -1.8125q0.796875 -0.78125 1.859375 -1.203125q1.078125 -0.421875 2.34375 -0.421875q1.21875 0 2.28125 0.40625q1.078125 0.40625 1.8125 1.234375l-0.75 0.75q-0.6875 -0.703125 -1.515625 -1.015625q-0.828125 -0.3125 -1.796875 -0.3125q-1.0 0 -1.875 0.34375q-0.859375 0.34375 -1.5 0.984375q-0.640625 0.625 -1.0 1.46875q-0.359375 0.828125 -0.359375 1.84375q0 1.0 0.359375 1.84375q0.359375 0.84375 1.0 1.484375q0.640625 0.625 1.5 0.96875q0.875 0.34375 1.875 0.34375q0.96875 0 1.796875 -0.3125q0.828125 -0.328125 1.515625 -1.03125l0.75 0.75q-0.734375 0.8125 -1.8125 1.234375q-1.0625 0.40625 -2.296875 0.40625zm9.304153 -0.015625q-1.21875 0 -2.1875 -0.546875q-0.96875 -0.5625 -1.53125 -1.515625q-0.5625 -0.96875 -0.5625 -2.21875q0 -1.265625 0.5625 -2.21875q0.5625 -0.96875 1.515625 -1.515625q0.96875 -0.546875 2.203125 -0.546875q1.234375 0 2.203125 0.546875q0.96875 0.546875 1.515625 1.515625q0.5625 0.953125 0.5625 2.21875q0 1.25 -0.5625 2.21875q-0.546875 0.953125 -1.53125 1.515625q-0.96875 0.546875 -2.1875 0.546875zm0 -1.0q0.90625 0 1.609375 -0.40625q0.703125 -0.421875 1.109375 -1.15625q0.40625 -0.75 0.40625 -1.71875q0 -1.0 -0.40625 -1.734375q-0.40625 -0.734375 -1.109375 -1.140625q-0.703125 -0.40625 -1.59375 -0.40625q-0.90625 0 -1.609375 0.40625q-0.703125 0.40625 -1.125 1.140625q-0.40625 0.734375 -0.40625 1.734375q0 0.96875 0.40625 1.71875q0.421875 0.734375 1.125 1.15625q0.703125 0.40625 1.59375 0.40625zm6.594513 0.921875l0 -8.40625l1.09375 0l0 2.28125l-0.171875 -0.40625q0.375 -0.90625 1.234375 -1.421875q0.859375 -0.53125 2.03125 -0.53125q1.21875 0 2.078125 0.625q0.875 0.609375 1.125 1.84375l-0.4375 -0.171875q0.359375 -1.03125 1.296875 -1.65625q0.9375 -0.640625 2.25 -0.640625q1.03125 0 1.78125 0.390625q0.765625 0.390625 1.1875 1.203125q0.421875 0.796875 0.421875 2.015625l0 4.875l-1.125 0l0 -4.765625q0 -1.328125 -0.640625 -2.0q-0.625 -0.6875 -1.78125 -0.6875q-0.859375 0 -1.5 0.359375q-0.625 0.359375 -0.96875 1.046875q-0.34375 0.671875 -0.34375 1.625l0 4.421875l-1.140625 0l0 -4.765625q0 -1.328125 -0.640625 -2.0q-0.640625 -0.6875 -1.796875 -0.6875q-0.84375 0 -1.484375 0.359375q-0.640625 0.359375 -0.984375 1.046875q-0.34375 0.671875 -0.34375 1.625l0 4.421875l-1.140625 0zm16.976028 0l0 -8.40625l1.09375 0l0 2.28125l-0.171875 -0.40625q0.375 -0.90625 1.234375 -1.421875q0.859375 -0.53125 2.03125 -0.53125q1.21875 0 2.078125 0.625q0.875 0.609375 1.125 1.84375l-0.4375 -0.171875q0.359375 -1.03125 1.296875 -1.65625q0.9375 -0.640625 2.25 -0.640625q1.03125 0 1.78125 0.390625q0.765625 0.390625 1.1875 1.203125q0.421875 0.796875 0.421875 2.015625l0 4.875l-1.125 0l0 -4.765625q0 -1.328125 -0.640625 -2.0q-0.625 -0.6875 -1.78125 -0.6875q-0.859375 0 -1.5 0.359375q-0.625 0.359375 -0.96875 1.046875q-0.34375 0.671875 -0.34375 1.625l0 4.421875l-1.140625 0l0 -4.765625q0 -1.328125 -0.640625 -2.0q-0.640625 -0.6875 -1.796875 -0.6875q-0.84375 0 -1.484375 0.359375q-0.640625 0.359375 -0.984375 1.046875q-0.34375 0.671875 -0.34375 1.625l0 4.421875l-1.140625 0zm22.241653 0l0 -1.859375l-0.046875 -0.296875l0 -3.109375q0 -1.078125 -0.609375 -1.640625q-0.59375 -0.578125 -1.765625 -0.578125q-0.828125 0 -1.5625 0.28125q-0.734375 0.265625 -1.25 0.703125l-0.5 -0.84375q0.640625 -0.546875 1.53125 -0.84375q0.890625 -0.296875 1.890625 -0.296875q1.625 0 2.515625 0.8125q0.890625 0.8125 0.890625 2.453125l0 5.21875l-1.09375 0zm-2.890625 0.078125q-0.9375 0 -1.640625 -0.3125q-0.703125 -0.3125 -1.078125 -0.859375q-0.359375 -0.546875 -0.359375 -1.28125q0 -0.65625 0.3125 -1.1875q0.3125 -0.53125 1.015625 -0.859375q0.71875 -0.328125 1.921875 -0.328125l2.90625 0l0 0.84375l-2.875 0q-1.21875 0 -1.6875 0.4375q-0.46875 0.421875 -0.46875 1.0625q0 0.71875 0.5625 1.15625q0.5625 0.4375 1.5625 0.4375q0.96875 0 1.65625 -0.4375q0.703125 -0.453125 1.015625 -1.28125l0.265625 0.78125q-0.328125 0.84375 -1.125 1.34375q-0.78125 0.484375 -1.984375 0.484375zm7.0650177 -0.078125l0 -8.40625l1.09375 0l0 2.3125l-0.171875 -0.4375q0.390625 -0.90625 1.265625 -1.421875q0.890625 -0.53125 2.109375 -0.53125q1.015625 0 1.796875 0.390625q0.78125 0.390625 1.21875 1.203125q0.4375 0.796875 0.4375 2.015625l0 4.875l-1.140625 0l0 -4.765625q0 -1.328125 -0.671875 -2.0q-0.65625 -0.6875 -1.859375 -0.6875q-0.890625 0 -1.5625 0.359375q-0.65625 0.359375 -1.015625 1.046875q-0.359375 0.671875 -0.359375 1.625l0 4.421875l-1.140625 0zm14.1597595 0.078125q-1.1875 0 -2.140625 -0.546875q-0.953125 -0.546875 -1.5 -1.5q-0.546875 -0.96875 -0.546875 -2.234375q0 -1.28125 0.546875 -2.234375q0.546875 -0.96875 1.5 -1.5q0.953125 -0.546875 2.140625 -0.546875q1.109375 0 1.984375 0.5q0.875 0.5 1.390625 1.453125q0.515625 0.953125 0.515625 2.328125q0 1.359375 -0.515625 2.328125q-0.5 0.953125 -1.375 1.453125q-0.875 0.5 -2.0 0.5zm0.09375 -1.0q0.890625 0 1.59375 -0.40625q0.71875 -0.421875 1.125 -1.15625q0.40625 -0.75 0.40625 -1.71875q0 -1.0 -0.40625 -1.734375q-0.40625 -0.734375 -1.125 -1.140625q-0.703125 -0.40625 -1.59375 -0.40625q-0.890625 0 -1.59375 0.40625q-0.703125 0.40625 -1.125 1.140625q-0.40625 0.734375 -0.40625 1.734375q0 0.96875 0.40625 1.71875q0.421875 0.734375 1.125 1.15625q0.703125 0.40625 1.59375 0.40625zm3.15625 0.921875l0 -2.53125l0.109375 -1.6875l-0.15625 -1.703125l0 -5.953125l1.140625 0l0 11.875l-1.09375 0zm11.102539 0.078125q-1.171875 0 -1.8125 -0.640625q-0.640625 -0.640625 -0.640625 -1.8125l0 -7.875l1.125 0l0 7.8125q0 0.734375 0.375 1.140625q0.375 0.40625 1.09375 0.40625q0.75 0 1.234375 -0.4375l0.40625 0.8125q-0.328125 0.3125 -0.8125 0.453125q-0.46875 0.140625 -0.96875 0.140625zm-3.96875 -7.53125l0 -0.953125l5.203125 0l0 0.953125l-5.203125 0zm12.75415 7.453125l0 -1.859375l-0.046875 -0.296875l0 -3.109375q0 -1.078125 -0.609375 -1.640625q-0.59375 -0.578125 -1.765625 -0.578125q-0.828125 0 -1.5625 0.28125q-0.734375 0.265625 -1.25 0.703125l-0.5 -0.84375q0.640625 -0.546875 1.53125 -0.84375q0.890625 -0.296875 1.890625 -0.296875q1.625 0 2.515625 0.8125q0.890625 0.8125 0.890625 2.453125l0 5.21875l-1.09375 0zm-2.890625 0.078125q-0.9375 0 -1.640625 -0.3125q-0.703125 -0.3125 -1.078125 -0.859375q-0.359375 -0.546875 -0.359375 -1.28125q0 -0.65625 0.3125 -1.1875q0.3125 -0.53125 1.015625 -0.859375q0.71875 -0.328125 1.921875 -0.328125l2.90625 0l0 0.84375l-2.875 0q-1.21875 0 -1.6875 0.4375q-0.46875 0.421875 -0.46875 1.0625q0 0.71875 0.5625 1.15625q0.5625 0.4375 1.5625 0.4375q0.96875 0 1.65625 -0.4375q0.703125 -0.453125 1.015625 -1.28125l0.265625 0.78125q-0.328125 0.84375 -1.125 1.34375q-0.78125 0.484375 -1.984375 0.484375zm11.408752 0q-1.109375 0 -1.984375 -0.5q-0.875 -0.5 -1.390625 -1.453125q-0.515625 -0.96875 -0.515625 -2.328125q0 -1.375 0.515625 -2.328125q0.53125 -0.953125 1.40625 -1.453125q0.875 -0.5 1.96875 -0.5q1.203125 0 2.15625 0.546875q0.953125 0.53125 1.484375 1.5q0.546875 0.953125 0.546875 2.234375q0 1.265625 -0.546875 2.234375q-0.53125 0.953125 -1.484375 1.5q-0.953125 0.546875 -2.15625 0.546875zm-4.34375 -0.078125l0 -11.875l1.140625 0l0 5.953125l-0.15625 1.703125l0.109375 1.6875l0 2.53125l-1.09375 0zm4.265625 -0.921875q0.890625 0 1.59375 -0.40625q0.703125 -0.421875 1.109375 -1.15625q0.421875 -0.75 0.421875 -1.71875q0 -1.0 -0.421875 -1.734375q-0.40625 -0.734375 -1.109375 -1.140625q-0.703125 -0.40625 -1.59375 -0.40625q-0.90625 0 -1.625 0.40625q-0.703125 0.40625 -1.109375 1.140625q-0.40625 0.734375 -0.40625 1.734375q0 0.96875 0.40625 1.71875q0.40625 0.734375 1.109375 1.15625q0.71875 0.40625 1.625 0.40625zm6.5823975 0.921875l0 -11.875l1.140625 0l0 11.875l-1.140625 0zm7.882141 0.078125q-1.3125 0 -2.3125 -0.546875q-0.984375 -0.5625 -1.546875 -1.515625q-0.5625 -0.96875 -0.5625 -2.21875q0 -1.25 0.53125 -2.203125q0.546875 -0.96875 1.484375 -1.515625q0.9375 -0.5625 2.09375 -0.5625q1.1875 0 2.109375 0.546875q0.921875 0.53125 1.4375 1.5q0.53125 0.96875 0.53125 2.234375q0 0.078125 -0.015625 0.171875q0 0.078125 0 0.171875l-7.3125 0l0 -0.84375l6.703125 0l-0.4375 0.328125q0 -0.90625 -0.390625 -1.609375q-0.390625 -0.71875 -1.0625 -1.109375q-0.671875 -0.40625 -1.5625 -0.40625q-0.859375 0 -1.546875 0.40625q-0.6875 0.390625 -1.078125 1.109375q-0.375 0.71875 -0.375 1.640625l0 0.1875q0 0.953125 0.421875 1.6875q0.421875 0.71875 1.171875 1.140625q0.765625 0.40625 1.75 0.40625q0.765625 0 1.421875 -0.265625q0.671875 -0.28125 1.15625 -0.84375l0.640625 0.734375q-0.5625 0.671875 -1.40625 1.03125q-0.84375 0.34375 -1.84375 0.34375z" fill-rule="nonzero"/><path fill="#000000" fill-opacity="0.0" d="m176.0 443.8294l164.25198 0l0 38.771637l-164.25198 0z" fill-rule="evenodd"/><path fill="#595959" d="m191.44809 468.28314q-1.25 0 -2.390625 -0.40625q-1.140625 -0.40625 -1.765625 -1.046875l0.46875 -0.90625q0.59375 0.5625 1.59375 0.96875q1.0 0.390625 2.09375 0.390625q1.0625 0 1.71875 -0.265625q0.671875 -0.265625 0.984375 -0.71875q0.3125 -0.453125 0.3125 -0.984375q0 -0.65625 -0.375 -1.0625q-0.375 -0.40625 -0.984375 -0.625q-0.609375 -0.234375 -1.34375 -0.40625q-0.734375 -0.1875 -1.46875 -0.375q-0.734375 -0.203125 -1.359375 -0.53125q-0.609375 -0.34375 -0.984375 -0.890625q-0.375 -0.5625 -0.375 -1.453125q0 -0.84375 0.4375 -1.53125q0.4375 -0.703125 1.34375 -1.125q0.921875 -0.421875 2.34375 -0.421875q0.9375 0 1.859375 0.265625q0.9375 0.265625 1.609375 0.734375l-0.40625 0.9375q-0.71875 -0.484375 -1.53125 -0.703125q-0.796875 -0.21875 -1.546875 -0.21875q-1.015625 0 -1.671875 0.265625q-0.65625 0.265625 -0.96875 0.734375q-0.3125 0.453125 -0.3125 1.03125q0 0.65625 0.375 1.0625q0.375 0.390625 0.984375 0.609375q0.625 0.21875 1.359375 0.40625q0.734375 0.171875 1.46875 0.390625q0.734375 0.203125 1.34375 0.53125q0.625 0.328125 1.0 0.875q0.375 0.53125 0.375 1.421875q0 0.8125 -0.453125 1.515625q-0.453125 0.6875 -1.375 1.109375q-0.90625 0.421875 -2.359375 0.421875zm10.090027 -0.015625q-1.3125 0 -2.3125 -0.546875q-0.984375 -0.5625 -1.546875 -1.515625q-0.5625 -0.96875 -0.5625 -2.21875q0 -1.25 0.53125 -2.203125q0.546875 -0.96875 1.484375 -1.515625q0.9375 -0.5625 2.09375 -0.5625q1.1875 0 2.109375 0.546875q0.921875 0.53125 1.4375 1.5q0.53125 0.96875 0.53125 2.234375q0 0.078125 -0.015625 0.171875q0 0.078125 0 0.171875l-7.3125 0l0 -0.84375l6.703125 0l-0.4375 0.328125q0 -0.90625 -0.390625 -1.609375q-0.390625 -0.71875 -1.0625 -1.109375q-0.671875 -0.40625 -1.5625 -0.40625q-0.859375 0 -1.546875 0.40625q-0.6875 0.390625 -1.078125 1.109375q-0.375 0.71875 -0.375 1.640625l0 0.1875q0 0.953125 0.421875 1.6875q0.421875 0.71875 1.171875 1.140625q0.765625 0.40625 1.75 0.40625q0.765625 0 1.421875 -0.265625q0.671875 -0.28125 1.15625 -0.84375l0.640625 0.734375q-0.5625 0.671875 -1.40625 1.03125q-0.84375 0.34375 -1.84375 0.34375zm6.0858765 -0.078125l0 -8.40625l1.09375 0l0 2.28125l-0.171875 -0.40625q0.375 -0.90625 1.234375 -1.421875q0.859375 -0.53125 2.03125 -0.53125q1.21875 0 2.078125 0.625q0.875 0.609375 1.125 1.84375l-0.4375 -0.171875q0.359375 -1.03125 1.296875 -1.65625q0.9375 -0.640625 2.25 -0.640625q1.03125 0 1.78125 0.390625q0.765625 0.390625 1.1875 1.203125q0.421875 0.796875 0.421875 2.015625l0 4.875l-1.125 0l0 -4.765625q0 -1.328125 -0.640625 -2.0q-0.625 -0.6875 -1.78125 -0.6875q-0.859375 0 -1.5 0.359375q-0.625 0.359375 -0.96875 1.046875q-0.34375 0.671875 -0.34375 1.625l0 4.421875l-1.140625 0l0 -4.765625q0 -1.328125 -0.640625 -2.0q-0.640625 -0.6875 -1.796875 -0.6875q-0.84375 0 -1.484375 0.359375q-0.640625 0.359375 -0.984375 1.046875q-0.34375 0.671875 -0.34375 1.625l0 4.421875l-1.140625 0zm22.241669 0l0 -1.859375l-0.046875 -0.296875l0 -3.109375q0 -1.078125 -0.609375 -1.640625q-0.59375 -0.578125 -1.765625 -0.578125q-0.828125 0 -1.5625 0.28125q-0.734375 0.265625 -1.25 0.703125l-0.5 -0.84375q0.640625 -0.546875 1.53125 -0.84375q0.890625 -0.296875 1.890625 -0.296875q1.625 0 2.515625 0.8125q0.890625 0.8125 0.890625 2.453125l0 5.21875l-1.09375 0zm-2.890625 0.078125q-0.9375 0 -1.640625 -0.3125q-0.703125 -0.3125 -1.078125 -0.859375q-0.359375 -0.546875 -0.359375 -1.28125q0 -0.65625 0.3125 -1.1875q0.3125 -0.53125 1.015625 -0.859375q0.71875 -0.328125 1.921875 -0.328125l2.90625 0l0 0.84375l-2.875 0q-1.21875 0 -1.6875 0.4375q-0.46875 0.421875 -0.46875 1.0625q0 0.71875 0.5625 1.15625q0.5625 0.4375 1.5625 0.4375q0.96875 0 1.65625 -0.4375q0.703125 -0.453125 1.015625 -1.28125l0.265625 0.78125q-0.328125 0.84375 -1.125 1.34375q-0.78125 0.484375 -1.984375 0.484375zm7.0650024 -0.078125l0 -8.40625l1.09375 0l0 2.3125l-0.171875 -0.4375q0.390625 -0.90625 1.265625 -1.421875q0.890625 -0.53125 2.109375 -0.53125q1.015625 0 1.796875 0.390625q0.78125 0.390625 1.21875 1.203125q0.4375 0.796875 0.4375 2.015625l0 4.875l-1.140625 0l0 -4.765625q0 -1.328125 -0.671875 -2.0q-0.65625 -0.6875 -1.859375 -0.6875q-0.890625 0 -1.5625 0.359375q-0.65625 0.359375 -1.015625 1.046875q-0.359375 0.671875 -0.359375 1.625l0 4.421875l-1.140625 0zm13.47229 0.078125q-1.171875 0 -1.8125 -0.640625q-0.640625 -0.640625 -0.640625 -1.8125l0 -7.875l1.125 0l0 7.8125q0 0.734375 0.375 1.140625q0.375 0.40625 1.09375 0.40625q0.75 0 1.234375 -0.4375l0.40625 0.8125q-0.328125 0.3125 -0.8125 0.453125q-0.46875 0.140625 -0.96875 0.140625zm-3.96875 -7.53125l0 -0.953125l5.203125 0l0 0.953125l-5.203125 0zm7.808502 7.453125l0 -8.40625l1.140625 0l0 8.40625l-1.140625 0zm0.578125 -10.25q-0.34375 0 -0.59375 -0.234375q-0.234375 -0.25 -0.234375 -0.59375q0 -0.328125 0.234375 -0.5625q0.25 -0.234375 0.59375 -0.234375q0.359375 0 0.59375 0.234375q0.234375 0.21875 0.234375 0.546875q0 0.359375 -0.234375 0.609375q-0.21875 0.234375 -0.59375 0.234375zm7.225891 10.328125q-1.25 0 -2.234375 -0.546875q-0.984375 -0.5625 -1.546875 -1.515625q-0.5625 -0.96875 -0.5625 -2.21875q0 -1.265625 0.5625 -2.21875q0.5625 -0.96875 1.546875 -1.515625q0.984375 -0.546875 2.234375 -0.546875q1.0625 0 1.921875 0.421875q0.875 0.421875 1.375 1.25l-0.859375 0.578125q-0.421875 -0.640625 -1.0625 -0.9375q-0.640625 -0.3125 -1.390625 -0.3125q-0.90625 0 -1.625 0.40625q-0.71875 0.40625 -1.140625 1.140625q-0.40625 0.734375 -0.40625 1.734375q0 0.984375 0.40625 1.71875q0.421875 0.734375 1.140625 1.15625q0.71875 0.40625 1.625 0.40625q0.75 0 1.390625 -0.296875q0.640625 -0.3125 1.0625 -0.9375l0.859375 0.578125q-0.5 0.8125 -1.375 1.234375q-0.859375 0.421875 -1.921875 0.421875zm14.965637 -0.078125l0 -1.859375l-0.046875 -0.296875l0 -3.109375q0 -1.078125 -0.609375 -1.640625q-0.59375 -0.578125 -1.765625 -0.578125q-0.828125 0 -1.5625 0.28125q-0.734375 0.265625 -1.25 0.703125l-0.5 -0.84375q0.640625 -0.546875 1.53125 -0.84375q0.890625 -0.296875 1.890625 -0.296875q1.625 0 2.515625 0.8125q0.890625 0.8125 0.890625 2.453125l0 5.21875l-1.09375 0zm-2.890625 0.078125q-0.9375 0 -1.640625 -0.3125q-0.703125 -0.3125 -1.078125 -0.859375q-0.359375 -0.546875 -0.359375 -1.28125q0 -0.65625 0.3125 -1.1875q0.3125 -0.53125 1.015625 -0.859375q0.71875 -0.328125 1.921875 -0.328125l2.90625 0l0 0.84375l-2.875 0q-1.21875 0 -1.6875 0.4375q-0.46875 0.421875 -0.46875 1.0625q0 0.71875 0.5625 1.15625q0.5625 0.4375 1.5625 0.4375q0.96875 0 1.65625 -0.4375q0.703125 -0.453125 1.015625 -1.28125l0.265625 0.78125q-0.328125 0.84375 -1.125 1.34375q-0.78125 0.484375 -1.984375 0.484375zm7.065033 -0.078125l0 -8.40625l1.09375 0l0 2.3125l-0.171875 -0.4375q0.390625 -0.90625 1.265625 -1.421875q0.890625 -0.53125 2.109375 -0.53125q1.015625 0 1.796875 0.390625q0.78125 0.390625 1.21875 1.203125q0.4375 0.796875 0.4375 2.015625l0 4.875l-1.140625 0l0 -4.765625q0 -1.328125 -0.671875 -2.0q-0.65625 -0.6875 -1.859375 -0.6875q-0.890625 0 -1.5625 0.359375q-0.65625 0.359375 -1.015625 1.046875q-0.359375 0.671875 -0.359375 1.625l0 4.421875l-1.140625 0zm16.081635 0l0 -1.859375l-0.046875 -0.296875l0 -3.109375q0 -1.078125 -0.609375 -1.640625q-0.59375 -0.578125 -1.765625 -0.578125q-0.828125 0 -1.5625 0.28125q-0.734375 0.265625 -1.25 0.703125l-0.5 -0.84375q0.640625 -0.546875 1.53125 -0.84375q0.890625 -0.296875 1.890625 -0.296875q1.625 0 2.515625 0.8125q0.890625 0.8125 0.890625 2.453125l0 5.21875l-1.09375 0zm-2.890625 0.078125q-0.9375 0 -1.640625 -0.3125q-0.703125 -0.3125 -1.078125 -0.859375q-0.359375 -0.546875 -0.359375 -1.28125q0 -0.65625 0.3125 -1.1875q0.3125 -0.53125 1.015625 -0.859375q0.71875 -0.328125 1.921875 -0.328125l2.90625 0l0 0.84375l-2.875 0q-1.21875 0 -1.6875 0.4375q-0.46875 0.421875 -0.46875 1.0625q0 0.71875 0.5625 1.15625q0.5625 0.4375 1.5625 0.4375q0.96875 0 1.65625 -0.4375q0.703125 -0.453125 1.015625 -1.28125l0.265625 0.78125q-0.328125 0.84375 -1.125 1.34375q-0.78125 0.484375 -1.984375 0.484375zm7.065033 -0.078125l0 -11.875l1.140625 0l0 11.875l-1.140625 0zm4.3025208 3.1875q-0.578125 0 -1.125 -0.203125q-0.53125 -0.1875 -0.921875 -0.5625l0.53125 -0.859375q0.328125 0.3125 0.703125 0.46875q0.375 0.171875 0.828125 0.171875q0.5625 0 0.96875 -0.3125q0.421875 -0.3125 0.78125 -1.09375l0.546875 -1.234375l0.125 -0.171875l3.453125 -7.796875l1.125 0l-4.203125 9.421875q-0.359375 0.8125 -0.78125 1.28125q-0.421875 0.484375 -0.921875 0.6875q-0.5 0.203125 -1.109375 0.203125zm2.25 -2.953125l-3.875 -8.640625l1.1875 0l3.421875 7.71875l-0.734375 0.921875zm8.529144 -0.15625q-1.046875 0 -1.984375 -0.296875q-0.921875 -0.296875 -1.4375 -0.734375l0.5 -0.90625q0.515625 0.390625 1.3125 0.671875q0.8125 0.28125 1.6875 0.28125q1.203125 0 1.71875 -0.375q0.53125 -0.375 0.53125 -1.0q0 -0.46875 -0.296875 -0.734375q-0.296875 -0.265625 -0.78125 -0.390625q-0.46875 -0.140625 -1.0625 -0.234375q-0.59375 -0.109375 -1.1875 -0.234375q-0.578125 -0.125 -1.0625 -0.375q-0.46875 -0.25 -0.765625 -0.671875q-0.296875 -0.4375 -0.296875 -1.15625q0 -0.6875 0.375 -1.234375q0.390625 -0.546875 1.125 -0.859375q0.75 -0.3125 1.828125 -0.3125q0.8125 0 1.625 0.21875q0.828125 0.21875 1.359375 0.5625l-0.5 0.921875q-0.5625 -0.390625 -1.203125 -0.546875q-0.640625 -0.171875 -1.28125 -0.171875q-1.140625 0 -1.671875 0.390625q-0.53125 0.390625 -0.53125 1.0q0 0.484375 0.296875 0.75q0.296875 0.265625 0.78125 0.421875q0.484375 0.15625 1.0625 0.25q0.59375 0.09375 1.171875 0.234375q0.59375 0.140625 1.078125 0.375q0.484375 0.21875 0.78125 0.640625q0.296875 0.421875 0.296875 1.125q0 0.734375 -0.40625 1.265625q-0.40625 0.53125 -1.1875 0.828125q-0.78125 0.296875 -1.875 0.296875zm5.542389 -0.078125l0 -8.40625l1.140625 0l0 8.40625l-1.140625 0zm0.578125 -10.25q-0.34375 0 -0.59375 -0.234375q-0.234375 -0.25 -0.234375 -0.59375q0 -0.328125 0.234375 -0.5625q0.25 -0.234375 0.59375 -0.234375q0.359375 0 0.59375 0.234375q0.234375 0.21875 0.234375 0.546875q0 0.359375 -0.234375 0.609375q-0.21875 0.234375 -0.59375 0.234375zm5.991516 10.328125q-1.046875 0 -1.984375 -0.296875q-0.921875 -0.296875 -1.4375 -0.734375l0.5 -0.90625q0.515625 0.390625 1.3125 0.671875q0.8125 0.28125 1.6875 0.28125q1.203125 0 1.71875 -0.375q0.53125 -0.375 0.53125 -1.0q0 -0.46875 -0.296875 -0.734375q-0.296875 -0.265625 -0.78125 -0.390625q-0.46875 -0.140625 -1.0625 -0.234375q-0.59375 -0.109375 -1.1875 -0.234375q-0.578125 -0.125 -1.0625 -0.375q-0.46875 -0.25 -0.765625 -0.671875q-0.296875 -0.4375 -0.296875 -1.15625q0 -0.6875 0.375 -1.234375q0.390625 -0.546875 1.125 -0.859375q0.75 -0.3125 1.828125 -0.3125q0.8125 0 1.625 0.21875q0.828125 0.21875 1.359375 0.5625l-0.5 0.921875q-0.5625 -0.390625 -1.203125 -0.546875q-0.640625 -0.171875 -1.28125 -0.171875q-1.140625 0 -1.671875 0.390625q-0.53125 0.390625 -0.53125 1.0q0 0.484375 0.296875 0.75q0.296875 0.265625 0.78125 0.421875q0.484375 0.15625 1.0625 0.25q0.59375 0.09375 1.171875 0.234375q0.59375 0.140625 1.078125 0.375q0.484375 0.21875 0.78125 0.640625q0.296875 0.421875 0.296875 1.125q0 0.734375 -0.40625 1.265625q-0.40625 0.53125 -1.1875 0.828125q-0.78125 0.296875 -1.875 0.296875z" fill-rule="nonzero"/><path fill="#000000" fill-opacity="0.0" d="m138.29659 86.808395l0.75590515 396.34644" fill-rule="evenodd"/><path stroke="#ff0000" stroke-width="1.0" stroke-linejoin="round" stroke-linecap="butt" d="m138.29659 86.808395l0.74446106 390.34644" fill-rule="evenodd"/><path fill="#ff0000" stroke="#ff0000" stroke-width="1.0" stroke-linecap="butt" d="m137.38933 477.15802l1.6603699 4.5349426l1.6430817 -4.54126z" fill-rule="evenodd"/><path fill="#ffffff" d="m374.89764 181.84514l178.20471 0l0 35.46457l-178.20471 0z" fill-rule="evenodd"/><path stroke="#595959" stroke-width="1.0" stroke-linejoin="round" stroke-linecap="butt" d="m374.89764 181.84514l178.20471 0l0 35.46457l-178.20471 0z" fill-rule="evenodd"/><path fill="#000000" fill-opacity="0.0" d="m372.8504 180.1916l182.2992 0l0 38.771652l-182.2992 0z" fill-rule="evenodd"/><path fill="#595959" d="m444.29208 204.5516l0 -11.203125l1.1875 0l0 10.171875l6.265625 0l0 1.03125l-7.453125 0zm12.6241455 0.078125q-1.3125 0 -2.3125 -0.546875q-0.984375 -0.5625 -1.546875 -1.515625q-0.5625 -0.96875 -0.5625 -2.21875q0 -1.25 0.53125 -2.203125q0.546875 -0.96875 1.484375 -1.515625q0.9375 -0.5625 2.09375 -0.5625q1.1875 0 2.109375 0.546875q0.921875 0.53125 1.4375 1.5q0.53125 0.96875 0.53125 2.234375q0 0.078125 -0.015625 0.171875q0 0.078125 0 0.171875l-7.3125 0l0 -0.84375l6.703125 0l-0.4375 0.328125q0 -0.90625 -0.390625 -1.609375q-0.390625 -0.71875 -1.0625 -1.109375q-0.671875 -0.40625 -1.5625 -0.40625q-0.859375 0 -1.546875 0.40625q-0.6875 0.390625 -1.078125 1.109375q-0.375 0.71875 -0.375 1.640625l0 0.1875q0 0.953125 0.421875 1.6875q0.421875 0.71875 1.171875 1.140625q0.765625 0.40625 1.75 0.40625q0.765625 0 1.421875 -0.265625q0.671875 -0.28125 1.15625 -0.84375l0.640625 0.734375q-0.5625 0.671875 -1.40625 1.03125q-0.84375 0.34375 -1.84375 0.34375zm4.564636 -0.078125l3.5625 -4.609375l-0.015625 0.5625l-3.375 -4.359375l1.28125 0l2.765625 3.609375l-0.484375 -0.015625l2.765625 -3.59375l1.25 0l-3.40625 4.40625l0.015625 -0.609375l3.578125 4.609375l-1.296875 0l-2.921875 -3.84375l0.453125 0.0625l-2.890625 3.78125l-1.28125 0zm13.131378 0.078125q-1.3125 0 -2.3125 -0.546875q-0.984375 -0.5625 -1.546875 -1.515625q-0.5625 -0.96875 -0.5625 -2.21875q0 -1.25 0.53125 -2.203125q0.546875 -0.96875 1.484375 -1.515625q0.9375 -0.5625 2.09375 -0.5625q1.1875 0 2.109375 0.546875q0.921875 0.53125 1.4375 1.5q0.53125 0.96875 0.53125 2.234375q0 0.078125 -0.015625 0.171875q0 0.078125 0 0.171875l-7.3125 0l0 -0.84375l6.703125 0l-0.4375 0.328125q0 -0.90625 -0.390625 -1.609375q-0.390625 -0.71875 -1.0625 -1.109375q-0.671875 -0.40625 -1.5625 -0.40625q-0.859375 0 -1.546875 0.40625q-0.6875 0.390625 -1.078125 1.109375q-0.375 0.71875 -0.375 1.640625l0 0.1875q0 0.953125 0.421875 1.6875q0.421875 0.71875 1.171875 1.140625q0.765625 0.40625 1.75 0.40625q0.765625 0 1.421875 -0.265625q0.671875 -0.28125 1.15625 -0.84375l0.640625 0.734375q-0.5625 0.671875 -1.40625 1.03125q-0.84375 0.34375 -1.84375 0.34375zm6.085907 -0.078125l0 -8.40625l1.09375 0l0 2.296875l-0.109375 -0.40625q0.34375 -0.953125 1.171875 -1.453125q0.84375 -0.515625 2.078125 -0.515625l0 1.109375q-0.0625 0 -0.140625 0q-0.0625 -0.015625 -0.125 -0.015625q-1.328125 0 -2.078125 0.8125q-0.75 0.796875 -0.75 2.296875l0 4.28125l-1.140625 0z" fill-rule="nonzero"/><path fill="#ffffff" d="m376.25986 325.86615l178.20468 0l0 35.46457l-178.20468 0z" fill-rule="evenodd"/><path stroke="#595959" stroke-width="1.0" stroke-linejoin="round" stroke-linecap="butt" d="m376.25986 325.86615l178.20468 0l0 35.46457l-178.20468 0z" fill-rule="evenodd"/><path fill="#000000" fill-opacity="0.0" d="m374.2126 324.2126l182.29926 0l0 38.771667l-182.29926 0z" fill-rule="evenodd"/><path fill="#595959" d="m441.71027 348.5726l0 -11.203125l4.1875 0q1.421875 0 2.4375 0.46875q1.03125 0.453125 1.578125 1.3125q0.5625 0.84375 0.5625 2.0625q0 1.1875 -0.5625 2.046875q-0.546875 0.84375 -1.578125 1.3125q-1.015625 0.46875 -2.4375 0.46875l-3.53125 0l0.53125 -0.5625l0 4.09375l-1.1875 0zm1.1875 -4.0l-0.53125 -0.578125l3.5 0q1.671875 0 2.546875 -0.71875q0.875 -0.734375 0.875 -2.0625q0 -1.34375 -0.875 -2.078125q-0.875 -0.734375 -2.546875 -0.734375l-3.5 0l0.53125 -0.5625l0 6.734375zm15.076141 4.0l0 -1.859375l-0.046875 -0.296875l0 -3.109375q0 -1.078125 -0.609375 -1.640625q-0.59375 -0.578125 -1.765625 -0.578125q-0.828125 0 -1.5625 0.28125q-0.734375 0.265625 -1.25 0.703125l-0.5 -0.84375q0.640625 -0.546875 1.53125 -0.84375q0.890625 -0.296875 1.890625 -0.296875q1.625 0 2.515625 0.8125q0.890625 0.8125 0.890625 2.453125l0 5.21875l-1.09375 0zm-2.890625 0.078125q-0.9375 0 -1.640625 -0.3125q-0.703125 -0.3125 -1.078125 -0.859375q-0.359375 -0.546875 -0.359375 -1.28125q0 -0.65625 0.3125 -1.1875q0.3125 -0.53125 1.015625 -0.859375q0.71875 -0.328125 1.921875 -0.328125l2.90625 0l0 0.84375l-2.875 0q-1.21875 0 -1.6875 0.4375q-0.46875 0.421875 -0.46875 1.0625q0 0.71875 0.5625 1.15625q0.5625 0.4375 1.5625 0.4375q0.96875 0 1.65625 -0.4375q0.703125 -0.453125 1.015625 -1.28125l0.265625 0.78125q-0.328125 0.84375 -1.125 1.34375q-0.78125 0.484375 -1.984375 0.484375zm7.065033 -0.078125l0 -8.40625l1.09375 0l0 2.296875l-0.109375 -0.40625q0.34375 -0.953125 1.171875 -1.453125q0.84375 -0.515625 2.078125 -0.515625l0 1.109375q-0.0625 0 -0.140625 0q-0.0625 -0.015625 -0.125 -0.015625q-1.328125 0 -2.078125 0.8125q-0.75 0.796875 -0.75 2.296875l0 4.28125l-1.140625 0zm8.649628 0.078125q-1.046875 0 -1.984375 -0.296875q-0.921875 -0.296875 -1.4375 -0.734375l0.5 -0.90625q0.515625 0.390625 1.3125 0.671875q0.8125 0.28125 1.6875 0.28125q1.203125 0 1.71875 -0.375q0.53125 -0.375 0.53125 -1.0q0 -0.46875 -0.296875 -0.734375q-0.296875 -0.265625 -0.78125 -0.390625q-0.46875 -0.140625 -1.0625 -0.234375q-0.59375 -0.109375 -1.1875 -0.234375q-0.578125 -0.125 -1.0625 -0.375q-0.46875 -0.25 -0.765625 -0.671875q-0.296875 -0.4375 -0.296875 -1.15625q0 -0.6875 0.375 -1.234375q0.390625 -0.546875 1.125 -0.859375q0.75 -0.3125 1.828125 -0.3125q0.8125 0 1.625 0.21875q0.828125 0.21875 1.359375 0.5625l-0.5 0.921875q-0.5625 -0.390625 -1.203125 -0.546875q-0.640625 -0.171875 -1.28125 -0.171875q-1.140625 0 -1.671875 0.390625q-0.53125 0.390625 -0.53125 1.0q0 0.484375 0.296875 0.75q0.296875 0.265625 0.78125 0.421875q0.484375 0.15625 1.0625 0.25q0.59375 0.09375 1.171875 0.234375q0.59375 0.140625 1.078125 0.375q0.484375 0.21875 0.78125 0.640625q0.296875 0.421875 0.296875 1.125q0 0.734375 -0.40625 1.265625q-0.40625 0.53125 -1.1875 0.828125q-0.78125 0.296875 -1.875 0.296875zm9.120514 0q-1.3125 0 -2.3125 -0.546875q-0.984375 -0.5625 -1.546875 -1.515625q-0.5625 -0.96875 -0.5625 -2.21875q0 -1.25 0.53125 -2.203125q0.546875 -0.96875 1.484375 -1.515625q0.9375 -0.5625 2.09375 -0.5625q1.1875 0 2.109375 0.546875q0.921875 0.53125 1.4375 1.5q0.53125 0.96875 0.53125 2.234375q0 0.078125 -0.015625 0.171875q0 0.078125 0 0.171875l-7.3125 0l0 -0.84375l6.703125 0l-0.4375 0.328125q0 -0.90625 -0.390625 -1.609375q-0.390625 -0.71875 -1.0625 -1.109375q-0.671875 -0.40625 -1.5625 -0.40625q-0.859375 0 -1.546875 0.40625q-0.6875 0.390625 -1.078125 1.109375q-0.375 0.71875 -0.375 1.640625l0 0.1875q0 0.953125 0.421875 1.6875q0.421875 0.71875 1.171875 1.140625q0.765625 0.40625 1.75 0.40625q0.765625 0 1.421875 -0.265625q0.671875 -0.28125 1.15625 -0.84375l0.640625 0.734375q-0.5625 0.671875 -1.40625 1.03125q-0.84375 0.34375 -1.84375 0.34375zm6.085907 -0.078125l0 -8.40625l1.09375 0l0 2.296875l-0.109375 -0.40625q0.34375 -0.953125 1.171875 -1.453125q0.84375 -0.515625 2.078125 -0.515625l0 1.109375q-0.0625 0 -0.140625 0q-0.0625 -0.015625 -0.125 -0.015625q-1.328125 0 -2.078125 0.8125q-0.75 0.796875 -0.75 2.296875l0 4.28125l-1.140625 0z" fill-rule="nonzero"/></g></svg>